SplineFontDB: 3.0
FontName: PlanetEstyle
FullName: Planet Estyle
FamilyName: Planet Estyle
Weight: Book
Copyright: A Planet Font. Copyright 1998 The Planet                                                                       http://www.planet.dk
Version: Macromedia Fontographer 4.1.2 25/11/98
ItalicAngle: 0
UnderlinePosition: -123
UnderlineWidth: 20
Ascent: 800
Descent: 200
sfntRevision: 0x00010000
LayerCount: 2
Layer: 0 1 "Back"  1
Layer: 1 1 "Fore"  0
XUID: [1021 1007 1580723878 4341712]
FSType: 1
OS2Version: 0
OS2_WeightWidthSlopeOnly: 0
OS2_UseTypoMetrics: 1
CreationTime: 912010170
ModificationTime: 1484719072
PfmFamily: 81
TTFWeight: 400
TTFWidth: 5
LineGap: 0
VLineGap: 0
Panose: 0 0 4 0 0 0 0 0 0 0
OS2TypoAscent: 1019
OS2TypoAOffset: 0
OS2TypoDescent: -318
OS2TypoDOffset: 0
OS2TypoLinegap: 0
OS2WinAscent: 1019
OS2WinAOffset: 0
OS2WinDescent: 318
OS2WinDOffset: 0
HheadAscent: 1019
HheadAOffset: 0
HheadDescent: -318
HheadDOffset: 0
OS2SubXSize: 700
OS2SubYSize: 650
OS2SubXOff: 0
OS2SubYOff: 143
OS2SupXSize: 700
OS2SupYSize: 650
OS2SupXOff: 0
OS2SupYOff: 453
OS2StrikeYSize: 50
OS2StrikeYPos: 259
OS2Vendor: 'Alts'
OS2UnicodeRanges: 00000000.00000000.00000000.00000000
Lookup: 258 0 0 "'kern' Interletraje horizontal in Latin lookup 0"  {"'kern' Interletraje horizontal in Latin lookup 0 subtable"  } ['kern' ('latn' <'dflt' > ) ]
DEI: 91125
TtTable: prep
NPUSHB
 11
 7
 7
 3
 3
 2
 2
 1
 1
 0
 0
 1
SCANTYPE
PUSHW_1
 511
SCANCTRL
RCVT
ROUND[Grey]
WCVTP
RCVT
ROUND[Grey]
WCVTP
RCVT
ROUND[Grey]
WCVTP
RCVT
ROUND[Grey]
WCVTP
RCVT
ROUND[Grey]
WCVTP
PUSHB_4
 6
 5
 70
 0
CALL
PUSHB_2
 4
 4
RCVT
ROUND[Grey]
WCVTP
PUSHB_2
 5
 5
RCVT
ROUND[Grey]
WCVTP
EndTTInstrs
TtTable: fpgm
NPUSHB
 1
 0
FDEF
SROUND
RCVT
DUP
PUSHB_1
 3
CINDEX
RCVT
SWAP
SUB
ROUND[Grey]
RTG
SWAP
ROUND[Grey]
ADD
WCVTP
ENDF
EndTTInstrs
ShortTable: cvt  329
  -209
  -4
  530
  739
  105
  70
  103
  104
  28460
  -17283
  -2379
  -16235
  2459
  13134
  -10582
  14469
  22386
  -15640
  11445
  16722
  -17991

StartChar: .notdef
Encoding: 65536 -1 0
Width: 500
Flags: W
LayerCount: 2
Fore
SplineSet
63 0 m 1,0,-1
 63 800 l 1,1,-1
 438 800 l 1,2,-1
 438 0 l 1,3,-1
 63 0 l 1,0,-1
125 63 m 1,4,-1
 375 63 l 1,5,-1
 375 738 l 1,6,-1
 125 738 l 1,7,-1
 125 63 l 1,4,-1
EndSplineSet
Validated: 1
EndChar

StartChar: exclam
Encoding: 33 33 4
Width: 189
Flags: W
LayerCount: 2
Fore
SplineSet
107 207 m 5,0,-1
 3 207 l 5,1,-1
 3 739 l 5,2,-1
 107 739 l 5,3,-1
 107 207 l 5,0,-1
107 0 m 5,4,-1
 3 0 l 5,5,-1
 3 104 l 5,6,-1
 107 104 l 5,7,-1
 107 0 l 5,4,-1
EndSplineSet
Validated: 1
EndChar

StartChar: quotedbl
Encoding: 34 34 5
Width: 396
Flags: W
LayerCount: 2
Fore
SplineSet
312 479 m 1,0,-1
 208 479 l 1,1,-1
 208 739 l 1,2,-1
 312 739 l 1,3,-1
 312 479 l 1,0,-1
104 479 m 1,4,-1
 0 479 l 1,5,-1
 0 739 l 1,6,-1
 104 739 l 1,7,-1
 104 479 l 1,4,-1
EndSplineSet
Validated: 1
EndChar

StartChar: numbersign
Encoding: 35 35 6
Width: 605
Flags: W
LayerCount: 2
Fore
SplineSet
530 213 m 1,0,-1
 421 213 l 1,1,-1
 421 104 l 1,2,-1
 317 104 l 1,3,-1
 317 213 l 1,4,-1
 213 213 l 1,5,-1
 213 104 l 1,6,-1
 109 104 l 1,7,-1
 109 213 l 1,8,-1
 -1 213 l 1,9,-1
 -1 317 l 1,10,-1
 109 317 l 1,11,-1
 109 421 l 1,12,-1
 -1 421 l 1,13,-1
 -1 526 l 1,14,-1
 109 526 l 1,15,-1
 109 635 l 1,16,-1
 213 635 l 1,17,-1
 213 526 l 1,18,-1
 317 526 l 1,19,-1
 317 635 l 1,20,-1
 421 635 l 1,21,-1
 421 526 l 1,22,-1
 530 526 l 1,23,-1
 530 421 l 1,24,-1
 421 421 l 1,25,-1
 421 317 l 1,26,-1
 530 317 l 1,27,-1
 530 213 l 1,0,-1
317 317 m 1,28,-1
 317 421 l 1,29,-1
 213 421 l 1,30,-1
 213 317 l 1,31,-1
 317 317 l 1,28,-1
EndSplineSet
Validated: 1
EndChar

StartChar: dollar
Encoding: 36 36 7
Width: 517
Flags: W
LayerCount: 2
Fore
SplineSet
449 210 m 0,0,1
 449 27 449 27 275 3 c 1,2,-1
 275 -55 l 1,3,-1
 171 -55 l 1,4,-1
 171 3 l 1,5,6
 -2 29 -2 29 -2 211 c 1,7,-1
 102 211 l 1,8,9
 102 122 102 122 171 108 c 1,10,-1
 171 333 l 1,11,12
 92 359 92 359 54 394 c 0,13,14
 -2 444 -2 444 -2 528 c 0,15,16
 -2 710 -2 710 171 736 c 1,17,-1
 171 789 l 1,18,-1
 275 789 l 1,19,-1
 275 735 l 1,20,21
 449 711 449 711 449 528 c 1,22,-1
 345 528 l 1,23,24
 345 615 345 615 275 631 c 1,25,-1
 275 410 l 1,26,27
 354 383 354 383 393 347 c 0,28,29
 449 295 449 295 449 210 c 0,0,1
171 444 m 1,30,-1
 171 631 l 1,31,32
 102 615 102 615 102 528 c 0,33,34
 102 471 102 471 171 444 c 1,30,-1
345 210 m 0,35,36
 345 270 345 270 275 299 c 1,37,-1
 275 108 l 1,38,39
 345 122 345 122 345 210 c 0,35,36
EndSplineSet
Validated: 1
EndChar

StartChar: percent
Encoding: 37 37 8
Width: 823
Flags: W
LayerCount: 2
Fore
SplineSet
791.5 243.6 m 256,0,1
 791.5 72.5996 791.5 72.5996 630.5 72.5996 c 256,2,3
 469.5 72.5996 469.5 72.5996 469.5 243.6 c 256,4,5
 469.5 414.6 469.5 414.6 630.5 414.6 c 1,6,-1
 630.5 414.6 l 1,7,8
 791.5 414.6 791.5 414.6 791.5 243.6 c 256,0,1
605.5 771.6 m 1,9,-1
 282.5 -12.4004 l 1,10,-1
 185.5 26.5996 l 1,11,-1
 509.5 811.6 l 1,12,-1
 605.5 771.6 l 1,9,-1
332.5 588.6 m 256,13,14
 332.5 417.6 332.5 417.6 171.5 417.6 c 256,15,16
 10.5 417.6 10.5 417.6 10.5 588.6 c 256,17,18
 10.5 759.6 10.5 759.6 171.5 759.6 c 1,19,-1
 171.5 759.6 l 1,20,21
 332.5 759.6 332.5 759.6 332.5 588.6 c 256,13,14
690.5 243.6 m 256,22,23
 690.5 284.6 690.5 284.6 678 299.1 c 128,-1,24
 665.5 313.6 665.5 313.6 630.5 313.6 c 256,25,26
 595.5 313.6 595.5 313.6 583 299.1 c 128,-1,27
 570.5 284.6 570.5 284.6 570.5 243.6 c 256,28,29
 570.5 202.6 570.5 202.6 583 187.6 c 128,-1,30
 595.5 172.6 595.5 172.6 630.5 172.6 c 1,31,-1
 630.5 172.6 l 1,32,33
 665.5 172.6 665.5 172.6 678 187.6 c 128,-1,34
 690.5 202.6 690.5 202.6 690.5 243.6 c 256,22,23
231.5 588.6 m 0,35,36
 231.5 628.6 231.5 628.6 219 643.6 c 128,-1,37
 206.5 658.6 206.5 658.6 171.5 658.6 c 256,38,39
 136.5 658.6 136.5 658.6 123.5 643.6 c 128,-1,40
 110.5 628.6 110.5 628.6 110.5 588.6 c 0,41,42
 110.5 547.6 110.5 547.6 123.5 532.6 c 128,-1,43
 136.5 517.6 136.5 517.6 171.5 517.6 c 1,44,-1
 171.5 517.6 l 1,45,46
 206.5 517.6 206.5 517.6 219 532.6 c 128,-1,47
 231.5 547.6 231.5 547.6 231.5 588.6 c 0,35,36
EndSplineSet
Validated: 524293
EndChar

StartChar: ampersand
Encoding: 38 38 9
Width: 705
Flags: W
LayerCount: 2
Fore
SplineSet
649 527 m 0,0,1
 649 405 649 405 578 353 c 0,2,3
 529 316 529 316 452 316 c 1,4,-1
 452 316 l 1,5,-1
 359 316 l 1,6,-1
 359 105 l 1,7,-1
 463 105 l 1,8,-1
 463 -1 l 1,9,-1
 359 -1 l 1,10,-1
 359 -52 l 1,11,-1
 255 -52 l 1,12,-1
 255 -1 l 1,13,-1
 190 -1 l 2,14,15
 113 -1 113 -1 63 36 c 0,16,17
 -8 89 -8 89 -8 210 c 0,18,19
 -8 332 -8 332 63 385 c 1,20,21
 113 421 113 421 190 421 c 2,22,-1
 254 421 l 1,23,-1
 254 527 l 2,24,25
 254 648 254 648 325 701 c 0,26,27
 375 738 375 738 452 738 c 0,28,29
 528 738 528 738 578 701 c 0,30,31
 649 648 649 648 649 527 c 0,0,1
544 527 m 0,32,33
 544 582 544 582 527 606 c 1,34,35
 506 633 506 633 452 633 c 0,36,37
 397 633 397 633 376 606 c 0,38,39
 359 583 359 583 359 527 c 1,40,-1
 359 527 l 1,41,-1
 359 421 l 1,42,-1
 452 421 l 2,43,44
 507 421 507 421 527 448 c 0,45,46
 544 471 544 471 544 527 c 0,32,33
254 105 m 1,47,-1
 254 316 l 1,48,-1
 190 316 l 2,49,50
 135 316 135 316 115 289 c 0,51,52
 98 266 98 266 98 210 c 256,53,54
 98 154 98 154 115 132 c 0,55,56
 135 105 135 105 190 105 c 2,57,-1
 254 105 l 1,47,-1
EndSplineSet
Validated: 5
EndChar

StartChar: quotesingle
Encoding: 39 39 10
Width: 189
Flags: W
LayerCount: 2
Fore
SplineSet
105 479 m 1,0,-1
 1 479 l 1,1,-1
 1 739 l 1,2,-1
 105 739 l 1,3,-1
 105 479 l 1,0,-1
EndSplineSet
Validated: 1
EndChar

StartChar: parenleft
Encoding: 40 40 11
Width: 313
Flags: W
LayerCount: 2
Fore
SplineSet
254 -209 m 1,0,1
 0 -209 0 -209 0 28 c 2,2,-1
 0 502 l 2,3,4
 0 739 0 739 254 739 c 1,5,-1
 254 635 l 1,6,7
 179 635 179 635 145 610 c 0,8,9
 104 579 104 579 104 502 c 2,10,-1
 104 28 l 2,11,12
 104 -49 104 -49 145 -80 c 0,13,14
 179 -105 179 -105 254 -105 c 1,15,-1
 254 -105 l 1,16,-1
 254 -209 l 1,0,1
EndSplineSet
Validated: 5
EndChar

StartChar: parenright
Encoding: 41 41 12
Width: 334
Flags: W
LayerCount: 2
Fore
SplineSet
253 28 m 2,0,1
 253 -209 253 -209 -1 -209 c 1,2,-1
 -1 -209 l 1,3,-1
 -1 -105 l 1,4,5
 74 -105 74 -105 108 -80 c 0,6,7
 149 -49 149 -49 149 28 c 2,8,-1
 149 502 l 2,9,10
 149 579 149 579 108 610 c 0,11,12
 74 635 74 635 -1 635 c 1,13,-1
 -1 739 l 1,14,15
 253 739 253 739 253 502 c 2,16,-1
 253 28 l 2,0,1
EndSplineSet
Validated: 5
EndChar

StartChar: asterisk
Encoding: 42 42 13
Width: 595
Flags: W
LayerCount: 2
Fore
SplineSet
530 213 m 1,0,-1
 355 213 l 1,1,-1
 443 61 l 1,2,-1
 352 9 l 1,3,-1
 265 161 l 1,4,-1
 177 9 l 1,5,-1
 87 61 l 1,6,-1
 174 213 l 1,7,-1
 -1 213 l 1,8,-1
 -1 317 l 1,9,-1
 174 317 l 1,10,-1
 87 469 l 1,11,-1
 177 521 l 1,12,-1
 265 369 l 1,13,-1
 352 521 l 1,14,-1
 443 469 l 1,15,-1
 355 317 l 1,16,-1
 530 317 l 1,17,-1
 530 213 l 1,0,-1
EndSplineSet
Validated: 1
EndChar

StartChar: plus
Encoding: 43 43 14
Width: 452
Flags: W
LayerCount: 2
Fore
SplineSet
381 213 m 1,0,-1
 243 213 l 1,1,-1
 243 75 l 1,2,-1
 139 75 l 1,3,-1
 139 213 l 1,4,-1
 1 213 l 1,5,-1
 1 317 l 1,6,-1
 139 317 l 1,7,-1
 139 455 l 1,8,-1
 243 455 l 1,9,-1
 243 317 l 1,10,-1
 381 317 l 1,11,-1
 381 213 l 1,0,-1
EndSplineSet
Validated: 1
EndChar

StartChar: comma
Encoding: 44 44 15
Width: 186
Flags: W
LayerCount: 2
Fore
SplineSet
105 0 m 1,0,-1
 1 -105 l 1,1,-1
 1 104 l 1,2,-1
 105 104 l 1,3,-1
 105 0 l 1,0,-1
EndSplineSet
Validated: 1
EndChar

StartChar: hyphen
Encoding: 61485 61485 16
AltUni2: 002010.ffffffff.0
Width: 473
Flags: W
LayerCount: 2
Fore
SplineSet
380 213 m 1,0,-1
 -1 213 l 1,1,-1
 -1 317 l 1,2,-1
 380 317 l 1,3,-1
 380 213 l 1,0,-1
EndSplineSet
Validated: 1
EndChar

StartChar: period
Encoding: 46 46 17
Width: 190
Flags: W
LayerCount: 2
Fore
SplineSet
109 0 m 1,0,-1
 4 0 l 1,1,-1
 4 104 l 1,2,-1
 109 104 l 1,3,-1
 109 0 l 1,0,-1
EndSplineSet
Validated: 1
EndChar

StartChar: slash
Encoding: 47 47 18
Width: 425
Flags: W
LayerCount: 2
Fore
SplineSet
401 698 m 1,0,-1
 8 -250 l 1,1,-1
 -88 -210 l 1,2,-1
 305 738 l 1,3,-1
 401 698 l 1,0,-1
EndSplineSet
Validated: 1
EndChar

StartChar: zero
Encoding: 48 48 19
Width: 574
Flags: W
LayerCount: 2
Fore
SplineSet
497 265 m 2,0,1
 497 0 497 0 250 0 c 0,2,3
 2 0 2 0 2 265 c 2,4,-1
 2 473 l 2,5,6
 2 739 2 739 250 739 c 1,7,-1
 250 739 l 1,8,9
 497 739 497 739 497 473 c 2,10,-1
 497 265 l 2,0,1
393 265 m 2,11,-1
 393 473 l 2,12,13
 393 554 393 554 367 590 c 0,14,15
 334 635 334 635 250 635 c 0,16,17
 167 635 167 635 134 590 c 1,18,19
 106 554 106 554 106 473 c 2,20,-1
 106 265 l 2,21,22
 106 185 106 185 134 148 c 0,23,24
 167 104 167 104 250 104 c 0,25,26
 334 104 334 104 367 148 c 0,27,28
 393 184 393 184 393 265 c 2,11,-1
EndSplineSet
Validated: 5
EndChar

StartChar: one
Encoding: 49 49 20
Width: 574
Flags: W
LayerCount: 2
Fore
SplineSet
372 0 m 1,0,-1
 268 0 l 1,1,-1
 268 546 l 2,2,3
 268 588 268 588 241 608 c 0,4,5
 204 635 204 635 107 635 c 1,6,-1
 107 739 l 1,7,8
 372 739 372 739 372 546 c 2,9,-1
 372 0 l 1,0,-1
EndSplineSet
Validated: 1
EndChar

StartChar: two
Encoding: 50 50 21
Width: 574
Flags: W
LayerCount: 2
Fore
SplineSet
451 0 m 1,0,-1
 0 0 l 1,1,-1
 0 158 l 2,2,3
 0 252 0 252 69 314 c 0,4,5
 108 349 108 349 206 393 c 0,6,7
 284 428 284 428 310 450 c 0,8,9
 347 481 347 481 347 528 c 0,10,11
 347 591 347 591 315 615 c 0,12,13
 288 635 288 635 226 635 c 0,14,15
 163 635 163 635 136 615 c 0,16,17
 104 591 104 591 104 528 c 1,18,-1
 0 528 l 1,19,20
 0 610 0 610 39 663 c 0,21,22
 96 739 96 739 226 739 c 256,23,24
 356 739 356 739 412 663 c 0,25,26
 451 610 451 610 451 528 c 0,27,28
 451 437 451 437 384 376 c 0,29,30
 344 340 344 340 249 298 c 0,31,32
 168 262 168 262 142 239 c 1,33,34
 104 208 104 208 104 158 c 1,35,-1
 104 158 l 1,36,-1
 104 104 l 1,37,-1
 451 104 l 1,38,-1
 451 0 l 1,0,-1
EndSplineSet
Validated: 5
EndChar

StartChar: three
Encoding: 51 51 22
Width: 574
Flags: W
LayerCount: 2
Fore
SplineSet
451 210 m 0,0,1
 451 128 451 128 412 76 c 0,2,3
 356 0 356 0 226 0 c 256,4,5
 96 0 96 0 39 76 c 0,6,7
 0 129 0 129 0 211 c 1,8,-1
 104 211 l 1,9,10
 104 148 104 148 136 124 c 0,11,12
 163 104 163 104 226 104 c 256,13,14
 289 104 289 104 315 124 c 1,15,16
 347 147 347 147 347 210 c 256,17,18
 347 273 347 273 315 297 c 0,19,20
 289 317 289 317 226 317 c 1,21,-1
 226 421 l 1,22,23
 288 421 288 421 315 441 c 0,24,25
 347 465 347 465 347 528 c 256,26,27
 347 591 347 591 315 615 c 0,28,29
 288 635 288 635 226 635 c 0,30,31
 163 635 163 635 136 615 c 0,32,33
 104 591 104 591 104 528 c 1,34,-1
 0 528 l 1,35,36
 0 610 0 610 39 663 c 0,37,38
 96 739 96 739 226 739 c 256,39,40
 356 739 356 739 412 663 c 0,41,42
 451 610 451 610 451 528 c 0,43,44
 451 425 451 425 390 369 c 1,45,46
 390 369 390 369 390 369 c 1,47,48
 451 314 451 314 451 210 c 0,0,1
EndSplineSet
Validated: 5
EndChar

StartChar: four
Encoding: 52 52 23
Width: 574
Flags: W
LayerCount: 2
Fore
SplineSet
445 0 m 1,0,-1
 341 0 l 1,1,-1
 341 317 l 1,2,-1
 247 317 l 2,3,4
 0 317 0 317 0 583 c 2,5,-1
 0 739 l 1,6,-1
 104 739 l 1,7,-1
 104 583 l 2,8,9
 104 502 104 502 131 466 c 0,10,11
 164 421 164 421 247 421 c 2,12,-1
 341 421 l 1,13,-1
 341 739 l 1,14,-1
 445 739 l 1,15,-1
 445 0 l 1,0,-1
EndSplineSet
Validated: 1
EndChar

StartChar: five
Encoding: 53 53 24
Width: 574
Flags: W
LayerCount: 2
Fore
SplineSet
451 210 m 2,0,1
 451 128 451 128 412 76 c 0,2,3
 356 0 356 0 226 0 c 256,4,5
 96 0 96 0 39 76 c 0,6,7
 0 129 0 129 0 211 c 1,8,-1
 104 211 l 1,9,10
 104 148 104 148 136 124 c 0,11,12
 163 104 163 104 226 104 c 256,13,14
 289 104 289 104 315 124 c 1,15,16
 347 147 347 147 347 210 c 2,17,-1
 347 322 l 2,18,19
 347 385 347 385 315 409 c 0,20,21
 289 429 289 429 226 429 c 256,22,23
 163 429 163 429 136 409 c 0,24,25
 104 386 104 386 104 323 c 1,26,-1
 0 323 l 1,27,-1
 0 739 l 1,28,-1
 451 739 l 1,29,-1
 451 635 l 1,30,-1
 104 635 l 1,31,-1
 104 510 l 1,32,33
 155 533 155 533 226 533 c 0,34,35
 356 533 356 533 412 457 c 0,36,37
 451 404 451 404 451 322 c 2,38,-1
 451 210 l 2,0,1
EndSplineSet
Validated: 1
EndChar

StartChar: six
Encoding: 54 54 25
Width: 574
Flags: W
LayerCount: 2
Fore
SplineSet
451 211 m 2,0,1
 451 129 451 129 412 76 c 0,2,3
 356 0 356 0 226 0 c 256,4,5
 96 0 96 0 39 76 c 0,6,7
 0 128 0 128 0 210 c 2,8,-1
 0 528 l 2,9,10
 0 610 0 610 39 663 c 0,11,12
 96 739 96 739 226 739 c 256,13,14
 356 739 356 739 412 663 c 0,15,16
 451 610 451 610 451 528 c 1,17,-1
 347 528 l 1,18,19
 347 591 347 591 315 615 c 0,20,21
 288 635 288 635 226 635 c 0,22,23
 163 635 163 635 136 615 c 0,24,25
 104 591 104 591 104 528 c 2,26,-1
 104 450 l 1,27,28
 155 473 155 473 226 473 c 1,29,-1
 226 473 l 1,30,31
 356 473 356 473 412 397 c 0,32,33
 451 345 451 345 451 263 c 2,34,-1
 451 211 l 2,0,1
347 211 m 2,35,-1
 347 263 l 2,36,37
 347 326 347 326 315 349 c 1,38,39
 289 369 289 369 226 369 c 256,40,41
 163 369 163 369 136 349 c 0,42,43
 104 325 104 325 104 262 c 1,44,-1
 104 262 l 1,45,-1
 104 262 l 1,46,-1
 104 262 l 1,47,-1
 104 262 l 1,48,-1
 104 210 l 2,49,50
 104 147 104 147 136 124 c 0,51,52
 163 104 163 104 226 104 c 1,53,-1
 226 104 l 1,54,55
 289 104 289 104 315 124 c 0,56,57
 347 148 347 148 347 211 c 2,35,-1
EndSplineSet
Validated: 5
EndChar

StartChar: seven
Encoding: 55 55 26
Width: 574
Flags: W
LayerCount: 2
Fore
SplineSet
451 580 m 2,0,1
 451 486 451 486 383 425 c 0,2,3
 342 388 342 388 245 345 c 0,4,5
 167 310 167 310 141 288 c 0,6,7
 104 257 104 257 104 210 c 2,8,-1
 104 0 l 1,9,-1
 0 0 l 1,10,-1
 0 210 l 2,11,12
 0 302 0 302 67 362 c 0,13,14
 106 396 106 396 203 440 c 0,15,16
 283 476 283 476 310 499 c 0,17,18
 347 531 347 531 347 580 c 2,19,-1
 347 635 l 1,20,-1
 0 635 l 1,21,-1
 0 739 l 1,22,-1
 451 739 l 1,23,-1
 451 580 l 2,0,1
EndSplineSet
Validated: 1
EndChar

StartChar: eight
Encoding: 56 56 27
Width: 574
Flags: WO
LayerCount: 2
Fore
SplineSet
514.5 250.1 m 4,0,1
 514.5 168.1 514.5 168.1 475.5 116.1 c 4,2,3
 419.5 40.0996 419.5 40.0996 289.5 40.0996 c 260,4,5
 159.5 40.0996 159.5 40.0996 102.5 116.1 c 4,6,7
 63.5 169.1 63.5 169.1 63.5 251.1 c 4,8,9
 63.5 354.1 63.5 354.1 124.5 409.1 c 5,10,11
 63.5 465.1 63.5 465.1 63.5 568.1 c 4,12,13
 63.5 650.1 63.5 650.1 102.5 703.1 c 4,14,15
 159.5 779.1 159.5 779.1 289.5 779.1 c 260,16,17
 419.5 779.1 419.5 779.1 475.5 703.1 c 4,18,19
 514.5 650.1 514.5 650.1 514.5 568.1 c 4,20,21
 514.5 465.1 514.5 465.1 453.5 409.1 c 5,22,23
 453.5 409.1 453.5 409.1 453.5 409.1 c 5,24,25
 514.5 354.1 514.5 354.1 514.5 250.1 c 4,0,1
410.5 568.1 m 260,26,27
 410.5 631.1 410.5 631.1 378.5 655.1 c 4,28,29
 351.5 675.1 351.5 675.1 289.5 675.1 c 4,30,31
 226.5 675.1 226.5 675.1 199.5 655.1 c 4,32,33
 167.5 631.1 167.5 631.1 167.5 568.1 c 5,34,-1
 167.5 568.1 l 5,35,36
 167.5 505.1 167.5 505.1 199.5 481.1 c 4,37,38
 226.5 461.1 226.5 461.1 289.5 461.1 c 4,39,40
 351.5 461.1 351.5 461.1 378.5 481.1 c 4,41,42
 410.5 505.1 410.5 505.1 410.5 568.1 c 260,26,27
410.5 250.1 m 260,43,44
 410.5 313.1 410.5 313.1 378.5 337.1 c 4,45,46
 352.5 357.1 352.5 357.1 289.5 357.1 c 260,47,48
 226.5 357.1 226.5 357.1 199.5 337.1 c 4,49,50
 167.5 314.1 167.5 314.1 167.5 251.1 c 260,51,52
 167.5 188.1 167.5 188.1 199.5 164.1 c 4,53,54
 226.5 144.1 226.5 144.1 289.5 144.1 c 5,55,-1
 289.5 144.1 l 5,56,57
 352.5 144.1 352.5 144.1 378.5 164.1 c 5,58,59
 410.5 187.1 410.5 187.1 410.5 250.1 c 260,43,44
EndSplineSet
Validated: 524293
EndChar

StartChar: nine
Encoding: 57 57 28
Width: 574
Flags: W
LayerCount: 2
Fore
SplineSet
451 528 m 1,0,-1
 451 528 l 1,1,-1
 451 528 l 1,2,-1
 451 211 l 2,3,4
 451 129 451 129 412 76 c 0,5,6
 356 0 356 0 226 0 c 256,7,8
 96 0 96 0 39 76 c 0,9,10
 0 128 0 128 0 210 c 2,11,-1
 0 265 l 1,12,-1
 104 265 l 1,13,-1
 104 210 l 2,14,15
 104 147 104 147 136 124 c 0,16,17
 163 104 163 104 226 104 c 256,18,19
 289 104 289 104 315 124 c 0,20,21
 347 148 347 148 347 211 c 2,22,-1
 347 341 l 1,23,24
 297 317 297 317 226 317 c 0,25,26
 96 317 96 317 39 393 c 0,27,28
 0 446 0 446 0 528 c 256,29,30
 0 610 0 610 39 663 c 0,31,32
 96 739 96 739 226 739 c 256,33,34
 356 739 356 739 412 663 c 0,35,36
 451 610 451 610 451 528 c 1,0,-1
347 528 m 1,37,-1
 347 528 l 1,38,39
 347 591 347 591 315 615 c 0,40,41
 288 635 288 635 226 635 c 0,42,43
 163 635 163 635 136 615 c 0,44,45
 104 591 104 591 104 528 c 256,46,47
 104 465 104 465 136 441 c 0,48,49
 163 421 163 421 226 421 c 1,50,-1
 226 421 l 1,51,52
 288 421 288 421 315 441 c 0,53,54
 347 465 347 465 347 528 c 1,37,-1
EndSplineSet
Validated: 5
EndChar

StartChar: colon
Encoding: 58 58 29
Width: 188
Flags: W
LayerCount: 2
Fore
SplineSet
107 265 m 1,0,-1
 2 265 l 1,1,-1
 2 369 l 1,2,-1
 107 369 l 1,3,-1
 107 265 l 1,0,-1
107 0 m 1,4,-1
 2 0 l 1,5,-1
 2 104 l 1,6,-1
 107 104 l 1,7,-1
 107 0 l 1,4,-1
EndSplineSet
Validated: 1
EndChar

StartChar: semicolon
Encoding: 59 59 30
Width: 186
Flags: W
LayerCount: 2
Fore
SplineSet
107 265 m 1,0,-1
 3 265 l 1,1,-1
 3 369 l 1,2,-1
 107 369 l 1,3,-1
 107 265 l 1,0,-1
107 0 m 1,4,-1
 3 -105 l 1,5,-1
 3 104 l 1,6,-1
 107 104 l 1,7,-1
 107 0 l 1,4,-1
EndSplineSet
Validated: 1
EndChar

StartChar: less
Encoding: 60 60 31
Width: 381
Flags: W
LayerCount: 2
Fore
SplineSet
312 97 m 1,0,-1
 238 24 l 1,1,-1
 -3 265 l 1,2,-1
 238 506 l 1,3,-1
 312 433 l 1,4,-1
 144 265 l 1,5,-1
 312 97 l 1,0,-1
EndSplineSet
Validated: 1
EndChar

StartChar: equal
Encoding: 61 61 32
Width: 473
Flags: W
LayerCount: 2
Fore
SplineSet
416 369 m 1,0,-1
 -1 369 l 1,1,-1
 -1 473 l 1,2,-1
 416 473 l 1,3,-1
 416 369 l 1,0,-1
416 104 m 1,4,-1
 -1 104 l 1,5,-1
 -1 208 l 1,6,-1
 416 208 l 1,7,-1
 416 104 l 1,4,-1
EndSplineSet
Validated: 1
EndChar

StartChar: greater
Encoding: 62 62 33
Width: 373
Flags: W
LayerCount: 2
Fore
SplineSet
311 265 m 1,0,-1
 70 24 l 1,1,-1
 -4 97 l 1,2,-1
 164 265 l 1,3,-1
 -4 433 l 1,4,-1
 70 506 l 1,5,-1
 311 265 l 1,0,-1
EndSplineSet
Validated: 1
EndChar

StartChar: question
Encoding: 63 63 34
Width: 503
Flags: W
LayerCount: 2
Fore
SplineSet
447 528 m 4,0,1
 447 440 447 440 409 387 c 4,2,3
 388 357 388 357 337 326 c 4,4,5
 301 304 301 304 291 288 c 4,6,7
 274 263 274 263 274 208 c 5,8,-1
 170 208 l 5,9,10
 170 299 170 299 208 352 c 4,11,12
 230 383 230 383 282 415 c 4,13,14
 317 437 317 437 327 452 c 4,15,16
 343 476 343 476 343 528 c 4,17,18
 343 591 343 591 311 615 c 4,19,20
 285 635 285 635 222 635 c 260,21,22
 159 635 159 635 133 615 c 4,23,24
 101 591 101 591 101 528 c 5,25,-1
 -4 528 l 5,26,27
 -4 610 -4 610 36 663 c 4,28,29
 92 739 92 739 222 739 c 260,30,31
 352 739 352 739 408 663 c 4,32,33
 447 610 447 610 447 528 c 4,0,1
274 0 m 5,34,-1
 170 0 l 5,35,-1
 170 104 l 5,36,-1
 274 104 l 5,37,-1
 274 0 l 5,34,-1
EndSplineSet
Validated: 1
EndChar

StartChar: at
Encoding: 64 64 35
Width: 1017
Flags: W
LayerCount: 2
Fore
SplineSet
943 265 m 0,0,1
 943 132 943 132 877 47 c 0,2,3
 815 -32 815 -32 732 -32 c 0,4,5
 658 -32 658 -32 616 31 c 1,6,7
 564 0 564 0 472 0 c 0,8,9
 257 0 257 0 257 159 c 0,10,11
 257 221 257 221 294 261 c 0,12,13
 348 318 348 318 472 318 c 0,14,15
 544 318 544 318 568 338 c 0,16,17
 582 349 582 349 582 372 c 0,18,19
 582 396 582 396 568 407 c 0,20,21
 544 427 544 427 472 427 c 0,22,23
 399 427 399 427 375 407 c 0,24,25
 361 396 361 396 361 372 c 1,26,-1
 257 372 l 1,27,28
 257 531 257 531 472 531 c 0,29,30
 595 531 595 531 649 474 c 0,31,32
 686 434 686 434 686 372 c 2,33,-1
 686 159 l 2,34,35
 686 72 686 72 732 72 c 0,36,37
 770 72 770 72 802 121 c 0,38,39
 839 178 839 178 839 265 c 0,40,41
 839 417 839 417 731 525 c 128,-1,42
 623 633 623 633 471 633 c 256,43,44
 319 633 319 633 211 525 c 128,-1,45
 103 417 103 417 103 265 c 256,46,47
 103 113 103 113 211 5 c 128,-1,48
 319 -103 319 -103 471 -103 c 2,49,-1
 523 -103 l 1,50,-1
 523 -207 l 1,51,-1
 471 -207 l 2,52,53
 276 -207 276 -207 137.5 -68.5 c 128,-1,54
 -1 70 -1 70 -1 265 c 256,55,56
 -1 460 -1 460 137.5 598.5 c 128,-1,57
 276 737 276 737 471 737 c 1,58,-1
 471 737 l 1,59,60
 666 737 666 737 804.5 598.5 c 128,-1,61
 943 460 943 460 943 265 c 0,0,1
582 159 m 1,62,-1
 582 159 l 1,63,-1
 582 161 l 1,64,-1
 582 229 l 1,65,66
 536 213 536 213 472 213 c 0,67,68
 399 213 399 213 375 194 c 0,69,70
 361 183 361 183 361 159 c 256,71,72
 361 135 361 135 375 124 c 0,73,74
 399 104 399 104 472 104 c 0,75,76
 544 104 544 104 568 124 c 0,77,78
 582 135 582 135 582 159 c 1,62,-1
EndSplineSet
Validated: 5
EndChar

StartChar: A
Encoding: 65 65 36
Width: 574
Flags: W
LayerCount: 2
Fore
SplineSet
494 0 m 1,0,-1
 390 0 l 1,1,-1
 390 265 l 1,2,-1
 103 265 l 1,3,-1
 103 0 l 1,4,-1
 -1 0 l 1,5,-1
 -1 473 l 2,6,7
 -1 739 -1 739 246 739 c 1,8,-1
 246 739 l 1,9,10
 494 739 494 739 494 473 c 2,11,-1
 494 0 l 1,0,-1
390 369 m 1,12,-1
 390 473 l 2,13,14
 390 554 390 554 363 590 c 0,15,16
 329 635 329 635 246 635 c 256,17,18
 163 635 163 635 130 590 c 0,19,20
 103 554 103 554 103 473 c 2,21,-1
 103 369 l 1,22,-1
 390 369 l 1,12,-1
EndSplineSet
Validated: 5
EndChar

StartChar: B
Encoding: 66 66 37
Width: 520
Flags: W
LayerCount: 2
Fore
SplineSet
440 210 m 0,0,1
 440 89 440 89 369 36 c 0,2,3
 320 0 320 0 243 0 c 2,4,-1
 -1 0 l 1,5,-1
 -1 739 l 1,6,-1
 243 739 l 2,7,8
 320 739 320 739 369 703 c 0,9,10
 440 650 440 650 440 528 c 1,11,-1
 440 528 l 1,12,13
 440 422 440 422 387 369 c 1,14,15
 440 316 440 316 440 210 c 0,0,1
336 528 m 1,16,-1
 336 528 l 1,17,18
 336 584 336 584 319 607 c 0,19,20
 298 635 298 635 243 635 c 2,21,-1
 103 635 l 1,22,-1
 103 421 l 1,23,-1
 243 421 l 2,24,25
 298 421 298 421 319 449 c 0,26,27
 336 472 336 472 336 528 c 1,16,-1
336 210 m 256,28,29
 336 266 336 266 319 289 c 0,30,31
 298 317 298 317 243 317 c 2,32,-1
 103 317 l 1,33,-1
 103 104 l 1,34,-1
 243 104 l 2,35,36
 298 104 298 104 319 131 c 0,37,38
 336 154 336 154 336 210 c 256,28,29
EndSplineSet
Validated: 5
EndChar

StartChar: C
Encoding: 67 67 38
Width: 556
Flags: W
LayerCount: 2
Fore
SplineSet
500 265 m 1,0,1
 500 0 500 0 253 0 c 0,2,3
 5 0 5 0 5 265 c 2,4,-1
 5 473 l 2,5,6
 5 739 5 739 253 739 c 0,7,8
 500 739 500 739 500 473 c 1,9,-1
 396 473 l 1,10,11
 396 554 396 554 369 590 c 0,12,13
 336 635 336 635 253 635 c 256,14,15
 170 635 170 635 136 590 c 0,16,17
 109 554 109 554 109 473 c 2,18,-1
 109 265 l 2,19,20
 109 185 109 185 136 148 c 1,21,22
 170 104 170 104 253 104 c 1,23,-1
 253 104 l 1,24,25
 336 104 336 104 369 148 c 0,26,27
 396 184 396 184 396 265 c 1,28,-1
 500 265 l 1,0,1
EndSplineSet
Validated: 5
EndChar

StartChar: D
Encoding: 68 68 39
Width: 524
Flags: W
LayerCount: 2
Fore
SplineSet
448 265 m 2,0,1
 448 0 448 0 200 0 c 2,2,-1
 2 0 l 1,3,-1
 2 739 l 1,4,-1
 200 739 l 2,5,6
 448 739 448 739 448 473 c 2,7,-1
 448 265 l 2,0,1
343 265 m 2,8,-1
 343 473 l 2,9,10
 343 554 343 554 316 590 c 0,11,12
 283 635 283 635 200 635 c 2,13,-1
 106 635 l 1,14,-1
 106 104 l 1,15,-1
 200 104 l 2,16,17
 283 104 283 104 316 148 c 0,18,19
 343 184 343 184 343 265 c 2,8,-1
EndSplineSet
Validated: 1
EndChar

StartChar: E
Encoding: 69 69 40
Width: 453
Flags: W
LayerCount: 2
Fore
SplineSet
404 0 m 1,0,-1
 3 0 l 1,1,-1
 3 739 l 1,2,-1
 404 739 l 1,3,-1
 404 635 l 1,4,-1
 108 635 l 1,5,-1
 108 421 l 1,6,-1
 351 421 l 1,7,-1
 351 317 l 1,8,-1
 108 317 l 1,9,-1
 108 104 l 1,10,-1
 404 104 l 1,11,-1
 404 0 l 1,0,-1
EndSplineSet
Validated: 1
EndChar

StartChar: F
Encoding: 70 70 41
Width: 485
Flags: W
LayerCount: 2
Fore
SplineSet
405 635 m 1,0,-1
 109 635 l 1,1,-1
 109 421 l 1,2,-1
 353 421 l 1,3,-1
 353 317 l 1,4,-1
 109 317 l 1,5,-1
 109 0 l 1,6,-1
 5 0 l 1,7,-1
 5 739 l 1,8,-1
 405 739 l 1,9,-1
 405 635 l 1,0,-1
EndSplineSet
Validated: 1
EndChar

StartChar: G
Encoding: 71 71 42
Width: 566
Flags: W
LayerCount: 2
Fore
SplineSet
499 265 m 2,0,1
 499 0 499 0 251 0 c 0,2,3
 4 0 4 0 4 265 c 2,4,-1
 4 473 l 2,5,6
 4 739 4 739 251 739 c 0,7,8
 499 739 499 739 499 473 c 1,9,-1
 395 473 l 1,10,11
 395 554 395 554 368 590 c 0,12,13
 334 635 334 635 251 635 c 256,14,15
 168 635 168 635 135 590 c 0,16,17
 108 554 108 554 108 473 c 2,18,-1
 108 265 l 2,19,20
 108 184 108 184 135 148 c 0,21,22
 168 104 168 104 251 104 c 256,23,24
 334 104 334 104 368 148 c 1,25,26
 395 185 395 185 395 265 c 1,27,-1
 251 265 l 1,28,-1
 251 369 l 1,29,-1
 499 369 l 1,30,-1
 499 265 l 2,0,1
EndSplineSet
Validated: 1
EndChar

StartChar: H
Encoding: 72 72 43
Width: 579
Flags: W
LayerCount: 2
Fore
SplineSet
494 0 m 1,0,-1
 390 0 l 1,1,-1
 390 265 l 1,2,-1
 108 265 l 1,3,-1
 108 0 l 1,4,-1
 3 0 l 1,5,-1
 3 739 l 1,6,-1
 108 739 l 1,7,-1
 108 369 l 1,8,-1
 390 369 l 1,9,-1
 390 739 l 1,10,-1
 494 739 l 1,11,-1
 494 0 l 1,0,-1
EndSplineSet
Validated: 1
EndChar

StartChar: I
Encoding: 73 73 44
Width: 190
Flags: W
LayerCount: 2
Fore
SplineSet
105 0 m 1,0,-1
 1 0 l 1,1,-1
 1 739 l 1,2,-1
 105 739 l 1,3,-1
 105 0 l 1,0,-1
EndSplineSet
Validated: 1
EndChar

StartChar: J
Encoding: 74 74 45
Width: 330
Flags: W
LayerCount: 2
Fore
SplineSet
248 265 m 2,0,1
 248 0 248 0 1 0 c 1,2,-1
 1 0 l 1,3,-1
 1 104 l 1,4,5
 84 104 84 104 117 148 c 0,6,7
 144 184 144 184 144 265 c 2,8,-1
 144 739 l 1,9,-1
 248 739 l 1,10,-1
 248 265 l 2,0,1
EndSplineSet
Validated: 5
EndChar

StartChar: K
Encoding: 75 75 46
Width: 565
Flags: W
LayerCount: 2
Fore
SplineSet
489 0 m 1,0,-1
 384 0 l 1,1,-1
 384 103 l 2,2,3
 384 184 384 184 357 220 c 0,4,5
 324 265 324 265 241 265 c 2,6,-1
 104 265 l 1,7,-1
 104 -1 l 1,8,-1
 0 -1 l 1,9,-1
 0 739 l 1,10,-1
 104 739 l 1,11,-1
 104 369 l 1,12,-1
 235 369 l 2,13,14
 318 369 318 369 351 413 c 0,15,16
 378 449 378 449 378 530 c 2,17,-1
 378 739 l 1,18,-1
 482 739 l 1,19,-1
 482 530 l 2,20,21
 482 387 482 387 406 319 c 1,22,23
 406 319 406 319 406 319 c 1,24,25
 489 253 489 253 489 103 c 2,26,-1
 489 0 l 1,0,-1
EndSplineSet
Validated: 5
EndChar

StartChar: L
Encoding: 76 76 47
Width: 509
Flags: W
LayerCount: 2
Fore
SplineSet
445 0 m 1,0,-1
 3 0 l 1,1,-1
 3 739 l 1,2,-1
 107 739 l 1,3,-1
 107 104 l 1,4,-1
 445 104 l 1,5,-1
 445 0 l 1,0,-1
EndSplineSet
Validated: 1
EndChar

StartChar: M
Encoding: 77 77 48
Width: 968
Flags: W
LayerCount: 2
Fore
SplineSet
888 0 m 1,0,-1
 784 0 l 1,1,-1
 784 473 l 2,2,3
 784 554 784 554 757 590 c 0,4,5
 724 634 724 634 641 634 c 256,6,7
 558 634 558 634 524 590 c 1,8,9
 497 553 497 553 497 473 c 2,10,-1
 497 0 l 1,11,-1
 393 0 l 1,12,-1
 393 473 l 2,13,14
 393 554 393 554 366 590 c 0,15,16
 333 634 333 634 250 634 c 256,17,18
 167 634 167 634 133 590 c 1,19,20
 106 553 106 553 106 473 c 2,21,-1
 106 0 l 1,22,-1
 2 0 l 1,23,-1
 2 473 l 2,24,25
 2 739 2 739 250 739 c 0,26,27
 382 739 382 739 445 658 c 1,28,29
 509 739 509 739 641 739 c 1,30,-1
 641 739 l 1,31,32
 888 739 888 739 888 473 c 2,33,-1
 888 0 l 1,0,-1
EndSplineSet
Validated: 5
EndChar

StartChar: N
Encoding: 78 78 49
Width: 579
Flags: W
LayerCount: 2
Fore
SplineSet
499 0 m 1,0,-1
 395 0 l 1,1,-1
 395 473 l 2,2,3
 395 554 395 554 368 590 c 0,4,5
 335 635 335 635 252 635 c 256,6,7
 169 635 169 635 136 590 c 0,8,9
 109 554 109 554 109 473 c 2,10,-1
 109 0 l 1,11,-1
 4 0 l 1,12,-1
 4 473 l 2,13,14
 4 739 4 739 252 739 c 0,15,16
 499 739 499 739 499 473 c 2,17,-1
 499 0 l 1,0,-1
EndSplineSet
Validated: 1
EndChar

StartChar: O
Encoding: 79 79 50
Width: 573
Flags: W
LayerCount: 2
Fore
SplineSet
496 265 m 2,0,1
 496 0 496 0 249 0 c 0,2,3
 1 0 1 0 1 265 c 2,4,-1
 1 473 l 2,5,6
 1 739 1 739 249 739 c 0,7,8
 496 739 496 739 496 473 c 1,9,-1
 496 473 l 1,10,-1
 496 265 l 2,0,1
392 265 m 2,11,-1
 392 473 l 2,12,13
 392 554 392 554 365 590 c 0,14,15
 332 635 332 635 249 635 c 256,16,17
 166 635 166 635 132 590 c 0,18,19
 105 554 105 554 105 473 c 2,20,-1
 105 265 l 2,21,22
 105 185 105 185 132 148 c 1,23,24
 166 104 166 104 249 104 c 256,25,26
 332 104 332 104 365 148 c 0,27,28
 392 184 392 184 392 265 c 2,11,-1
EndSplineSet
Validated: 5
EndChar

StartChar: P
Encoding: 80 80 51
Width: 518
Flags: W
LayerCount: 2
Fore
SplineSet
466 502 m 256,0,1
 466 265 466 265 213 265 c 2,2,-1
 110 265 l 1,3,-1
 110 0 l 1,4,-1
 6 0 l 1,5,-1
 6 739 l 1,6,-1
 213 739 l 2,7,8
 466 739 466 739 466 502 c 256,0,1
362 502 m 0,9,10
 362 579 362 579 321 610 c 0,11,12
 287 635 287 635 213 635 c 2,13,-1
 110 635 l 1,14,-1
 110 369 l 1,15,-1
 213 369 l 2,16,17
 289 369 289 369 322 394 c 0,18,19
 362 424 362 424 362 502 c 0,9,10
EndSplineSet
Validated: 1
EndChar

StartChar: Q
Encoding: 81 81 52
Width: 581
Flags: W
LayerCount: 2
Fore
SplineSet
507 47 m 1,0,-1
 433 -27 l 1,1,-1
 379 27 l 1,2,3
 328 0 328 0 250 0 c 0,4,5
 2 0 2 0 2 265 c 2,6,-1
 2 473 l 2,7,8
 2 739 2 739 250 739 c 0,9,10
 497 739 497 739 497 473 c 2,11,-1
 497 265 l 2,12,13
 497 159 497 159 457 97 c 1,14,-1
 507 47 l 1,0,-1
393 265 m 2,15,-1
 393 473 l 2,16,17
 393 554 393 554 366 590 c 0,18,19
 333 635 333 635 250 635 c 256,20,21
 167 635 167 635 133 590 c 0,22,23
 106 554 106 554 106 473 c 2,24,-1
 106 265 l 2,25,26
 106 185 106 185 133 148 c 1,27,28
 167 104 167 104 250 104 c 1,29,-1
 250 104 l 1,30,31
 279 104 279 104 298 108 c 1,32,-1
 255 151 l 1,33,-1
 329 225 l 1,34,-1
 380 174 l 1,35,36
 393 207 393 207 393 265 c 2,15,-1
EndSplineSet
Validated: 5
EndChar

StartChar: R
Encoding: 82 82 53
Width: 543
Flags: W
LayerCount: 2
Fore
SplineSet
465 0 m 1,0,-1
 360 0 l 1,1,-1
 360 132 l 2,2,3
 360 210 360 210 319 240 c 0,4,5
 286 265 286 265 211 265 c 2,6,-1
 108 265 l 1,7,-1
 108 0 l 1,8,-1
 4 0 l 1,9,-1
 4 739 l 1,10,-1
 211 739 l 2,11,12
 465 739 465 739 465 502 c 0,13,14
 465 378 465 378 390 317 c 1,15,16
 390 317 390 317 390 317 c 1,17,18
 465 257 465 257 465 132 c 2,19,-1
 465 0 l 1,0,-1
360 502 m 0,20,21
 360 579 360 579 319 610 c 0,22,23
 286 635 286 635 211 635 c 2,24,-1
 108 635 l 1,25,-1
 108 369 l 1,26,-1
 211 369 l 2,27,28
 287 369 287 369 320 394 c 0,29,30
 360 424 360 424 360 502 c 0,20,21
EndSplineSet
Validated: 5
EndChar

StartChar: S
Encoding: 83 83 54
Width: 519
Flags: W
LayerCount: 2
Fore
SplineSet
450 210 m 0,0,1
 450 128 450 128 411 76 c 0,2,3
 355 0 355 0 225 0 c 256,4,5
 95 0 95 0 39 76 c 0,6,7
 -1 129 -1 129 -1 211 c 1,8,-1
 103 211 l 1,9,10
 103 148 103 148 135 124 c 0,11,12
 162 104 162 104 225 104 c 256,13,14
 288 104 288 104 314 124 c 1,15,16
 346 147 346 147 346 210 c 0,17,18
 346 255 346 255 314 279 c 0,19,20
 288 298 288 298 208 322 c 0,21,22
 112 351 112 351 71 381 c 0,23,24
 -1 434 -1 434 -1 528 c 0,25,26
 -1 610 -1 610 39 663 c 0,27,28
 95 739 95 739 225 739 c 256,29,30
 355 739 355 739 411 663 c 0,31,32
 450 610 450 610 450 528 c 1,33,-1
 346 528 l 1,34,35
 346 591 346 591 314 615 c 0,36,37
 287 635 287 635 225 635 c 0,38,39
 162 635 162 635 135 615 c 0,40,41
 103 591 103 591 103 528 c 0,42,43
 103 486 103 486 135 463 c 0,44,45
 160 445 160 445 238 422 c 1,46,47
 238 422 238 422 238 422 c 1,48,49
 336 393 336 393 378 361 c 0,50,51
 450 308 450 308 450 210 c 0,0,1
EndSplineSet
Validated: 1
EndChar

StartChar: T
Encoding: 84 84 55
Width: 527
Flags: W
LayerCount: 2
Fore
SplineSet
476 635 m 1,0,-1
 292 635 l 1,1,-1
 292 0 l 1,2,-1
 188 0 l 1,3,-1
 188 635 l 1,4,-1
 4 635 l 1,5,-1
 4 739 l 1,6,-1
 476 739 l 1,7,-1
 476 635 l 1,0,-1
EndSplineSet
Validated: 1
EndChar

StartChar: U
Encoding: 85 85 56
Width: 578
Flags: W
LayerCount: 2
Fore
SplineSet
496 265 m 2,0,1
 496 0 496 0 248 0 c 0,2,3
 1 0 1 0 1 265 c 2,4,-1
 1 739 l 1,5,-1
 105 739 l 1,6,-1
 105 265 l 2,7,8
 105 184 105 184 132 148 c 0,9,10
 165 104 165 104 248 104 c 256,11,12
 331 104 331 104 365 148 c 1,13,14
 392 185 392 185 392 265 c 2,15,-1
 392 739 l 1,16,-1
 496 739 l 1,17,-1
 496 265 l 2,0,1
EndSplineSet
Validated: 1
EndChar

StartChar: V
Encoding: 86 86 57
Width: 682
Flags: W
LayerCount: 2
Fore
SplineSet
655 738 m 1,0,-1
 362 -3 l 1,1,-1
 265 -3 l 1,2,-1
 -27 738 l 1,3,-1
 85 738 l 1,4,-1
 314 158 l 1,5,-1
 543 738 l 1,6,-1
 655 738 l 1,0,-1
EndSplineSet
Validated: 1
EndChar

StartChar: W
Encoding: 87 87 58
Width: 968
Flags: W
LayerCount: 2
Fore
SplineSet
886 265 m 2,0,1
 886 0 886 0 639 0 c 0,2,3
 506 0 506 0 443 80 c 1,4,5
 381 0 381 0 248 0 c 0,6,7
 0 0 0 0 0 265 c 2,8,-1
 0 739 l 1,9,-1
 105 739 l 1,10,-1
 105 265 l 2,11,12
 105 184 105 184 132 148 c 0,13,14
 165 104 165 104 248 104 c 256,15,16
 331 104 331 104 364 148 c 0,17,18
 391 184 391 184 391 265 c 2,19,-1
 391 739 l 1,20,-1
 495 739 l 1,21,-1
 495 265 l 2,22,23
 495 185 495 185 522 148 c 1,24,25
 556 104 556 104 639 104 c 256,26,27
 722 104 722 104 755 148 c 0,28,29
 782 184 782 184 782 265 c 2,30,-1
 782 739 l 1,31,-1
 886 739 l 1,32,-1
 886 265 l 2,0,1
EndSplineSet
Validated: 1
EndChar

StartChar: X
Encoding: 88 88 59
Width: 649
Flags: W
LayerCount: 2
Fore
SplineSet
595 0 m 1,0,-1
 470 0 l 1,1,-1
 283 282 l 1,2,-1
 96 0 l 1,3,-1
 -29 0 l 1,4,-1
 221 377 l 1,5,-1
 -19 739 l 1,6,-1
 106 739 l 1,7,-1
 283 471 l 1,8,-1
 461 739 l 1,9,-1
 586 739 l 1,10,-1
 346 377 l 1,11,-1
 595 0 l 1,0,-1
EndSplineSet
Validated: 1
EndChar

StartChar: Y
Encoding: 89 89 60
Width: 572
Flags: W
LayerCount: 2
Fore
SplineSet
496 531 m 2,0,1
 496 297 496 297 301 269 c 1,2,-1
 301 0 l 1,3,-1
 196 0 l 1,4,-1
 196 269 l 1,5,6
 1 297 1 297 1 531 c 2,7,-1
 1 739 l 1,8,-1
 105 739 l 1,9,-1
 105 531 l 2,10,11
 105 450 105 450 132 414 c 0,12,13
 165 369 165 369 248 369 c 256,14,15
 331 369 331 369 365 414 c 0,16,17
 392 450 392 450 392 531 c 2,18,-1
 392 739 l 1,19,-1
 496 739 l 1,20,-1
 496 531 l 2,0,1
EndSplineSet
Validated: 1
EndChar

StartChar: Z
Encoding: 90 90 61
Width: 612
Flags: W
LayerCount: 2
Fore
SplineSet
554 0 m 1,0,-1
 3 0 l 1,1,-1
 3 104 l 2,2,3
 3 253 3 253 89 332 c 0,4,5
 140 378 140 378 263 421 c 0,6,7
 364 457 364 457 397 487 c 0,8,9
 450 535 450 535 450 634 c 1,10,-1
 3 634 l 1,11,-1
 3 739 l 1,12,-1
 554 739 l 1,13,-1
 554 634 l 2,14,15
 554 489 554 489 469 411 c 0,16,17
 419 366 419 366 297 323 c 0,18,19
 195 287 195 287 161 255 c 0,20,21
 108 206 108 206 108 104 c 1,22,-1
 554 104 l 1,23,-1
 554 0 l 1,0,-1
EndSplineSet
Validated: 1
EndChar

StartChar: bracketleft
Encoding: 91 91 62
Width: 330
Flags: W
LayerCount: 2
Fore
SplineSet
274 635 m 1,0,-1
 110 635 l 1,1,-1
 110 -105 l 1,2,-1
 246 -105 l 1,3,-1
 246 -209 l 1,4,-1
 6 -209 l 1,5,-1
 6 739 l 1,6,-1
 274 739 l 1,7,-1
 274 635 l 1,0,-1
EndSplineSet
Validated: 1
EndChar

StartChar: backslash
Encoding: 92 92 63
Width: 452
Flags: W
LayerCount: 2
Fore
SplineSet
484 -210 m 1,0,-1
 388 -250 l 1,1,-1
 -5 698 l 1,2,-1
 91 738 l 1,3,-1
 484 -210 l 1,0,-1
EndSplineSet
Validated: 1
EndChar

StartChar: bracketright
Encoding: 93 93 64
Width: 325
Flags: W
LayerCount: 2
Fore
SplineSet
240 -209 m 1,0,-1
 0 -209 l 1,1,-1
 0 -105 l 1,2,-1
 135 -105 l 1,3,-1
 135 635 l 1,4,-1
 0 635 l 1,5,-1
 0 739 l 1,6,-1
 240 739 l 1,7,-1
 240 -209 l 1,0,-1
EndSplineSet
Validated: 1
EndChar

StartChar: asciicircum
Encoding: 94 94 65
Width: 492
Flags: W
LayerCount: 2
Fore
SplineSet
424 631 m 1,0,-1
 377 538 l 1,1,-1
 211 622 l 1,2,-1
 45 538 l 1,3,-1
 -2 631 l 1,4,-1
 211 739 l 1,5,-1
 424 631 l 1,0,-1
EndSplineSet
Validated: 1
EndChar

StartChar: underscore
Encoding: 95 95 66
Width: 576
Flags: W
LayerCount: 2
Fore
SplineSet
576 -157 m 1,0,-1
 -1 -157 l 1,1,-1
 -1 -53 l 1,2,-1
 576 -53 l 1,3,-1
 576 -157 l 1,0,-1
EndSplineSet
Validated: 1
EndChar

StartChar: grave
Encoding: 96 96 67
Width: 426
Flags: W
LayerCount: 2
Fore
SplineSet
356 650 m 1,0,-1
 336 548 l 1,1,-1
 284 558 l 1,2,-1
 -12 617 l 1,3,-1
 9 720 l 1,4,-1
 60 709 l 1,5,-1
 356 650 l 1,0,-1
EndSplineSet
Validated: 1
EndChar

StartChar: a
Encoding: 97 97 68
Width: 503
Flags: W
LayerCount: 2
Fore
SplineSet
426 159 m 2,0,1
 426 0 426 0 211 0 c 0,2,3
 88 0 88 0 34 57 c 0,4,5
 -3 97 -3 97 -3 159 c 256,6,7
 -3 221 -3 221 34 261 c 0,8,9
 88 318 88 318 211 318 c 1,10,-1
 211 318 l 1,11,12
 284 318 284 318 308 338 c 0,13,14
 322 349 322 349 322 372 c 0,15,16
 322 396 322 396 308 407 c 0,17,18
 284 427 284 427 211 427 c 0,19,20
 139 427 139 427 115 407 c 0,21,22
 101 396 101 396 101 372 c 1,23,-1
 -3 372 l 1,24,25
 -3 434 -3 434 34 474 c 0,26,27
 88 531 88 531 211 531 c 0,28,29
 426 531 426 531 426 372 c 1,30,-1
 426 372 l 1,31,-1
 426 159 l 2,0,1
322 159 m 2,32,-1
 322 229 l 1,33,34
 276 213 276 213 211 213 c 1,35,-1
 211 213 l 1,36,37
 139 213 139 213 115 194 c 0,38,39
 101 183 101 183 101 159 c 256,40,41
 101 135 101 135 115 124 c 0,42,43
 139 104 139 104 211 104 c 1,44,-1
 211 104 l 1,45,46
 284 104 284 104 308 124 c 0,47,48
 322 135 322 135 322 159 c 2,32,-1
EndSplineSet
Validated: 5
EndChar

StartChar: b
Encoding: 98 98 69
Width: 555
Flags: W
LayerCount: 2
Fore
SplineSet
498 265 m 0,0,1
 498 0 498 0 250 0 c 0,2,3
 3 0 3 0 3 265 c 2,4,-1
 3 739 l 1,5,-1
 107 739 l 1,6,-1
 107 531 l 1,7,-1
 250 531 l 2,8,9
 498 531 498 531 498 265 c 0,0,1
394 265 m 0,10,11
 394 346 394 346 367 382 c 0,12,13
 333 427 333 427 250 427 c 2,14,-1
 107 427 l 1,15,-1
 107 265 l 2,16,17
 107 185 107 185 134 149 c 0,18,19
 167 104 167 104 250 104 c 1,20,-1
 250 104 l 1,21,22
 333 104 333 104 367 149 c 0,23,24
 394 185 394 185 394 265 c 0,10,11
EndSplineSet
Validated: 5
EndChar

StartChar: c
Encoding: 99 99 70
Width: 530
Flags: W
LayerCount: 2
Fore
SplineSet
478 162 m 1,0,1
 435 0 435 0 243 0 c 0,2,3
 -4 0 -4 0 -4 266 c 0,4,5
 -4 531 -4 531 243 531 c 0,6,7
 435 531 435 531 478 369 c 1,8,-1
 368 369 l 1,9,10
 338 427 338 427 243 427 c 0,11,12
 160 427 160 427 127 383 c 0,13,14
 100 347 100 347 100 266 c 256,15,16
 100 185 100 185 127 149 c 0,17,18
 160 104 160 104 243 104 c 0,19,20
 337 104 337 104 368 162 c 1,21,-1
 368 162 l 1,22,-1
 478 162 l 1,0,1
EndSplineSet
Validated: 5
EndChar

StartChar: d
Encoding: 100 100 71
Width: 570
Flags: W
LayerCount: 2
Fore
SplineSet
488 265 m 2,0,1
 488 -1 488 -1 241 -1 c 0,2,3
 -7 -1 -7 -1 -7 265 c 0,4,5
 -7 530 -7 530 241 530 c 2,6,-1
 384 530 l 1,7,-1
 384 739 l 1,8,-1
 488 739 l 1,9,-1
 488 265 l 2,0,1
384 265 m 2,10,-1
 384 426 l 1,11,-1
 241 426 l 2,12,13
 158 426 158 426 125 382 c 0,14,15
 98 346 98 346 98 265 c 256,16,17
 98 184 98 184 125 148 c 0,18,19
 158 103 158 103 241 103 c 1,20,-1
 241 103 l 1,21,22
 324 103 324 103 357 148 c 0,23,24
 384 184 384 184 384 265 c 2,10,-1
EndSplineSet
Validated: 5
EndChar

StartChar: e
Encoding: 101 101 72
Width: 570
Flags: W
LayerCount: 2
Fore
SplineSet
489 0 m 1,0,-1
 242 0 l 2,1,2
 -6 0 -6 0 -6 265 c 0,3,4
 -6 531 -6 531 242 531 c 0,5,6
 489 531 489 531 489 265 c 2,7,-1
 489 213 l 1,8,-1
 101 213 l 1,9,10
 117 104 117 104 242 104 c 2,11,-1
 489 104 l 1,12,-1
 489 0 l 1,0,-1
382 317 m 1,13,14
 366 427 366 427 242 427 c 1,15,-1
 242 427 l 1,16,17
 117 427 117 427 101 317 c 1,18,-1
 382 317 l 1,13,14
EndSplineSet
Validated: 5
EndChar

StartChar: f
Encoding: 102 102 73
Width: 328
Flags: W
LayerCount: 2
Fore
SplineSet
266 426 m 1,0,-1
 105 426 l 1,1,-1
 105 0 l 1,2,-1
 0 0 l 1,3,-1
 0 546 l 2,4,5
 0 739 0 739 266 739 c 1,6,-1
 266 635 l 1,7,8
 169 635 169 635 132 608 c 0,9,10
 105 588 105 588 105 546 c 2,11,-1
 105 530 l 1,12,-1
 266 530 l 1,13,-1
 266 426 l 1,0,-1
EndSplineSet
Validated: 1
EndChar

StartChar: g
Encoding: 103 103 74
Width: 570
Flags: W
LayerCount: 2
Fore
SplineSet
490 -15 m 2,0,1
 490 -209 490 -209 243 -209 c 2,2,-1
 47 -209 l 1,3,-1
 47 -105 l 1,4,-1
 243 -105 l 2,5,6
 336 -105 336 -105 368 -72 c 0,7,8
 386 -54 386 -54 386 -15 c 2,9,-1
 386 0 l 1,10,-1
 243 0 l 2,11,12
 -5 0 -5 0 -5 265 c 0,13,14
 -5 531 -5 531 243 531 c 1,15,-1
 243 531 l 1,16,17
 490 531 490 531 490 265 c 2,18,-1
 490 -15 l 2,0,1
386 104 m 1,19,-1
 386 265 l 2,20,21
 386 346 386 346 359 382 c 0,22,23
 326 427 326 427 243 427 c 256,24,25
 160 427 160 427 126 382 c 0,26,27
 99 346 99 346 99 265 c 0,28,29
 99 185 99 185 126 148 c 1,30,31
 160 104 160 104 243 104 c 1,32,-1
 243 104 l 1,33,-1
 386 104 l 1,19,-1
EndSplineSet
Validated: 5
EndChar

StartChar: h
Encoding: 104 104 75
Width: 566
Flags: W
LayerCount: 2
Fore
SplineSet
495 0 m 1,0,-1
 391 0 l 1,1,-1
 391 265 l 2,2,3
 391 346 391 346 364 382 c 0,4,5
 331 427 331 427 248 427 c 256,6,7
 165 427 165 427 131 382 c 0,8,9
 104 346 104 346 104 265 c 2,10,-1
 104 0 l 1,11,-1
 0 0 l 1,12,-1
 0 739 l 1,13,-1
 104 739 l 1,14,-1
 104 496 l 1,15,16
 163 531 163 531 248 531 c 1,17,-1
 248 531 l 1,18,19
 495 531 495 531 495 265 c 2,20,-1
 495 0 l 1,0,-1
EndSplineSet
Validated: 5
EndChar

StartChar: i
Encoding: 105 105 76
Width: 185
Flags: W
LayerCount: 2
Fore
SplineSet
104 635 m 1,0,-1
 0 635 l 1,1,-1
 0 739 l 1,2,-1
 104 739 l 1,3,-1
 104 635 l 1,0,-1
0 531 m 1,4,-1
 104 531 l 1,5,-1
 104 0 l 1,6,-1
 0 0 l 1,7,-1
 0 531 l 1,4,-1
EndSplineSet
Validated: 1
EndChar

StartChar: j
Encoding: 106 106 77
Width: 344
Flags: W
LayerCount: 2
Fore
SplineSet
266 635 m 1,0,-1
 162 635 l 1,1,-1
 162 739 l 1,2,-1
 266 739 l 1,3,-1
 266 635 l 1,0,-1
266 -16 m 2,4,5
 266 -209 266 -209 1 -209 c 1,6,-1
 1 -105 l 1,7,8
 97 -105 97 -105 134 -78 c 0,9,10
 162 -58 162 -58 162 -16 c 2,11,-1
 162 531 l 1,12,-1
 266 531 l 1,13,-1
 266 -16 l 2,4,5
EndSplineSet
Validated: 1
EndChar

StartChar: k
Encoding: 107 107 78
Width: 491
Flags: W
LayerCount: 2
Fore
SplineSet
435 0 m 1,0,-1
 331 0 l 1,1,-1
 331 52 l 2,2,3
 331 133 331 133 304 169 c 0,4,5
 271 213 271 213 188 213 c 2,6,-1
 103 213 l 1,7,-1
 103 0 l 1,8,-1
 -1 0 l 1,9,-1
 -1 739 l 1,10,-1
 103 739 l 1,11,-1
 103 317 l 1,12,-1
 182 317 l 2,13,14
 265 317 265 317 298 362 c 0,15,16
 325 398 325 398 325 479 c 2,17,-1
 325 531 l 1,18,-1
 429 531 l 1,19,-1
 429 479 l 2,20,21
 429 334 429 334 353 268 c 1,22,23
 353 268 353 268 353 268 c 1,24,25
 435 201 435 201 435 52 c 2,26,-1
 435 0 l 1,0,-1
EndSplineSet
Validated: 5
EndChar

StartChar: l
Encoding: 108 108 79
Width: 311
Flags: W
LayerCount: 2
Fore
SplineSet
269 0 m 1,0,1
 3 0 3 0 3 192 c 2,2,-1
 3 739 l 1,3,-1
 107 739 l 1,4,-1
 107 192 l 2,5,6
 107 151 107 151 135 131 c 0,7,8
 172 104 172 104 269 104 c 1,9,-1
 269 0 l 1,0,1
EndSplineSet
Validated: 1
EndChar

StartChar: m
Encoding: 109 109 80
Width: 969
Flags: W
LayerCount: 2
Fore
SplineSet
888 0 m 1,0,-1
 784 0 l 1,1,-1
 784 265 l 2,2,3
 784 346 784 346 757 382 c 0,4,5
 723 427 723 427 640 427 c 256,6,7
 557 427 557 427 524 382 c 0,8,9
 497 346 497 346 497 265 c 2,10,-1
 497 0 l 1,11,-1
 393 0 l 1,12,-1
 393 265 l 2,13,14
 393 346 393 346 366 382 c 0,15,16
 332 427 332 427 249 427 c 256,17,18
 166 427 166 427 133 382 c 0,19,20
 106 346 106 346 106 265 c 2,21,-1
 106 0 l 1,22,-1
 2 0 l 1,23,-1
 2 265 l 2,24,25
 2 531 2 531 249 531 c 0,26,27
 381 531 381 531 445 450 c 1,28,29
 508 531 508 531 640 531 c 1,30,-1
 640 531 l 1,31,32
 888 531 888 531 888 265 c 2,33,-1
 888 0 l 1,0,-1
EndSplineSet
Validated: 5
EndChar

StartChar: n
Encoding: 110 110 81
Width: 576
Flags: W
LayerCount: 2
Fore
SplineSet
495 0 m 1,0,-1
 391 0 l 1,1,-1
 391 265 l 2,2,3
 391 346 391 346 364 382 c 0,4,5
 331 427 331 427 248 427 c 256,6,7
 165 427 165 427 131 382 c 0,8,9
 104 346 104 346 104 265 c 2,10,-1
 104 0 l 1,11,-1
 0 0 l 1,12,-1
 0 265 l 2,13,14
 0 531 0 531 248 531 c 0,15,16
 495 531 495 531 495 265 c 2,17,-1
 495 0 l 1,0,-1
EndSplineSet
Validated: 1
EndChar

StartChar: o
Encoding: 111 111 82
Width: 560
Flags: W
LayerCount: 2
Fore
SplineSet
483 265 m 0,0,1
 483 0 483 0 236 0 c 0,2,3
 -12 0 -12 0 -12 265 c 0,4,5
 -12 531 -12 531 236 531 c 1,6,-1
 236 531 l 1,7,8
 483 531 483 531 483 265 c 0,0,1
379 265 m 256,9,10
 379 346 379 346 352 382 c 0,11,12
 319 427 319 427 236 427 c 256,13,14
 153 427 153 427 120 382 c 0,15,16
 93 346 93 346 93 265 c 256,17,18
 93 184 93 184 120 148 c 0,19,20
 153 104 153 104 236 104 c 1,21,-1
 236 104 l 1,22,23
 319 104 319 104 352 148 c 0,24,25
 379 184 379 184 379 265 c 256,9,10
EndSplineSet
Validated: 5
EndChar

StartChar: p
Encoding: 112 112 83
Width: 571
Flags: W
LayerCount: 2
Fore
SplineSet
498 265 m 0,0,1
 498 0 498 0 250 0 c 2,2,-1
 107 0 l 1,3,-1
 107 -209 l 1,4,-1
 3 -209 l 1,5,-1
 3 265 l 2,6,7
 3 531 3 531 250 531 c 1,8,-1
 250 531 l 1,9,10
 498 531 498 531 498 265 c 0,0,1
394 265 m 0,11,12
 394 346 394 346 367 382 c 0,13,14
 333 427 333 427 250 427 c 256,15,16
 167 427 167 427 134 382 c 0,17,18
 107 346 107 346 107 265 c 2,19,-1
 107 104 l 1,20,-1
 250 104 l 2,21,22
 333 104 333 104 367 148 c 1,23,24
 394 185 394 185 394 265 c 0,11,12
EndSplineSet
Validated: 5
EndChar

StartChar: q
Encoding: 113 113 84
Width: 576
Flags: W
LayerCount: 2
Fore
SplineSet
496 -209 m 1,0,-1
 391 -209 l 1,1,-1
 391 0 l 1,2,-1
 248 0 l 2,3,4
 0 0 0 0 0 265 c 0,5,6
 0 531 0 531 248 531 c 1,7,-1
 248 531 l 1,8,9
 496 531 496 531 496 265 c 2,10,-1
 496 -209 l 1,0,-1
391 104 m 1,11,-1
 391 265 l 2,12,13
 391 346 391 346 364 382 c 0,14,15
 331 427 331 427 248 427 c 256,16,17
 165 427 165 427 132 382 c 0,18,19
 105 346 105 346 105 265 c 256,20,21
 105 184 105 184 132 148 c 0,22,23
 165 104 165 104 248 104 c 1,24,-1
 248 104 l 1,25,-1
 391 104 l 1,11,-1
EndSplineSet
Validated: 5
EndChar

StartChar: r
Encoding: 114 114 85
Width: 328
Flags: W
LayerCount: 2
Fore
SplineSet
268 427 m 1,0,1
 171 427 171 427 134 400 c 0,2,3
 107 380 107 380 107 338 c 2,4,-1
 107 0 l 1,5,-1
 3 0 l 1,6,-1
 3 338 l 2,7,8
 3 531 3 531 268 531 c 1,9,-1
 268 427 l 1,0,1
EndSplineSet
Validated: 1
EndChar

StartChar: s
Encoding: 115 115 86
Width: 497
Flags: W
LayerCount: 2
Fore
SplineSet
429 372 m 1,0,-1
 325 372 l 1,1,2
 325 396 325 396 311 407 c 0,3,4
 287 427 287 427 215 427 c 256,5,6
 143 427 143 427 119 407 c 0,7,8
 105 396 105 396 105 372 c 0,9,10
 105 342 105 342 124.5 332 c 128,-1,11
 144 322 144 322 219 317 c 0,12,13
 310 311 310 311 354 290 c 1,14,15
 429 252 429 252 429 158 c 0,16,17
 429 -1 429 -1 215 -1 c 256,18,19
 1 -1 1 -1 1 158 c 1,20,-1
 1 158 l 1,21,-1
 105 158 l 1,22,23
 105 134 105 134 119 123 c 0,24,25
 143 103 143 103 215 103 c 256,26,27
 287 103 287 103 311 123 c 0,28,29
 325 134 325 134 325 158 c 0,30,31
 325 187 325 187 307 197 c 0,32,33
 286 208 286 208 212 213 c 0,34,35
 120 219 120 219 77 240 c 0,36,37
 1 277 1 277 1 372 c 0,38,39
 1 531 1 531 215 531 c 256,40,41
 429 531 429 531 429 372 c 1,0,-1
EndSplineSet
Validated: 5
EndChar

StartChar: t
Encoding: 116 116 87
Width: 327
Flags: W
LayerCount: 2
Fore
SplineSet
266 -1 m 1,0,1
 1 -1 1 -1 1 192 c 2,2,-1
 1 739 l 1,3,-1
 105 739 l 1,4,-1
 105 530 l 1,5,-1
 266 530 l 1,6,-1
 266 426 l 1,7,-1
 105 426 l 1,8,-1
 105 192 l 2,9,10
 105 150 105 150 132 130 c 0,11,12
 169 103 169 103 266 103 c 1,13,-1
 266 -1 l 1,0,1
EndSplineSet
Validated: 1
EndChar

StartChar: u
Encoding: 117 117 88
Width: 580
Flags: W
LayerCount: 2
Fore
SplineSet
499 265 m 2,0,1
 499 0 499 0 251 0 c 0,2,3
 4 0 4 0 4 265 c 2,4,-1
 4 531 l 1,5,-1
 108 531 l 1,6,-1
 108 265 l 2,7,8
 108 184 108 184 135 148 c 0,9,10
 168 104 168 104 251 104 c 256,11,12
 334 104 334 104 367 148 c 0,13,14
 394 184 394 184 394 265 c 2,15,-1
 394 531 l 1,16,-1
 499 531 l 1,17,-1
 499 265 l 2,0,1
EndSplineSet
Validated: 1
EndChar

StartChar: v
Encoding: 118 118 89
Width: 548
Flags: W
LayerCount: 2
Fore
SplineSet
478 531 m 1,0,-1
 266 -7 l 1,1,-1
 169 -7 l 1,2,-1
 -43 531 l 1,3,-1
 69 531 l 1,4,-1
 217 154 l 1,5,-1
 366 531 l 1,6,-1
 478 531 l 1,0,-1
EndSplineSet
Validated: 1
EndChar

StartChar: w
Encoding: 119 119 90
Width: 966
Flags: W
LayerCount: 2
Fore
SplineSet
885 265 m 2,0,1
 885 0 885 0 637 0 c 0,2,3
 504 0 504 0 442 80 c 1,4,5
 379 0 379 0 246 0 c 0,6,7
 -1 0 -1 0 -1 265 c 2,8,-1
 -1 531 l 1,9,-1
 103 531 l 1,10,-1
 103 265 l 2,11,12
 103 184 103 184 130 148 c 0,13,14
 163 104 163 104 246 104 c 256,15,16
 329 104 329 104 363 148 c 1,17,18
 390 185 390 185 390 265 c 2,19,-1
 390 531 l 1,20,-1
 494 531 l 1,21,-1
 494 265 l 2,22,23
 494 184 494 184 521 148 c 0,24,25
 554 104 554 104 637 104 c 256,26,27
 720 104 720 104 754 148 c 1,28,29
 781 185 781 185 781 265 c 2,30,-1
 781 531 l 1,31,-1
 885 531 l 1,32,-1
 885 265 l 2,0,1
EndSplineSet
Validated: 1
EndChar

StartChar: x
Encoding: 120 120 91
Width: 524
Flags: W
LayerCount: 2
Fore
SplineSet
454 0 m 1,0,-1
 330 0 l 1,1,-1
 213 176 l 1,2,-1
 96 0 l 1,3,-1
 -29 0 l 1,4,-1
 150 270 l 1,5,-1
 -21 529 l 1,6,-1
 104 529 l 1,7,-1
 213 365 l 1,8,-1
 322 529 l 1,9,-1
 447 529 l 1,10,-1
 275 270 l 1,11,-1
 454 0 l 1,0,-1
EndSplineSet
Validated: 1
EndChar

StartChar: y
Encoding: 121 121 92
Width: 575
Flags: W
LayerCount: 2
Fore
SplineSet
494 -15 m 2,0,1
 494 -209 494 -209 246 -209 c 2,2,-1
 51 -209 l 1,3,-1
 51 -105 l 1,4,-1
 246 -105 l 2,5,6
 340 -105 340 -105 372 -72 c 0,7,8
 390 -54 390 -54 390 -15 c 2,9,-1
 390 0 l 1,10,-1
 246 0 l 2,11,12
 -1 0 -1 0 -1 265 c 2,13,-1
 -1 531 l 1,14,-1
 103 531 l 1,15,-1
 103 265 l 2,16,17
 103 184 103 184 130 148 c 0,18,19
 163 104 163 104 246 104 c 2,20,-1
 390 104 l 1,21,-1
 390 531 l 1,22,-1
 494 531 l 1,23,-1
 494 -15 l 2,0,1
EndSplineSet
Validated: 1
EndChar

StartChar: z
Encoding: 122 122 93
Width: 566
Flags: W
LayerCount: 2
Fore
SplineSet
499 0 m 1,0,-1
 4 0 l 1,1,-1
 4 52 l 2,2,3
 4 317 4 317 251 317 c 0,4,5
 376 317 376 317 391 427 c 1,6,-1
 4 427 l 1,7,-1
 4 531 l 1,8,-1
 499 531 l 1,9,-1
 499 479 l 2,10,11
 499 213 499 213 251 213 c 1,12,-1
 251 213 l 1,13,14
 127 213 127 213 111 104 c 1,15,-1
 499 104 l 1,16,-1
 499 0 l 1,0,-1
EndSplineSet
Validated: 1
EndChar

StartChar: braceleft
Encoding: 123 123 94
Width: 414
Flags: W
LayerCount: 2
Fore
SplineSet
359 -209 m 1,0,1
 105 -209 105 -209 105 28 c 2,2,-1
 105 64 l 2,3,4
 105 151 105 151 78 185 c 0,5,6
 55 213 55 213 5 213 c 1,7,-1
 5 317 l 1,8,9
 55 317 55 317 78 346 c 0,10,11
 105 380 105 380 105 467 c 2,12,-1
 105 502 l 2,13,14
 105 739 105 739 359 739 c 1,15,-1
 359 635 l 1,16,17
 284 635 284 635 250 610 c 0,18,19
 209 579 209 579 209 502 c 1,20,-1
 209 502 l 1,21,-1
 209 467 l 2,22,23
 209 330 209 330 146 265 c 1,24,25
 209 200 209 200 209 64 c 2,26,-1
 209 28 l 2,27,28
 209 -49 209 -49 250 -80 c 0,29,30
 284 -105 284 -105 359 -105 c 1,31,-1
 359 -209 l 1,0,1
EndSplineSet
Validated: 5
EndChar

StartChar: bar
Encoding: 124 124 95
Width: 194
Flags: W
LayerCount: 2
Fore
SplineSet
109 -105 m 1,0,-1
 5 -105 l 1,1,-1
 5 739 l 1,2,-1
 109 739 l 1,3,-1
 109 -105 l 1,0,-1
EndSplineSet
Validated: 1
EndChar

StartChar: braceright
Encoding: 125 125 96
Width: 419
Flags: W
LayerCount: 2
Fore
SplineSet
355 213 m 1,0,1
 305 213 305 213 283 185 c 0,2,3
 255 151 255 151 255 64 c 2,4,-1
 255 28 l 2,5,6
 255 -209 255 -209 1 -209 c 1,7,-1
 1 -105 l 1,8,9
 76 -105 76 -105 110 -80 c 0,10,11
 151 -49 151 -49 151 28 c 2,12,-1
 151 64 l 2,13,14
 151 200 151 200 214 265 c 1,15,16
 151 330 151 330 151 467 c 2,17,-1
 151 502 l 2,18,19
 151 579 151 579 110 610 c 0,20,21
 76 635 76 635 1 635 c 1,22,-1
 1 739 l 1,23,24
 255 739 255 739 255 502 c 2,25,-1
 255 467 l 2,26,27
 255 380 255 380 283 346 c 1,28,29
 305 317 305 317 355 317 c 1,30,-1
 355 213 l 1,0,1
EndSplineSet
Validated: 1
EndChar

StartChar: asciitilde
Encoding: 126 126 97
Width: 583
Flags: W
LayerCount: 2
Fore
SplineSet
516 672 m 1,0,-1
 482 632 l 2,1,2
 424 564 424 564 352 564 c 0,3,4
 303 564 303 564 227 604 c 0,5,6
 171 633 171 633 150 633 c 0,7,8
 125 633 125 633 98 601 c 1,9,-1
 98 601 l 1,10,-1
 65 561 l 1,11,-1
 -15 629 l 1,12,-1
 19 668 l 2,13,14
 78 736 78 736 150 736 c 0,15,16
 199 736 199 736 275 696 c 0,17,18
 330 667 330 667 351 667 c 0,19,20
 376 667 376 667 403 699 c 2,21,-1
 437 739 l 1,22,-1
 516 672 l 1,0,-1
EndSplineSet
Validated: 5
EndChar

StartChar: Adieresis
Encoding: 196 196 98
Width: 585
Flags: W
LayerCount: 2
Fore
SplineSet
405 800 m 1,0,-1
 301 800 l 1,1,-1
 301 904 l 1,2,-1
 405 904 l 1,3,-1
 405 800 l 1,0,-1
197 800 m 1,4,-1
 92 800 l 1,5,-1
 92 904 l 1,6,-1
 197 904 l 1,7,-1
 197 800 l 1,4,-1
495 0 m 1,8,-1
 391 0 l 1,9,-1
 391 265 l 1,10,-1
 104 265 l 1,11,-1
 104 0 l 1,12,-1
 0 0 l 1,13,-1
 0 473 l 2,14,15
 0 739 0 739 247 739 c 1,16,-1
 247 739 l 1,17,18
 495 739 495 739 495 473 c 2,19,-1
 495 0 l 1,8,-1
391 369 m 1,20,-1
 391 473 l 2,21,22
 391 554 391 554 364 590 c 0,23,24
 330 635 330 635 247 635 c 256,25,26
 164 635 164 635 131 590 c 0,27,28
 104 554 104 554 104 473 c 2,29,-1
 104 369 l 1,30,-1
 391 369 l 1,20,-1
EndSplineSet
Validated: 5
EndChar

StartChar: Aring
Encoding: 197 197 99
Width: 577
Flags: W
LayerCount: 2
Fore
SplineSet
358 909 m 256,0,1
 358 863 358 863 325.5 831 c 128,-1,2
 293 799 293 799 247 799 c 1,3,-1
 247 799 l 1,4,5
 202 799 202 799 169.5 831 c 128,-1,6
 137 863 137 863 137 909 c 256,7,8
 137 955 137 955 169.5 987 c 128,-1,9
 202 1019 202 1019 247 1019 c 0,10,11
 293 1019 293 1019 325.5 987 c 128,-1,12
 358 955 358 955 358 909 c 256,0,1
495 0 m 1,13,-1
 391 0 l 1,14,-1
 391 265 l 1,15,-1
 104 265 l 1,16,-1
 104 0 l 1,17,-1
 0 0 l 1,18,-1
 0 473 l 2,19,20
 0 739 0 739 247 739 c 1,21,-1
 247 739 l 1,22,23
 495 739 495 739 495 473 c 2,24,-1
 495 0 l 1,13,-1
305 909 m 256,25,26
 305 933 305 933 288 950 c 128,-1,27
 271 967 271 967 247 967 c 1,28,-1
 247 967 l 1,29,30
 223 967 223 967 206 950 c 128,-1,31
 189 933 189 933 189 909 c 256,32,33
 189 885 189 885 206 868 c 128,-1,34
 223 851 223 851 247 851 c 256,35,36
 271 851 271 851 288 868 c 128,-1,37
 305 885 305 885 305 909 c 256,25,26
391 369 m 1,38,-1
 391 473 l 2,39,40
 391 554 391 554 364 590 c 0,41,42
 330 635 330 635 247 635 c 256,43,44
 164 635 164 635 131 590 c 0,45,46
 104 554 104 554 104 473 c 2,47,-1
 104 369 l 1,48,-1
 391 369 l 1,38,-1
EndSplineSet
Validated: 5
EndChar

StartChar: Ccedilla
Encoding: 199 199 100
Width: 543
Flags: W
LayerCount: 2
Fore
SplineSet
488 265 m 1,0,1
 488 29 488 29 289 3 c 1,2,-1
 289 -57 l 1,3,-1
 288 -58 l 1,4,5
 288 -79 288 -79 273 -94 c 128,-1,6
 258 -109 258 -109 236 -109 c 0,7,8
 228 -109 228 -109 220 -117 c 128,-1,9
 212 -125 212 -125 212 -133 c 0,10,11
 212 -157 212 -157 236 -157 c 0,12,13
 247 -157 247 -157 253 -150 c 1,14,-1
 327 -224 l 1,15,16
 290 -261 290 -261 237 -261 c 0,17,18
 183 -261 183 -261 146 -223 c 128,-1,19
 109 -185 109 -185 109 -133 c 0,20,21
 109 -96 109 -96 130 -64 c 128,-1,22
 151 -32 151 -32 185 -17 c 1,23,-1
 185 4 l 1,24,25
 -8 34 -8 34 -8 265 c 2,26,-1
 -8 473 l 2,27,28
 -8 739 -8 739 240 739 c 256,29,30
 488 739 488 739 488 473 c 1,31,-1
 383 473 l 1,32,33
 383 554 383 554 356 590 c 0,34,35
 323 635 323 635 240 635 c 256,36,37
 157 635 157 635 124 590 c 0,38,39
 97 554 97 554 97 473 c 2,40,-1
 97 265 l 2,41,42
 97 184 97 184 124 148 c 0,43,44
 157 104 157 104 240 104 c 256,45,46
 323 104 323 104 356 148 c 0,47,48
 383 184 383 184 383 265 c 1,49,-1
 488 265 l 1,0,1
EndSplineSet
Validated: 1
EndChar

StartChar: Eacute
Encoding: 201 201 101
Width: 452
Flags: W
LayerCount: 2
Fore
SplineSet
385 837 m 1,0,-1
 334 827 l 1,1,-1
 38 768 l 1,2,-1
 18 870 l 1,3,-1
 69 881 l 1,4,-1
 365 940 l 1,5,-1
 385 837 l 1,0,-1
404 0 m 1,6,-1
 3 0 l 1,7,-1
 3 739 l 1,8,-1
 404 739 l 1,9,-1
 404 635 l 1,10,-1
 108 635 l 1,11,-1
 108 421 l 1,12,-1
 351 421 l 1,13,-1
 351 317 l 1,14,-1
 108 317 l 1,15,-1
 108 104 l 1,16,-1
 404 104 l 1,17,-1
 404 0 l 1,6,-1
EndSplineSet
Validated: 1
EndChar

StartChar: Ntilde
Encoding: 209 209 102
Width: 589
Flags: W
LayerCount: 2
Fore
SplineSet
513 872 m 1,0,-1
 480 832 l 2,1,2
 424 764 424 764 351 764 c 0,3,4
 303 764 303 764 225 804 c 0,5,6
 169 833 169 833 148 833 c 0,7,8
 122 833 122 833 95 801 c 1,9,-1
 95 801 l 1,10,-1
 62 761 l 1,11,-1
 -17 829 l 1,12,-1
 16 868 l 2,13,14
 74 936 74 936 146 936 c 0,15,16
 195 936 195 936 272 896 c 0,17,18
 328 867 328 867 349 867 c 0,19,20
 374 867 374 867 401 899 c 2,21,-1
 434 939 l 1,22,-1
 513 872 l 1,0,-1
495 0 m 1,23,-1
 391 0 l 1,24,-1
 391 473 l 2,25,26
 391 554 391 554 364 590 c 0,27,28
 330 635 330 635 247 635 c 256,29,30
 164 635 164 635 131 590 c 0,31,32
 104 554 104 554 104 473 c 2,33,-1
 104 0 l 1,34,-1
 0 0 l 1,35,-1
 0 473 l 2,36,37
 0 739 0 739 247 739 c 0,38,39
 495 739 495 739 495 473 c 2,40,-1
 495 0 l 1,23,-1
EndSplineSet
Validated: 5
EndChar

StartChar: Odieresis
Encoding: 214 214 103
Width: 585
Flags: W
LayerCount: 2
Fore
SplineSet
394 795 m 1,0,-1
 290 795 l 1,1,-1
 290 899 l 1,2,-1
 394 899 l 1,3,-1
 394 795 l 1,0,-1
185 795 m 1,4,-1
 81 795 l 1,5,-1
 81 899 l 1,6,-1
 185 899 l 1,7,-1
 185 795 l 1,4,-1
489 265 m 2,8,9
 489 0 489 0 241 0 c 0,10,11
 -6 0 -6 0 -6 265 c 2,12,-1
 -6 473 l 2,13,14
 -6 739 -6 739 241 739 c 0,15,16
 489 739 489 739 489 473 c 1,17,-1
 489 473 l 1,18,-1
 489 265 l 2,8,9
385 265 m 2,19,-1
 385 473 l 2,20,21
 385 554 385 554 358 590 c 0,22,23
 324 635 324 635 241 635 c 256,24,25
 158 635 158 635 125 590 c 0,26,27
 98 554 98 554 98 473 c 2,28,-1
 98 265 l 2,29,30
 98 184 98 184 125 148 c 0,31,32
 158 104 158 104 241 104 c 256,33,34
 324 104 324 104 358 148 c 1,35,36
 385 185 385 185 385 265 c 2,19,-1
EndSplineSet
Validated: 5
EndChar

StartChar: Udieresis
Encoding: 220 220 104
Width: 609
Flags: W
LayerCount: 2
Fore
SplineSet
404 795 m 1,0,-1
 300 795 l 1,1,-1
 300 899 l 1,2,-1
 404 899 l 1,3,-1
 404 795 l 1,0,-1
196 795 m 1,4,-1
 92 795 l 1,5,-1
 92 899 l 1,6,-1
 196 899 l 1,7,-1
 196 795 l 1,4,-1
495 265 m 2,8,9
 495 0 495 0 247 0 c 0,10,11
 0 0 0 0 0 265 c 2,12,-1
 0 739 l 1,13,-1
 104 739 l 1,14,-1
 104 265 l 2,15,16
 104 184 104 184 131 148 c 0,17,18
 164 104 164 104 247 104 c 256,19,20
 330 104 330 104 364 148 c 1,21,22
 391 185 391 185 391 265 c 2,23,-1
 391 739 l 1,24,-1
 495 739 l 1,25,-1
 495 265 l 2,8,9
EndSplineSet
Validated: 1
EndChar

StartChar: aacute
Encoding: 225 225 105
Width: 503
Flags: W
LayerCount: 2
Fore
SplineSet
398 617 m 1,0,-1
 347 607 l 1,1,-1
 51 548 l 1,2,-1
 31 650 l 1,3,-1
 82 661 l 1,4,-1
 378 720 l 1,5,-1
 398 617 l 1,0,-1
429 159 m 2,6,7
 429 0 429 0 215 0 c 256,8,9
 1 0 1 0 1 159 c 256,10,11
 1 318 1 318 215 318 c 1,12,-1
 215 318 l 1,13,14
 287 318 287 318 311 338 c 0,15,16
 325 349 325 349 325 372 c 0,17,18
 325 396 325 396 311 407 c 0,19,20
 287 427 287 427 215 427 c 256,21,22
 143 427 143 427 119 407 c 0,23,24
 105 396 105 396 105 372 c 1,25,-1
 1 372 l 1,26,27
 1 531 1 531 215 531 c 256,28,29
 429 531 429 531 429 372 c 1,30,-1
 429 372 l 1,31,-1
 429 159 l 2,6,7
325 159 m 2,32,-1
 325 229 l 1,33,34
 280 213 280 213 215 213 c 1,35,-1
 215 213 l 1,36,37
 143 213 143 213 119 194 c 0,38,39
 105 183 105 183 105 159 c 256,40,41
 105 135 105 135 119 124 c 0,42,43
 143 104 143 104 215 104 c 1,44,-1
 215 104 l 1,45,46
 287 104 287 104 311 124 c 0,47,48
 325 135 325 135 325 159 c 2,32,-1
EndSplineSet
Validated: 5
EndChar

StartChar: agrave
Encoding: 224 224 106
Width: 504
Flags: W
LayerCount: 2
Fore
SplineSet
398 650 m 1,0,-1
 378 548 l 1,1,-1
 327 558 l 1,2,-1
 30 617 l 1,3,-1
 51 720 l 1,4,-1
 102 709 l 1,5,-1
 398 650 l 1,0,-1
429 159 m 2,6,7
 429 97 429 97 392 57 c 0,8,9
 338 0 338 0 215 0 c 0,10,11
 0 0 0 0 0 159 c 0,12,13
 0 221 0 221 37 261 c 0,14,15
 91 318 91 318 215 318 c 1,16,-1
 215 318 l 1,17,18
 287 318 287 318 311 338 c 0,19,20
 325 349 325 349 325 372 c 0,21,22
 325 396 325 396 311 407 c 0,23,24
 287 427 287 427 215 427 c 0,25,26
 142 427 142 427 118 407 c 0,27,28
 104 396 104 396 104 372 c 1,29,-1
 0 372 l 1,30,31
 0 531 0 531 215 531 c 0,32,33
 338 531 338 531 392 474 c 0,34,35
 429 434 429 434 429 372 c 1,36,-1
 429 372 l 1,37,-1
 429 159 l 2,6,7
325 159 m 2,38,-1
 325 229 l 1,39,40
 279 213 279 213 215 213 c 1,41,-1
 215 213 l 1,42,43
 142 213 142 213 118 194 c 0,44,45
 104 183 104 183 104 159 c 256,46,47
 104 135 104 135 118 124 c 0,48,49
 142 104 142 104 215 104 c 1,50,-1
 215 104 l 1,51,52
 287 104 287 104 311 124 c 0,53,54
 325 135 325 135 325 159 c 2,38,-1
EndSplineSet
Validated: 5
EndChar

StartChar: acircumflex
Encoding: 226 226 107
Width: 505
Flags: W
LayerCount: 2
Fore
SplineSet
426 631 m 1,0,-1
 379 538 l 1,1,-1
 213 622 l 1,2,-1
 47 538 l 1,3,-1
 0 631 l 1,4,-1
 213 739 l 1,5,-1
 426 631 l 1,0,-1
429 159 m 2,6,7
 429 97 429 97 392 57 c 0,8,9
 338 0 338 0 215 0 c 0,10,11
 0 0 0 0 0 159 c 0,12,13
 0 221 0 221 37 261 c 0,14,15
 91 318 91 318 215 318 c 1,16,-1
 215 318 l 1,17,18
 287 318 287 318 311 338 c 0,19,20
 325 349 325 349 325 372 c 0,21,22
 325 396 325 396 311 407 c 0,23,24
 287 427 287 427 215 427 c 0,25,26
 142 427 142 427 118 407 c 0,27,28
 104 396 104 396 104 372 c 1,29,-1
 0 372 l 1,30,31
 0 531 0 531 215 531 c 0,32,33
 338 531 338 531 392 474 c 0,34,35
 429 434 429 434 429 372 c 1,36,-1
 429 372 l 1,37,-1
 429 159 l 2,6,7
325 159 m 2,38,-1
 325 229 l 1,39,40
 279 213 279 213 215 213 c 1,41,-1
 215 213 l 1,42,43
 142 213 142 213 118 194 c 0,44,45
 104 183 104 183 104 159 c 256,46,47
 104 135 104 135 118 124 c 0,48,49
 142 104 142 104 215 104 c 1,50,-1
 215 104 l 1,51,52
 287 104 287 104 311 124 c 0,53,54
 325 135 325 135 325 159 c 2,38,-1
EndSplineSet
Validated: 5
EndChar

StartChar: adieresis
Encoding: 228 228 108
Width: 503
Flags: W
LayerCount: 2
Fore
SplineSet
363 635 m 1,0,-1
 258 635 l 1,1,-1
 258 739 l 1,2,-1
 363 739 l 1,3,-1
 363 635 l 1,0,-1
154 635 m 1,4,-1
 50 635 l 1,5,-1
 50 739 l 1,6,-1
 154 739 l 1,7,-1
 154 635 l 1,4,-1
429 159 m 2,8,9
 429 97 429 97 392 57 c 0,10,11
 338 0 338 0 215 0 c 0,12,13
 0 0 0 0 0 159 c 0,14,15
 0 221 0 221 37 261 c 0,16,17
 91 318 91 318 215 318 c 1,18,-1
 215 318 l 1,19,20
 287 318 287 318 311 338 c 0,21,22
 325 349 325 349 325 372 c 0,23,24
 325 396 325 396 311 407 c 0,25,26
 287 427 287 427 215 427 c 0,27,28
 142 427 142 427 118 407 c 0,29,30
 104 396 104 396 104 372 c 1,31,-1
 0 372 l 1,32,33
 0 531 0 531 215 531 c 0,34,35
 338 531 338 531 392 474 c 0,36,37
 429 434 429 434 429 372 c 1,38,-1
 429 372 l 1,39,-1
 429 159 l 2,8,9
325 159 m 2,40,-1
 325 229 l 1,41,42
 279 213 279 213 215 213 c 1,43,-1
 215 213 l 1,44,45
 142 213 142 213 118 194 c 0,46,47
 104 183 104 183 104 159 c 256,48,49
 104 135 104 135 118 124 c 0,50,51
 142 104 142 104 215 104 c 1,52,-1
 215 104 l 1,53,54
 287 104 287 104 311 124 c 0,55,56
 325 135 325 135 325 159 c 2,40,-1
EndSplineSet
Validated: 5
EndChar

StartChar: atilde
Encoding: 227 227 109
Width: 540
Flags: W
LayerCount: 2
Fore
SplineSet
481 672 m 1,0,-1
 447 632 l 2,1,2
 390 564 390 564 317 564 c 0,3,4
 268 564 268 564 192 604 c 0,5,6
 136 633 136 633 115 633 c 0,7,8
 90 633 90 633 63 601 c 1,9,-1
 63 601 l 1,10,-1
 29 561 l 1,11,-1
 -50 629 l 1,12,-1
 -16 668 l 2,13,14
 43 736 43 736 115 736 c 0,15,16
 164 736 164 736 240 696 c 0,17,18
 295 667 295 667 316 667 c 0,19,20
 342 667 342 667 368 699 c 2,21,-1
 401 739 l 1,22,-1
 481 672 l 1,0,-1
429 159 m 2,23,24
 429 0 429 0 214 0 c 0,25,26
 91 0 91 0 37 57 c 0,27,28
 0 97 0 97 0 159 c 256,29,30
 0 221 0 221 37 261 c 0,31,32
 91 318 91 318 214 318 c 1,33,-1
 214 318 l 1,34,35
 287 318 287 318 311 338 c 0,36,37
 325 349 325 349 325 372 c 0,38,39
 325 396 325 396 311 407 c 0,40,41
 287 427 287 427 214 427 c 0,42,43
 142 427 142 427 118 407 c 0,44,45
 104 396 104 396 104 372 c 1,46,-1
 0 372 l 1,47,48
 0 434 0 434 37 474 c 0,49,50
 91 531 91 531 214 531 c 0,51,52
 429 531 429 531 429 372 c 1,53,-1
 429 372 l 1,54,-1
 429 159 l 2,23,24
325 159 m 2,55,-1
 325 229 l 1,56,57
 279 213 279 213 214 213 c 1,58,-1
 214 213 l 1,59,60
 142 213 142 213 118 194 c 0,61,62
 104 183 104 183 104 159 c 256,63,64
 104 135 104 135 118 124 c 0,65,66
 142 104 142 104 214 104 c 1,67,-1
 214 104 l 1,68,69
 287 104 287 104 311 124 c 0,70,71
 325 135 325 135 325 159 c 2,55,-1
EndSplineSet
Validated: 5
EndChar

StartChar: aring
Encoding: 229 229 110
Width: 508
Flags: W
LayerCount: 2
Fore
SplineSet
330 696 m 256,0,1
 330 649 330 649 297 616 c 128,-1,2
 264 583 264 583 217 583 c 1,3,-1
 217 583 l 1,4,5
 170 583 170 583 137 616 c 128,-1,6
 104 649 104 649 104 696 c 256,7,8
 104 743 104 743 137 776 c 128,-1,9
 170 809 170 809 217 809 c 256,10,11
 264 809 264 809 297 776 c 128,-1,12
 330 743 330 743 330 696 c 256,0,1
431 0 m 1,13,-1
 217 0 l 2,14,15
 2 0 2 0 2 159 c 0,16,17
 2 221 2 221 39 261 c 0,18,19
 93 318 93 318 217 318 c 2,20,-1
 327 318 l 1,21,-1
 327 372 l 2,22,23
 327 396 327 396 313 407 c 0,24,25
 289 427 289 427 217 427 c 0,26,27
 144 427 144 427 120 407 c 0,28,29
 106 396 106 396 106 372 c 1,30,-1
 2 372 l 1,31,32
 2 531 2 531 217 531 c 1,33,-1
 217 531 l 1,34,35
 340 531 340 531 394 474 c 0,36,37
 431 434 431 434 431 372 c 2,38,-1
 431 0 l 1,13,-1
260 696 m 256,39,40
 260 714 260 714 247.5 726.5 c 128,-1,41
 235 739 235 739 217 739 c 1,42,-1
 217 739 l 1,43,44
 199 739 199 739 186 726.5 c 128,-1,45
 173 714 173 714 173 696 c 256,46,47
 173 678 173 678 186 665.5 c 128,-1,48
 199 653 199 653 217 653 c 256,49,50
 235 653 235 653 247.5 665.5 c 128,-1,51
 260 678 260 678 260 696 c 256,39,40
327 104 m 1,52,-1
 327 213 l 1,53,-1
 217 213 l 2,54,55
 144 213 144 213 120 194 c 0,56,57
 106 183 106 183 106 159 c 1,58,-1
 106 159 l 1,59,60
 106 135 106 135 120 124 c 0,61,62
 144 104 144 104 217 104 c 2,63,-1
 327 104 l 1,52,-1
EndSplineSet
Validated: 5
EndChar

StartChar: ccedilla
Encoding: 231 231 111
Width: 521
Flags: W
LayerCount: 2
Fore
SplineSet
472 162 m 1,0,1
 433 24 433 24 289 3 c 1,2,-1
 289 -57 l 1,3,-1
 288 -58 l 1,4,5
 288 -79 288 -79 272.5 -94 c 128,-1,6
 257 -109 257 -109 236 -109 c 0,7,8
 226 -109 226 -109 219 -117 c 128,-1,9
 212 -125 212 -125 212 -133 c 0,10,11
 212 -143 212 -143 218.5 -150 c 128,-1,12
 225 -157 225 -157 236 -157 c 0,13,14
 246 -157 246 -157 253 -150 c 1,15,-1
 327 -224 l 1,16,17
 290 -261 290 -261 237 -261 c 0,18,19
 182 -261 182 -261 145.5 -223.5 c 128,-1,20
 109 -186 109 -186 109 -133 c 0,21,22
 109 -79 109 -79 146 -43 c 0,23,24
 163 -27 163 -27 184 -17 c 1,25,-1
 184 3 l 1,26,27
 -11 31 -11 31 -11 265 c 0,28,29
 -11 531 -11 531 237 531 c 0,30,31
 427 531 427 531 472 369 c 1,32,-1
 361 369 l 1,33,34
 330 427 330 427 237 427 c 0,35,36
 154 427 154 427 120 382 c 0,37,38
 93 346 93 346 93 265 c 0,39,40
 93 185 93 185 120 148 c 1,41,42
 154 104 154 104 237 104 c 0,43,44
 331 104 331 104 361 162 c 1,45,-1
 472 162 l 1,0,1
EndSplineSet
Validated: 1
EndChar

StartChar: eacute
Encoding: 233 233 112
Width: 569
Flags: W
LayerCount: 2
Fore
SplineSet
420 617 m 1,0,-1
 369 607 l 1,1,-1
 73 548 l 1,2,-1
 52 650 l 1,3,-1
 103 661 l 1,4,-1
 400 720 l 1,5,-1
 420 617 l 1,0,-1
484 0 m 1,6,-1
 236 0 l 2,7,8
 -11 0 -11 0 -11 265 c 0,9,10
 -11 531 -11 531 236 531 c 0,11,12
 484 531 484 531 484 265 c 2,13,-1
 484 213 l 1,14,-1
 96 213 l 1,15,16
 112 104 112 104 236 104 c 2,17,-1
 484 104 l 1,18,-1
 484 0 l 1,6,-1
376 317 m 1,19,20
 361 427 361 427 236 427 c 1,21,-1
 236 427 l 1,22,23
 112 427 112 427 96 317 c 1,24,-1
 376 317 l 1,19,20
EndSplineSet
Validated: 5
EndChar

StartChar: egrave
Encoding: 232 232 113
Width: 568
Flags: W
LayerCount: 2
Fore
SplineSet
421 650 m 1,0,-1
 401 548 l 1,1,-1
 350 558 l 1,2,-1
 53 617 l 1,3,-1
 74 720 l 1,4,-1
 125 709 l 1,5,-1
 421 650 l 1,0,-1
484 0 m 1,6,-1
 237 0 l 2,7,8
 -11 0 -11 0 -11 265 c 0,9,10
 -11 531 -11 531 237 531 c 0,11,12
 484 531 484 531 484 265 c 2,13,-1
 484 213 l 1,14,-1
 96 213 l 1,15,16
 112 104 112 104 237 104 c 2,17,-1
 484 104 l 1,18,-1
 484 0 l 1,6,-1
377 317 m 1,19,20
 361 427 361 427 237 427 c 1,21,-1
 237 427 l 1,22,23
 112 427 112 427 96 317 c 1,24,-1
 377 317 l 1,19,20
EndSplineSet
Validated: 5
EndChar

StartChar: ecircumflex
Encoding: 234 234 114
Width: 573
Flags: W
LayerCount: 2
Fore
SplineSet
450 631 m 1,0,-1
 403 538 l 1,1,-1
 237 622 l 1,2,-1
 71 538 l 1,3,-1
 24 631 l 1,4,-1
 237 739 l 1,5,-1
 450 631 l 1,0,-1
485 0 m 1,6,-1
 237 0 l 2,7,8
 -10 0 -10 0 -10 265 c 0,9,10
 -10 531 -10 531 237 531 c 0,11,12
 485 531 485 531 485 265 c 2,13,-1
 485 213 l 1,14,-1
 97 213 l 1,15,16
 113 104 113 104 237 104 c 2,17,-1
 485 104 l 1,18,-1
 485 0 l 1,6,-1
377 317 m 1,19,20
 362 427 362 427 237 427 c 1,21,-1
 237 427 l 1,22,23
 113 427 113 427 97 317 c 1,24,-1
 377 317 l 1,19,20
EndSplineSet
Validated: 5
EndChar

StartChar: edieresis
Encoding: 235 235 115
Width: 564
Flags: W
LayerCount: 2
Fore
SplineSet
383 635 m 1,0,-1
 279 635 l 1,1,-1
 279 739 l 1,2,-1
 383 739 l 1,3,-1
 383 635 l 1,0,-1
175 635 m 1,4,-1
 71 635 l 1,5,-1
 71 739 l 1,6,-1
 175 739 l 1,7,-1
 175 635 l 1,4,-1
481 0 m 1,8,-1
 234 0 l 2,9,10
 -14 0 -14 0 -14 265 c 0,11,12
 -14 531 -14 531 234 531 c 0,13,14
 481 531 481 531 481 265 c 2,15,-1
 481 213 l 1,16,-1
 94 213 l 1,17,18
 109 104 109 104 234 104 c 2,19,-1
 481 104 l 1,20,-1
 481 0 l 1,8,-1
374 317 m 1,21,22
 358 427 358 427 234 427 c 1,23,-1
 234 427 l 1,24,25
 109 427 109 427 94 317 c 1,26,-1
 374 317 l 1,21,22
EndSplineSet
Validated: 5
EndChar

StartChar: iacute
Encoding: 237 237 116
Width: 358
Flags: W
LayerCount: 2
Fore
SplineSet
295 637 m 1,0,-1
 244 627 l 1,1,-1
 -52 568 l 1,2,-1
 -72 670 l 1,3,-1
 -21 681 l 1,4,-1
 275 740 l 1,5,-1
 295 637 l 1,0,-1
265 0 m 1,6,7
 0 0 0 0 0 192 c 2,8,-1
 0 531 l 1,9,-1
 104 531 l 1,10,-1
 104 192 l 2,11,12
 104 150 104 150 131 131 c 0,13,14
 168 104 168 104 265 104 c 1,15,-1
 265 0 l 1,6,7
EndSplineSet
Validated: 1
EndChar

StartChar: igrave
Encoding: 236 236 117
Width: 361
Flags: W
LayerCount: 2
Fore
SplineSet
276 670 m 1,0,-1
 256 568 l 1,1,-1
 205 578 l 1,2,-1
 -92 637 l 1,3,-1
 -71 740 l 1,4,-1
 -20 729 l 1,5,-1
 276 670 l 1,0,-1
266 0 m 1,6,7
 0 0 0 0 0 192 c 2,8,-1
 0 531 l 1,9,-1
 104 531 l 1,10,-1
 104 192 l 2,11,12
 104 151 104 151 132 131 c 0,13,14
 169 104 169 104 266 104 c 1,15,-1
 266 0 l 1,6,7
EndSplineSet
Validated: 1
EndChar

StartChar: icircumflex
Encoding: 238 238 118
Width: 368
Flags: W
LayerCount: 2
Fore
SplineSet
264 631 m 1,0,-1
 217 538 l 1,1,-1
 51 622 l 1,2,-1
 -115 538 l 1,3,-1
 -162 631 l 1,4,-1
 51 739 l 1,5,-1
 264 631 l 1,0,-1
266 0 m 1,6,7
 0 0 0 0 0 192 c 2,8,-1
 0 531 l 1,9,-1
 104 531 l 1,10,-1
 104 192 l 2,11,12
 104 151 104 151 132 131 c 0,13,14
 169 104 169 104 266 104 c 1,15,-1
 266 0 l 1,6,7
EndSplineSet
Validated: 1
EndChar

StartChar: idieresis
Encoding: 239 239 119
Width: 335
Flags: W
LayerCount: 2
Fore
SplineSet
98 635 m 1,0,-1
 -6 635 l 1,1,-1
 -6 739 l 1,2,-1
 98 739 l 1,3,-1
 98 635 l 1,0,-1
260 0 m 1,4,5
 -6 0 -6 0 -6 192 c 2,6,-1
 -6 531 l 1,7,-1
 98 531 l 1,8,-1
 98 192 l 2,9,10
 98 151 98 151 126 131 c 0,11,12
 163 104 163 104 260 104 c 1,13,-1
 260 0 l 1,4,5
EndSplineSet
Validated: 1
EndChar

StartChar: ntilde
Encoding: 241 241 120
Width: 591
Flags: W
LayerCount: 2
Fore
SplineSet
515 672 m 1,0,-1
 481 632 l 2,1,2
 423 564 423 564 351 564 c 0,3,4
 302 564 302 564 226 604 c 0,5,6
 170 633 170 633 149 633 c 0,7,8
 124 633 124 633 97 601 c 1,9,-1
 97 601 l 1,10,-1
 64 561 l 1,11,-1
 -16 629 l 1,12,-1
 18 668 l 2,13,14
 77 736 77 736 149 736 c 0,15,16
 198 736 198 736 274 696 c 0,17,18
 329 667 329 667 350 667 c 0,19,20
 375 667 375 667 402 699 c 2,21,-1
 436 739 l 1,22,-1
 515 672 l 1,0,-1
499 0 m 1,23,-1
 394 0 l 1,24,-1
 394 265 l 2,25,26
 394 346 394 346 367 382 c 0,27,28
 334 427 334 427 251 427 c 256,29,30
 168 427 168 427 135 382 c 0,31,32
 108 346 108 346 108 265 c 2,33,-1
 108 0 l 1,34,-1
 4 0 l 1,35,-1
 4 265 l 2,36,37
 4 531 4 531 251 531 c 0,38,39
 499 531 499 531 499 265 c 2,40,-1
 499 0 l 1,23,-1
EndSplineSet
Validated: 5
EndChar

StartChar: oacute
Encoding: 243 243 121
Width: 574
Flags: W
LayerCount: 2
Fore
SplineSet
415 617 m 1,0,-1
 364 607 l 1,1,-1
 68 548 l 1,2,-1
 47 650 l 1,3,-1
 98 661 l 1,4,-1
 395 720 l 1,5,-1
 415 617 l 1,0,-1
483 265 m 0,6,7
 483 0 483 0 235 0 c 0,8,9
 -12 0 -12 0 -12 265 c 0,10,11
 -12 531 -12 531 235 531 c 1,12,-1
 235 531 l 1,13,14
 483 531 483 531 483 265 c 0,6,7
379 265 m 0,15,16
 379 346 379 346 352 382 c 0,17,18
 318 427 318 427 235 427 c 256,19,20
 152 427 152 427 119 382 c 0,21,22
 92 346 92 346 92 265 c 256,23,24
 92 184 92 184 119 148 c 0,25,26
 152 104 152 104 235 104 c 1,27,-1
 235 104 l 1,28,29
 318 104 318 104 352 148 c 1,30,31
 379 185 379 185 379 265 c 0,15,16
EndSplineSet
Validated: 5
EndChar

StartChar: ograve
Encoding: 242 242 122
Width: 573
Flags: W
LayerCount: 2
Fore
SplineSet
425 650 m 1,0,-1
 404 548 l 1,1,-1
 353 558 l 1,2,-1
 57 617 l 1,3,-1
 77 720 l 1,4,-1
 128 709 l 1,5,-1
 425 650 l 1,0,-1
483 265 m 0,6,7
 483 0 483 0 235 0 c 0,8,9
 -12 0 -12 0 -12 265 c 0,10,11
 -12 531 -12 531 235 531 c 1,12,-1
 235 531 l 1,13,14
 483 531 483 531 483 265 c 0,6,7
378 265 m 256,15,16
 378 346 378 346 351 382 c 0,17,18
 318 427 318 427 235 427 c 256,19,20
 152 427 152 427 119 382 c 0,21,22
 92 346 92 346 92 265 c 256,23,24
 92 184 92 184 119 148 c 0,25,26
 152 104 152 104 235 104 c 1,27,-1
 235 104 l 1,28,29
 318 104 318 104 351 148 c 0,30,31
 378 184 378 184 378 265 c 256,15,16
EndSplineSet
Validated: 5
EndChar

StartChar: ocircumflex
Encoding: 244 244 123
Width: 575
Flags: W
LayerCount: 2
Fore
SplineSet
444 631 m 1,0,-1
 397 538 l 1,1,-1
 231 622 l 1,2,-1
 65 538 l 1,3,-1
 18 631 l 1,4,-1
 231 739 l 1,5,-1
 444 631 l 1,0,-1
483 265 m 0,6,7
 483 0 483 0 236 0 c 0,8,9
 -12 0 -12 0 -12 265 c 0,10,11
 -12 531 -12 531 236 531 c 1,12,-1
 236 531 l 1,13,14
 483 531 483 531 483 265 c 0,6,7
379 265 m 256,15,16
 379 346 379 346 352 382 c 0,17,18
 319 427 319 427 236 427 c 256,19,20
 153 427 153 427 119 382 c 0,21,22
 92 346 92 346 92 265 c 0,23,24
 92 185 92 185 119 148 c 1,25,26
 153 104 153 104 236 104 c 1,27,-1
 236 104 l 1,28,29
 319 104 319 104 352 148 c 0,30,31
 379 184 379 184 379 265 c 256,15,16
EndSplineSet
Validated: 5
EndChar

StartChar: odieresis
Encoding: 246 246 124
Width: 573
Flags: W
LayerCount: 2
Fore
SplineSet
389 635 m 1,0,-1
 285 635 l 1,1,-1
 285 739 l 1,2,-1
 389 739 l 1,3,-1
 389 635 l 1,0,-1
181 635 m 1,4,-1
 77 635 l 1,5,-1
 77 739 l 1,6,-1
 181 739 l 1,7,-1
 181 635 l 1,4,-1
482 265 m 0,8,9
 482 0 482 0 235 0 c 0,10,11
 -13 0 -13 0 -13 265 c 0,12,13
 -13 531 -13 531 235 531 c 1,14,-1
 235 531 l 1,15,16
 482 531 482 531 482 265 c 0,8,9
378 265 m 256,17,18
 378 346 378 346 351 382 c 0,19,20
 318 427 318 427 235 427 c 256,21,22
 152 427 152 427 118 382 c 0,23,24
 91 346 91 346 91 265 c 0,25,26
 91 185 91 185 118 148 c 1,27,28
 152 104 152 104 235 104 c 1,29,-1
 235 104 l 1,30,31
 318 104 318 104 351 148 c 0,32,33
 378 184 378 184 378 265 c 256,17,18
EndSplineSet
Validated: 5
EndChar

StartChar: otilde
Encoding: 245 245 125
Width: 579
Flags: W
LayerCount: 2
Fore
SplineSet
495 672 m 1,0,-1
 461 632 l 2,1,2
 403 564 403 564 331 564 c 0,3,4
 282 564 282 564 206 604 c 0,5,6
 150 633 150 633 130 633 c 0,7,8
 104 633 104 633 77 601 c 1,9,-1
 77 601 l 1,10,-1
 43 561 l 1,11,-1
 -36 629 l 1,12,-1
 -2 668 l 2,13,14
 57 736 57 736 129 736 c 0,15,16
 178 736 178 736 254 696 c 0,17,18
 309 667 309 667 330 667 c 0,19,20
 355 667 355 667 382 699 c 2,21,-1
 416 739 l 1,22,-1
 495 672 l 1,0,-1
480 265 m 0,23,24
 480 0 480 0 232 0 c 0,25,26
 -15 0 -15 0 -15 265 c 0,27,28
 -15 531 -15 531 232 531 c 1,29,-1
 232 531 l 1,30,31
 480 531 480 531 480 265 c 0,23,24
376 265 m 0,32,33
 376 346 376 346 349 382 c 0,34,35
 315 427 315 427 232 427 c 256,36,37
 149 427 149 427 116 382 c 0,38,39
 89 346 89 346 89 265 c 256,40,41
 89 184 89 184 116 148 c 0,42,43
 149 104 149 104 232 104 c 1,44,-1
 232 104 l 1,45,46
 315 104 315 104 349 148 c 1,47,48
 376 185 376 185 376 265 c 0,32,33
EndSplineSet
Validated: 5
EndChar

StartChar: uacute
Encoding: 250 250 126
Width: 574
Flags: W
LayerCount: 2
Fore
SplineSet
420 637 m 1,0,-1
 369 627 l 1,1,-1
 73 568 l 1,2,-1
 52 670 l 1,3,-1
 104 681 l 1,4,-1
 400 740 l 1,5,-1
 420 637 l 1,0,-1
490 265 m 2,6,7
 490 0 490 0 243 0 c 0,8,9
 -5 0 -5 0 -5 265 c 2,10,-1
 -5 531 l 1,11,-1
 99 531 l 1,12,-1
 99 265 l 2,13,14
 99 185 99 185 126 148 c 1,15,16
 160 104 160 104 243 104 c 256,17,18
 326 104 326 104 359 148 c 0,19,20
 386 184 386 184 386 265 c 2,21,-1
 386 531 l 1,22,-1
 490 531 l 1,23,-1
 490 265 l 2,6,7
EndSplineSet
Validated: 1
EndChar

StartChar: ugrave
Encoding: 249 249 127
Width: 577
Flags: W
LayerCount: 2
Fore
SplineSet
431 670 m 1,0,-1
 411 568 l 1,1,-1
 360 578 l 1,2,-1
 63 637 l 1,3,-1
 84 740 l 1,4,-1
 135 729 l 1,5,-1
 431 670 l 1,0,-1
491 265 m 2,6,7
 491 0 491 0 244 0 c 0,8,9
 -4 0 -4 0 -4 265 c 2,10,-1
 -4 531 l 1,11,-1
 100 531 l 1,12,-1
 100 265 l 2,13,14
 100 185 100 185 127 148 c 1,15,16
 161 104 161 104 244 104 c 256,17,18
 327 104 327 104 360 148 c 0,19,20
 387 184 387 184 387 265 c 2,21,-1
 387 531 l 1,22,-1
 491 531 l 1,23,-1
 491 265 l 2,6,7
EndSplineSet
Validated: 1
EndChar

StartChar: ucircumflex
Encoding: 251 251 128
Width: 575
Flags: W
LayerCount: 2
Fore
SplineSet
460 651 m 1,0,-1
 413 558 l 1,1,-1
 247 642 l 1,2,-1
 81 558 l 1,3,-1
 34 651 l 1,4,-1
 247 759 l 1,5,-1
 460 651 l 1,0,-1
492 265 m 2,6,7
 492 0 492 0 244 0 c 0,8,9
 -3 0 -3 0 -3 265 c 2,10,-1
 -3 531 l 1,11,-1
 101 531 l 1,12,-1
 101 265 l 2,13,14
 101 184 101 184 128 148 c 0,15,16
 161 104 161 104 244 104 c 256,17,18
 327 104 327 104 361 148 c 1,19,20
 388 185 388 185 388 265 c 2,21,-1
 388 531 l 1,22,-1
 492 531 l 1,23,-1
 492 265 l 2,6,7
EndSplineSet
Validated: 1
EndChar

StartChar: udieresis
Encoding: 252 252 129
Width: 574
Flags: W
LayerCount: 2
Fore
SplineSet
405 635 m 1,0,-1
 301 635 l 1,1,-1
 301 739 l 1,2,-1
 405 739 l 1,3,-1
 405 635 l 1,0,-1
197 635 m 1,4,-1
 93 635 l 1,5,-1
 93 739 l 1,6,-1
 197 739 l 1,7,-1
 197 635 l 1,4,-1
500 265 m 2,8,9
 500 0 500 0 253 0 c 0,10,11
 5 0 5 0 5 265 c 2,12,-1
 5 531 l 1,13,-1
 109 531 l 1,14,-1
 109 265 l 2,15,16
 109 185 109 185 136 148 c 1,17,18
 170 104 170 104 253 104 c 256,19,20
 336 104 336 104 369 148 c 0,21,22
 396 184 396 184 396 265 c 2,23,-1
 396 531 l 1,24,-1
 500 531 l 1,25,-1
 500 265 l 2,8,9
EndSplineSet
Validated: 1
EndChar

StartChar: dagger
Encoding: 8224 8224 130
Width: 1066
Flags: W
LayerCount: 2
Fore
SplineSet
1066 610 m 0,0,1
 1057 650 1057 650 961 651 c 0,2,3
 886 652 886 652 773 627 c 0,4,5
 731 618 731 618 685 606 c 1,6,7
 646 631 646 631 600 643 c 1,8,9
 600 682 600 682 589 733 c 0,10,11
 577 788 577 788 565 800 c 1,12,13
 553 788 553 788 541 733 c 0,14,15
 530 682 530 682 530 643 c 1,16,17
 403 610 403 610 329 477 c 1,18,19
 191 413 191 413 102 350 c 0,20,21
 47 310 47 310 21 277 c 0,22,23
 0 250 0 250 0 230 c 0,24,25
 0 189 0 189 85 183 c 0,26,27
 155 179 155 179 268 201 c 1,28,29
 281 128 281 128 326 53 c 1,30,31
 261 -6 261 -6 261 -70 c 0,32,33
 261 -141 261 -141 321 -200 c 1,34,35
 384 -185 384 -185 450 -91 c 1,36,37
 503 -134 503 -134 565 -162 c 1,38,39
 627 -134 627 -134 680 -91 c 1,40,41
 746 -185 746 -185 809 -200 c 1,42,43
 869 -141 869 -141 869 -70 c 0,44,45
 869 -6 869 -6 804 53 c 1,46,47
 868 161 868 161 866 248 c 0,48,49
 864 320 864 320 834 404 c 1,50,51
 906 443 906 443 959 480 c 0,52,53
 1076 562 1076 562 1066 610 c 0,0,1
774 519 m 1,54,55
 756 545 756 545 735 566 c 1,56,57
 786 566 786 566 786 544 c 0,58,59
 786 534 786 534 774 519 c 1,54,55
277 338 m 1,60,61
 255 343 255 343 255 357 c 0,62,63
 255 374 255 374 286 399 c 0,64,65
 291 404 291 404 298 409 c 1,66,67
 285 375 285 375 277 338 c 1,60,61
533 617 m 1,68,69
 504 610 504 610 462.5 576 c 128,-1,70
 421 542 421 542 404 517 c 1,71,72
 435 504 435 504 465 504 c 1,73,74
 468 516 468 516 490 554 c 128,-1,75
 512 592 512 592 533 617 c 1,68,69
565 752 m 1,76,77
 547 719 547 719 547 638 c 1,78,-1
 565 632 l 1,79,-1
 565 752 l 1,76,77
418 352 m 1,80,81
 545 384 545 384 663 444 c 0,82,83
 690 458 690 458 713 472 c 1,84,85
 642 459 642 459 566 459 c 0,86,87
 464 459 464 459 384 480 c 1,88,89
 350 419 350 419 335 337 c 1,90,91
 372 341 372 341 418 352 c 1,92,93
 418 352 418 352 418 352 c 129,-1,94
 418 352 418 352 418 352 c 1,80,81
338 34 m 1,95,96
 317 0 317 0 317 -73 c 0,97,98
 317 -132 317 -132 337 -150 c 1,99,100
 366 -143 366 -143 394 -121.5 c 128,-1,101
 422 -100 422 -100 434 -77 c 1,102,103
 379 -28 379 -28 338 34 c 1,104,105
 338 34 338 34 338 34 c 129,-1,106
 338 34 338 34 338 34 c 1,95,96
696 -77 m 1,107,108
 708 -100 708 -100 736 -121.5 c 128,-1,109
 764 -143 764 -143 793 -150 c 1,110,111
 813 -132 813 -132 813 -73 c 0,112,113
 813 0 813 0 792 34 c 1,114,115
 751 -28 751 -28 696 -77 c 1,107,108
804 248 m 1,116,117
 802 316 802 316 786 380 c 1,118,119
 614 295 614 295 424 239 c 0,120,121
 374 225 374 225 327 214 c 1,122,123
 336 124 336 124 388 41 c 0,124,125
 451 -60 451 -60 565 -121 c 1,126,127
 691 -54 691 -54 755 62 c 0,128,129
 806 156 806 156 804 248 c 1,130,131
 807 248 807 248 804 248 c 1,116,117
927 615 m 1,132,133
 897 623 897 623 844 620 c 1,134,135
 783 615 783 615 700 596 c 1,136,137
 708 589 708 589 717 582 c 1,138,139
 754 589 754 589 782 590 c 0,140,141
 812 591 812 591 832 586 c 0,142,143
 866 578 866 578 859 554 c 0,144,145
 845 508 845 508 710 438 c 0,146,147
 555 357 555 357 385 317 c 1,148,149
 313 299 313 299 262 298 c 1,150,151
 229 296 229 296 209 302 c 0,152,153
 176 312 176 312 190 340 c 0,154,155
 210 379 210 379 309 435 c 1,156,157
 314 447 314 447 319 458 c 1,158,159
 225 411 225 411 166 367 c 0,160,161
 95 314 95 314 95 281 c 0,162,163
 95 244 95 244 178 243 c 0,164,165
 242 243 242 243 338 265 c 0,166,167
 571 316 571 316 780 429 c 0,168,169
 867 476 867 476 915 518 c 0,170,171
 958 556 958 556 960 582 c 0,172,173
 961 605 961 605 927 615 c 1,174,175
 927 615 927 615 927 615 c 129,-1,176
 927 615 927 615 927 615 c 1,132,133
448 226 m 1,177,178
 426 216 426 216 426 191 c 0,179,180
 426 176 426 176 437 164.5 c 128,-1,181
 448 153 448 153 464 153 c 0,182,183
 494 153 494 153 501 182 c 1,184,-1
 448 226 l 1,177,178
695 226 m 1,185,186
 718 216 718 216 718 191 c 0,187,188
 718 176 718 176 707 164.5 c 128,-1,189
 696 153 696 153 680 153 c 0,190,191
 650 153 650 153 643 182 c 1,192,-1
 695 226 l 1,185,186
571 -3 m 256,193,194
 617 -3 617 -3 645 30 c 0,195,196
 649 35 649 35 684 97 c 1,197,198
 640 43 640 43 571 43 c 256,199,200
 502 43 502 43 458 97 c 1,201,202
 493 35 493 35 497 30 c 0,203,204
 525 -3 525 -3 571 -3 c 256,193,194
EndSplineSet
Validated: 37
EndChar

StartChar: degree
Encoding: 176 176 131
Width: 299
Flags: W
LayerCount: 2
Fore
SplineSet
223 629 m 256,0,1
 223 583 223 583 191 551 c 128,-1,2
 159 519 159 519 113 519 c 1,3,-1
 113 519 l 1,4,5
 67 519 67 519 35 551 c 128,-1,6
 3 583 3 583 3 629 c 256,7,8
 3 675 3 675 35 707 c 128,-1,9
 67 739 67 739 113 739 c 256,10,11
 159 739 159 739 191 707 c 128,-1,12
 223 675 223 675 223 629 c 256,0,1
171 629 m 256,13,14
 171 653 171 653 154 670 c 128,-1,15
 137 687 137 687 113 687 c 1,16,-1
 113 687 l 1,17,18
 89 687 89 687 72 670 c 128,-1,19
 55 653 55 653 55 629 c 256,20,21
 55 605 55 605 72 588 c 128,-1,22
 89 571 89 571 113 571 c 256,23,24
 137 571 137 571 154 588 c 128,-1,25
 171 605 171 605 171 629 c 256,13,14
EndSplineSet
Validated: 5
EndChar

StartChar: cent
Encoding: 162 162 132
Width: 548
Flags: W
LayerCount: 2
Fore
SplineSet
488 162 m 1,0,1
 450 24 450 24 302 3 c 1,2,-1
 302 -105 l 1,3,-1
 198 -105 l 1,4,-1
 198 4 l 1,5,6
 5 34 5 34 5 266 c 0,7,8
 5 497 5 497 198 527 c 1,9,-1
 198 637 l 1,10,-1
 302 637 l 1,11,-1
 302 528 l 1,12,13
 450 507 450 507 488 369 c 1,14,-1
 377 369 l 1,15,16
 357 410 357 410 302 423 c 1,17,-1
 302 109 l 1,18,19
 356 120 356 120 377 162 c 1,20,-1
 488 162 l 1,0,1
198 110 m 1,21,-1
 198 421 l 1,22,23
 147 408 147 408 127 367 c 0,24,25
 109 332 109 332 109 266 c 256,26,27
 109 200 109 200 127 165 c 1,28,29
 147 123 147 123 198 110 c 1,21,-1
EndSplineSet
Validated: 1
EndChar

StartChar: section
Encoding: 167 167 134
Width: 520
Flags: W
LayerCount: 2
Fore
SplineSet
451 -107 m 0,0,1
 451 -190 451 -190 412 -242 c 0,2,3
 355 -318 355 -318 225 -318 c 0,4,5
 96 -318 96 -318 39 -242 c 0,6,7
 0 -189 0 -189 0 -107 c 1,8,-1
 104 -107 l 1,9,10
 104 -170 104 -170 136 -194 c 0,11,12
 163 -214 163 -214 225 -214 c 0,13,14
 288 -214 288 -214 315 -194 c 0,15,16
 347 -170 347 -170 347 -107 c 0,17,18
 347 -65 347 -65 315 -42 c 0,19,20
 290 -24 290 -24 212 -1 c 0,21,22
 114 29 114 29 72 60 c 0,23,24
 0 113 0 113 0 211 c 1,25,-1
 0 211 l 1,26,27
 0 323 0 323 71 378 c 1,28,29
 0 432 0 432 0 528 c 0,30,31
 0 610 0 610 39 663 c 0,32,33
 96 739 96 739 225 739 c 0,34,35
 355 739 355 739 412 663 c 0,36,37
 451 610 451 610 451 528 c 1,38,-1
 347 528 l 1,39,40
 347 591 347 591 315 615 c 0,41,42
 288 635 288 635 225 635 c 0,43,44
 163 635 163 635 136 615 c 0,45,46
 104 591 104 591 104 528 c 0,47,48
 104 483 104 483 136 460 c 0,49,50
 162 441 162 441 242 417 c 0,51,52
 338 388 338 388 379 357 c 1,53,54
 451 305 451 305 451 210 c 0,55,56
 451 96 451 96 377 41 c 1,57,58
 451 -12 451 -12 451 -107 c 0,0,1
347 210 m 0,59,60
 347 156 347 156 315 127 c 0,61,62
 288 102 288 102 248 102 c 0,63,64
 200 102 200 102 154 132 c 0,65,66
 104 165 104 165 104 211 c 1,67,-1
 104 211 l 1,68,69
 104 265 104 265 135 294 c 0,70,71
 162 319 162 319 203 319 c 0,72,73
 251 319 251 319 296 289 c 0,74,75
 347 256 347 256 347 210 c 0,59,60
EndSplineSet
Validated: 5
EndChar

StartChar: bullet
Encoding: 8226 8226 135
Width: 1066
Flags: W
LayerCount: 2
Fore
SplineSet
1066 610 m 0,0,1
 1057 650 1057 650 961 651 c 0,2,3
 886 652 886 652 773 627 c 0,4,5
 731 618 731 618 685 606 c 1,6,7
 646 631 646 631 600 643 c 1,8,9
 600 682 600 682 589 733 c 0,10,11
 577 788 577 788 565 800 c 1,12,13
 553 788 553 788 541 733 c 0,14,15
 530 682 530 682 530 643 c 1,16,17
 403 610 403 610 329 477 c 1,18,19
 191 413 191 413 102 350 c 0,20,21
 47 310 47 310 21 277 c 0,22,23
 0 250 0 250 0 230 c 0,24,25
 0 189 0 189 85 183 c 0,26,27
 155 179 155 179 268 201 c 1,28,29
 281 128 281 128 326 53 c 1,30,31
 261 -6 261 -6 261 -70 c 0,32,33
 261 -141 261 -141 321 -200 c 1,34,35
 384 -185 384 -185 450 -91 c 1,36,37
 503 -134 503 -134 565 -162 c 1,38,39
 627 -134 627 -134 680 -91 c 1,40,41
 746 -185 746 -185 809 -200 c 1,42,43
 869 -141 869 -141 869 -70 c 0,44,45
 869 -6 869 -6 804 53 c 1,46,47
 868 161 868 161 866 248 c 0,48,49
 864 320 864 320 834 404 c 1,50,51
 906 443 906 443 959 480 c 0,52,53
 1076 562 1076 562 1066 610 c 0,0,1
774 519 m 1,54,55
 756 545 756 545 735 566 c 1,56,57
 786 566 786 566 786 544 c 0,58,59
 786 534 786 534 774 519 c 1,54,55
277 338 m 1,60,61
 255 343 255 343 255 357 c 0,62,63
 255 374 255 374 286 399 c 0,64,65
 291 404 291 404 298 409 c 1,66,67
 285 375 285 375 277 338 c 1,60,61
533 617 m 1,68,69
 504 610 504 610 462.5 576 c 128,-1,70
 421 542 421 542 404 517 c 1,71,72
 435 504 435 504 465 504 c 1,73,74
 468 516 468 516 490 554 c 128,-1,75
 512 592 512 592 533 617 c 1,68,69
565 752 m 1,76,77
 547 719 547 719 547 638 c 1,78,-1
 565 632 l 1,79,-1
 565 752 l 1,76,77
418 352 m 1,80,81
 545 384 545 384 663 444 c 0,82,83
 690 458 690 458 713 472 c 1,84,85
 642 459 642 459 566 459 c 0,86,87
 464 459 464 459 384 480 c 1,88,89
 350 419 350 419 335 337 c 1,90,91
 372 341 372 341 418 352 c 1,92,93
 418 352 418 352 418 352 c 129,-1,94
 418 352 418 352 418 352 c 1,80,81
338 34 m 1,95,96
 317 0 317 0 317 -73 c 0,97,98
 317 -132 317 -132 337 -150 c 1,99,100
 366 -143 366 -143 394 -121.5 c 128,-1,101
 422 -100 422 -100 434 -77 c 1,102,103
 379 -28 379 -28 338 34 c 1,104,105
 338 34 338 34 338 34 c 129,-1,106
 338 34 338 34 338 34 c 1,95,96
696 -77 m 1,107,108
 708 -100 708 -100 736 -121.5 c 128,-1,109
 764 -143 764 -143 793 -150 c 1,110,111
 813 -132 813 -132 813 -73 c 0,112,113
 813 0 813 0 792 34 c 1,114,115
 751 -28 751 -28 696 -77 c 1,107,108
804 248 m 1,116,117
 802 316 802 316 786 380 c 1,118,119
 614 295 614 295 424 239 c 0,120,121
 374 225 374 225 327 214 c 1,122,123
 336 124 336 124 388 41 c 0,124,125
 451 -60 451 -60 565 -121 c 1,126,127
 691 -54 691 -54 755 62 c 0,128,129
 806 156 806 156 804 248 c 1,130,131
 807 248 807 248 804 248 c 1,116,117
927 615 m 1,132,133
 897 623 897 623 844 620 c 1,134,135
 783 615 783 615 700 596 c 1,136,137
 708 589 708 589 717 582 c 1,138,139
 754 589 754 589 782 590 c 0,140,141
 812 591 812 591 832 586 c 0,142,143
 866 578 866 578 859 554 c 0,144,145
 845 508 845 508 710 438 c 0,146,147
 555 357 555 357 385 317 c 1,148,149
 313 299 313 299 262 298 c 1,150,151
 229 296 229 296 209 302 c 0,152,153
 176 312 176 312 190 340 c 0,154,155
 210 379 210 379 309 435 c 1,156,157
 314 447 314 447 319 458 c 1,158,159
 225 411 225 411 166 367 c 0,160,161
 95 314 95 314 95 281 c 0,162,163
 95 244 95 244 178 243 c 0,164,165
 242 243 242 243 338 265 c 0,166,167
 571 316 571 316 780 429 c 0,168,169
 867 476 867 476 915 518 c 0,170,171
 958 556 958 556 960 582 c 0,172,173
 961 605 961 605 927 615 c 1,174,175
 927 615 927 615 927 615 c 129,-1,176
 927 615 927 615 927 615 c 1,132,133
448 226 m 1,177,178
 426 216 426 216 426 191 c 0,179,180
 426 176 426 176 437 164.5 c 128,-1,181
 448 153 448 153 464 153 c 0,182,183
 494 153 494 153 501 182 c 1,184,-1
 448 226 l 1,177,178
695 226 m 1,185,186
 718 216 718 216 718 191 c 0,187,188
 718 176 718 176 707 164.5 c 128,-1,189
 696 153 696 153 680 153 c 0,190,191
 650 153 650 153 643 182 c 1,192,-1
 695 226 l 1,185,186
571 -3 m 256,193,194
 617 -3 617 -3 645 30 c 0,195,196
 649 35 649 35 684 97 c 1,197,198
 640 43 640 43 571 43 c 256,199,200
 502 43 502 43 458 97 c 1,201,202
 493 35 493 35 497 30 c 0,203,204
 525 -3 525 -3 571 -3 c 256,193,194
EndSplineSet
Validated: 37
EndChar

StartChar: paragraph
Encoding: 182 182 136
Width: 1066
Flags: W
LayerCount: 2
Fore
SplineSet
1066 610 m 0,0,1
 1057 650 1057 650 961 651 c 0,2,3
 886 652 886 652 773 627 c 0,4,5
 731 618 731 618 685 606 c 1,6,7
 646 631 646 631 600 643 c 1,8,9
 600 682 600 682 589 733 c 0,10,11
 577 788 577 788 565 800 c 1,12,13
 553 788 553 788 541 733 c 0,14,15
 530 682 530 682 530 643 c 1,16,17
 403 610 403 610 329 477 c 1,18,19
 191 413 191 413 102 350 c 0,20,21
 47 310 47 310 21 277 c 0,22,23
 0 250 0 250 0 230 c 0,24,25
 0 189 0 189 85 183 c 0,26,27
 155 179 155 179 268 201 c 1,28,29
 281 128 281 128 326 53 c 1,30,31
 261 -6 261 -6 261 -70 c 0,32,33
 261 -141 261 -141 321 -200 c 1,34,35
 384 -185 384 -185 450 -91 c 1,36,37
 503 -134 503 -134 565 -162 c 1,38,39
 627 -134 627 -134 680 -91 c 1,40,41
 746 -185 746 -185 809 -200 c 1,42,43
 869 -141 869 -141 869 -70 c 0,44,45
 869 -6 869 -6 804 53 c 1,46,47
 868 161 868 161 866 248 c 0,48,49
 864 320 864 320 834 404 c 1,50,51
 906 443 906 443 959 480 c 0,52,53
 1076 562 1076 562 1066 610 c 0,0,1
774 519 m 1,54,55
 756 545 756 545 735 566 c 1,56,57
 786 566 786 566 786 544 c 0,58,59
 786 534 786 534 774 519 c 1,54,55
277 338 m 1,60,61
 255 343 255 343 255 357 c 0,62,63
 255 374 255 374 286 399 c 0,64,65
 291 404 291 404 298 409 c 1,66,67
 285 375 285 375 277 338 c 1,60,61
533 617 m 1,68,69
 504 610 504 610 462.5 576 c 128,-1,70
 421 542 421 542 404 517 c 1,71,72
 435 504 435 504 465 504 c 1,73,74
 468 516 468 516 490 554 c 128,-1,75
 512 592 512 592 533 617 c 1,68,69
565 752 m 1,76,77
 547 719 547 719 547 638 c 1,78,-1
 565 632 l 1,79,-1
 565 752 l 1,76,77
418 352 m 1,80,81
 545 384 545 384 663 444 c 0,82,83
 690 458 690 458 713 472 c 1,84,85
 642 459 642 459 566 459 c 0,86,87
 464 459 464 459 384 480 c 1,88,89
 350 419 350 419 335 337 c 1,90,91
 372 341 372 341 418 352 c 1,92,93
 418 352 418 352 418 352 c 129,-1,94
 418 352 418 352 418 352 c 1,80,81
338 34 m 1,95,96
 317 0 317 0 317 -73 c 0,97,98
 317 -132 317 -132 337 -150 c 1,99,100
 366 -143 366 -143 394 -121.5 c 128,-1,101
 422 -100 422 -100 434 -77 c 1,102,103
 379 -28 379 -28 338 34 c 1,104,105
 338 34 338 34 338 34 c 129,-1,106
 338 34 338 34 338 34 c 1,95,96
696 -77 m 1,107,108
 708 -100 708 -100 736 -121.5 c 128,-1,109
 764 -143 764 -143 793 -150 c 1,110,111
 813 -132 813 -132 813 -73 c 0,112,113
 813 0 813 0 792 34 c 1,114,115
 751 -28 751 -28 696 -77 c 1,107,108
804 248 m 1,116,117
 802 316 802 316 786 380 c 1,118,119
 614 295 614 295 424 239 c 0,120,121
 374 225 374 225 327 214 c 1,122,123
 336 124 336 124 388 41 c 0,124,125
 451 -60 451 -60 565 -121 c 1,126,127
 691 -54 691 -54 755 62 c 0,128,129
 806 156 806 156 804 248 c 1,130,131
 807 248 807 248 804 248 c 1,116,117
927 615 m 1,132,133
 897 623 897 623 844 620 c 1,134,135
 783 615 783 615 700 596 c 1,136,137
 708 589 708 589 717 582 c 1,138,139
 754 589 754 589 782 590 c 0,140,141
 812 591 812 591 832 586 c 0,142,143
 866 578 866 578 859 554 c 0,144,145
 845 508 845 508 710 438 c 0,146,147
 555 357 555 357 385 317 c 1,148,149
 313 299 313 299 262 298 c 1,150,151
 229 296 229 296 209 302 c 0,152,153
 176 312 176 312 190 340 c 0,154,155
 210 379 210 379 309 435 c 1,156,157
 314 447 314 447 319 458 c 1,158,159
 225 411 225 411 166 367 c 0,160,161
 95 314 95 314 95 281 c 0,162,163
 95 244 95 244 178 243 c 0,164,165
 242 243 242 243 338 265 c 0,166,167
 571 316 571 316 780 429 c 0,168,169
 867 476 867 476 915 518 c 0,170,171
 958 556 958 556 960 582 c 0,172,173
 961 605 961 605 927 615 c 1,174,175
 927 615 927 615 927 615 c 129,-1,176
 927 615 927 615 927 615 c 1,132,133
448 226 m 1,177,178
 426 216 426 216 426 191 c 0,179,180
 426 176 426 176 437 164.5 c 128,-1,181
 448 153 448 153 464 153 c 0,182,183
 494 153 494 153 501 182 c 1,184,-1
 448 226 l 1,177,178
695 226 m 1,185,186
 718 216 718 216 718 191 c 0,187,188
 718 176 718 176 707 164.5 c 128,-1,189
 696 153 696 153 680 153 c 0,190,191
 650 153 650 153 643 182 c 1,192,-1
 695 226 l 1,185,186
571 -3 m 256,193,194
 617 -3 617 -3 645 30 c 0,195,196
 649 35 649 35 684 97 c 1,197,198
 640 43 640 43 571 43 c 256,199,200
 502 43 502 43 458 97 c 1,201,202
 493 35 493 35 497 30 c 0,203,204
 525 -3 525 -3 571 -3 c 256,193,194
EndSplineSet
Validated: 37
EndChar

StartChar: germandbls
Encoding: 223 223 137
Width: 576
Flags: W
LayerCount: 2
Fore
SplineSet
497 210 m 0,0,1
 497 89 497 89 426 36 c 0,2,3
 377 0 377 0 300 0 c 2,4,-1
 160 0 l 1,5,-1
 160 104 l 1,6,-1
 300 104 l 2,7,8
 355 104 355 104 376 131 c 0,9,10
 393 154 393 154 393 210 c 256,11,12
 393 266 393 266 376 289 c 0,13,14
 355 317 355 317 300 317 c 2,15,-1
 160 317 l 1,16,-1
 160 421 l 1,17,-1
 196 421 l 2,18,19
 251 421 251 421 272 449 c 0,20,21
 289 472 289 472 289 528 c 256,22,23
 289 584 289 584 272 607 c 0,24,25
 251 635 251 635 196 635 c 256,26,27
 141 635 141 635 120 607 c 0,28,29
 103 584 103 584 103 528 c 2,30,-1
 103 -105 l 1,31,-1
 -1 -105 l 1,32,-1
 -1 528 l 2,33,34
 -1 650 -1 650 70 703 c 0,35,36
 119 739 119 739 196 739 c 256,37,38
 273 739 273 739 322 703 c 0,39,40
 393 650 393 650 393 528 c 0,41,42
 393 460 393 460 370 412 c 1,43,44
 370 412 370 412 370 412 c 1,45,46
 497 374 497 374 497 210 c 0,0,1
EndSplineSet
Validated: 5
EndChar

StartChar: registered
Encoding: 174 174 138
Width: 1029
Flags: W
LayerCount: 2
Fore
SplineSet
936 265 m 256,0,1
 936 70 936 70 797.5 -68.5 c 128,-1,2
 659 -207 659 -207 463 -207 c 0,3,4
 268 -207 268 -207 129.5 -68.5 c 128,-1,5
 -9 70 -9 70 -9 265 c 256,6,7
 -9 460 -9 460 129.5 598.5 c 128,-1,8
 268 737 268 737 463 737 c 1,9,-1
 463 737 l 1,10,11
 659 737 659 737 797.5 598.5 c 128,-1,12
 936 460 936 460 936 265 c 256,0,1
831 265 m 256,13,14
 831 417 831 417 723 525 c 128,-1,15
 615 633 615 633 463 633 c 256,16,17
 311 633 311 633 203 525 c 128,-1,18
 95 417 95 417 95 265 c 256,19,20
 95 113 95 113 203 5 c 128,-1,21
 311 -103 311 -103 463 -103 c 1,22,-1
 463 -103 l 1,23,24
 615 -103 615 -103 723 5 c 128,-1,25
 831 113 831 113 831 265 c 256,13,14
619 426 m 1,26,27
 522 426 522 426 485 399 c 0,28,29
 457 379 457 379 457 338 c 2,30,-1
 457 -1 l 1,31,-1
 353 -1 l 1,32,-1
 353 338 l 2,33,34
 353 530 353 530 619 530 c 1,35,-1
 619 426 l 1,26,27
EndSplineSet
Validated: 5
EndChar

StartChar: copyright
Encoding: 169 169 139
Width: 1034
Flags: W
LayerCount: 2
Fore
SplineSet
931 265 m 256,0,1
 931 70 931 70 792.5 -68.5 c 128,-1,2
 654 -207 654 -207 459 -207 c 0,3,4
 263 -207 263 -207 125 -68.5 c 128,-1,5
 -13 70 -13 70 -13 265 c 256,6,7
 -13 460 -13 460 125 598.5 c 128,-1,8
 263 737 263 737 459 737 c 1,9,-1
 459 737 l 1,10,11
 654 737 654 737 792.5 598.5 c 128,-1,12
 931 460 931 460 931 265 c 256,0,1
827 265 m 256,13,14
 827 417 827 417 719 525 c 128,-1,15
 611 633 611 633 459 633 c 256,16,17
 307 633 307 633 199 525 c 128,-1,18
 91 417 91 417 91 265 c 256,19,20
 91 113 91 113 199 5 c 128,-1,21
 307 -103 307 -103 459 -103 c 1,22,-1
 459 -103 l 1,23,24
 611 -103 611 -103 719 5 c 128,-1,25
 827 113 827 113 827 265 c 256,13,14
701 162 m 1,26,27
 658 0 658 0 466 0 c 0,28,29
 219 0 219 0 219 265 c 0,30,31
 219 531 219 531 466 531 c 0,32,33
 658 531 658 531 701 369 c 1,34,-1
 591 369 l 1,35,36
 560 427 560 427 466 427 c 0,37,38
 383 427 383 427 350 382 c 0,39,40
 323 346 323 346 323 265 c 256,41,42
 323 184 323 184 350 148 c 0,43,44
 383 104 383 104 466 104 c 0,45,46
 561 104 561 104 591 162 c 1,47,-1
 591 162 l 1,48,-1
 701 162 l 1,26,27
EndSplineSet
Validated: 5
EndChar

StartChar: trademark
Encoding: 8482 8482 140
Width: 1095
Flags: W
LayerCount: 2
Fore
SplineSet
994 260 m 1,0,-1
 890 260 l 1,1,-1
 890 473 l 2,2,3
 890 551 890 551 864 588 c 0,4,5
 833 632 833 632 757 634 c 1,6,-1
 757 260 l 1,7,-1
 652 260 l 1,8,-1
 652 635 l 1,9,-1
 520 635 l 1,10,-1
 520 260 l 1,11,-1
 415 260 l 1,12,-1
 415 739 l 1,13,-1
 746 739 l 2,14,15
 994 739 994 739 994 473 c 2,16,-1
 994 260 l 1,0,-1
363 635 m 1,17,-1
 231 635 l 1,18,-1
 231 260 l 1,19,-1
 127 260 l 1,20,-1
 127 635 l 1,21,-1
 -5 635 l 1,22,-1
 -5 739 l 1,23,-1
 363 739 l 1,24,-1
 363 635 l 1,17,-1
EndSplineSet
Validated: 1
EndChar

StartChar: acute
Encoding: 180 180 141
Width: 434
Flags: W
LayerCount: 2
Fore
SplineSet
360 617 m 1,0,-1
 309 607 l 1,1,-1
 12 548 l 1,2,-1
 -8 650 l 1,3,-1
 43 661 l 1,4,-1
 339 720 l 1,5,-1
 360 617 l 1,0,-1
EndSplineSet
Validated: 1
EndChar

StartChar: dieresis
Encoding: 168 168 142
Width: 394
Flags: W
LayerCount: 2
Fore
SplineSet
310 635 m 1,0,-1
 205 635 l 1,1,-1
 205 739 l 1,2,-1
 310 739 l 1,3,-1
 310 635 l 1,0,-1
101 635 m 1,4,-1
 -3 635 l 1,5,-1
 -3 739 l 1,6,-1
 101 739 l 1,7,-1
 101 635 l 1,4,-1
EndSplineSet
Validated: 1
EndChar

StartChar: AE
Encoding: 198 198 143
Width: 840
Flags: W
LayerCount: 2
Fore
SplineSet
791 0 m 1,0,-1
 391 0 l 1,1,-1
 391 265 l 1,2,-1
 104 265 l 1,3,-1
 104 0 l 1,4,-1
 0 0 l 1,5,-1
 0 473 l 2,6,7
 0 739 0 739 248 739 c 2,8,-1
 791 739 l 1,9,-1
 791 635 l 1,10,-1
 495 635 l 1,11,-1
 495 421 l 1,12,-1
 739 421 l 1,13,-1
 739 317 l 1,14,-1
 495 317 l 1,15,-1
 495 104 l 1,16,-1
 791 104 l 1,17,-1
 791 0 l 1,0,-1
391 369 m 1,18,-1
 391 635 l 1,19,-1
 248 635 l 2,20,21
 165 635 165 635 131 590 c 0,22,23
 104 554 104 554 104 473 c 2,24,-1
 104 369 l 1,25,-1
 391 369 l 1,18,-1
EndSplineSet
Validated: 1
EndChar

StartChar: Oslash
Encoding: 216 216 144
Width: 578
Flags: W
LayerCount: 2
Fore
SplineSet
500 713 m 1,0,-1
 457 637 l 1,1,2
 494 573 494 573 494 473 c 2,3,-1
 494 265 l 2,4,5
 494 0 494 0 246 0 c 0,6,7
 169 0 169 0 114 28 c 1,8,-1
 84 -26 l 1,9,-1
 -7 25 l 1,10,-1
 36 102 l 1,11,12
 -1 165 -1 165 -1 265 c 2,13,-1
 -1 473 l 2,14,15
 -1 739 -1 739 246 739 c 0,16,17
 325 739 325 739 379 710 c 1,18,-1
 408 764 l 1,19,-1
 500 713 l 1,0,-1
328 619 m 1,20,21
 294 635 294 635 246 635 c 0,22,23
 163 635 163 635 130 590 c 0,24,25
 103 554 103 554 103 473 c 2,26,-1
 103 265 l 2,27,28
 103 250 103 250 105 224 c 1,29,-1
 328 619 l 1,20,21
390 265 m 2,30,-1
 390 473 l 2,31,32
 390 488 390 488 388 514 c 1,33,-1
 165 119 l 1,34,35
 197 104 197 104 246 104 c 0,36,37
 329 104 329 104 363 148 c 1,38,39
 390 185 390 185 390 265 c 2,30,-1
EndSplineSet
Validated: 1
EndChar

StartChar: ae
Encoding: 230 230 150
Width: 881
Flags: W
LayerCount: 2
Fore
SplineSet
813 0 m 1,0,-1
 208 0 l 2,1,2
 -6 0 -6 0 -6 158 c 0,3,4
 -6 317 -6 317 208 317 c 2,5,-1
 318 317 l 1,6,-1
 318 372 l 2,7,8
 318 396 318 396 304 407 c 0,9,10
 280 427 280 427 208 427 c 256,11,12
 136 427 136 427 112 407 c 0,13,14
 98 396 98 396 98 372 c 1,15,-1
 -6 372 l 1,16,17
 -6 531 -6 531 208 531 c 0,18,19
 333 531 333 531 388 471 c 1,20,21
 451 531 451 531 565 531 c 0,22,23
 813 531 813 531 813 266 c 2,24,-1
 813 214 l 1,25,-1
 425 214 l 1,26,27
 441 104 441 104 565 104 c 2,28,-1
 813 104 l 1,29,-1
 813 0 l 1,0,-1
705 318 m 1,30,31
 690 427 690 427 565 427 c 1,32,-1
 565 427 l 1,33,34
 441 427 441 427 425 318 c 1,35,-1
 705 318 l 1,30,31
354 104 m 1,36,37
 328 149 328 149 321 213 c 1,38,-1
 208 213 l 2,39,40
 136 213 136 213 112 193 c 0,41,42
 98 182 98 182 98 158 c 0,43,44
 98 132 98 132 115 121 c 0,45,46
 139 104 139 104 208 104 c 1,47,-1
 208 104 l 1,48,-1
 354 104 l 1,36,37
EndSplineSet
Validated: 5
EndChar

StartChar: oslash
Encoding: 248 248 151
Width: 571
Flags: W
LayerCount: 2
Fore
SplineSet
493 469 m 1,0,-1
 454 424 l 1,1,2
 489 364 489 364 489 265 c 0,3,4
 489 0 489 0 241 0 c 0,5,6
 162 0 162 0 111 27 c 1,7,-1
 79 -9 l 1,8,-1
 3 64 l 1,9,-1
 34 97 l 1,10,11
 -6 161 -6 161 -6 265 c 0,12,13
 -6 531 -6 531 241 531 c 0,14,15
 324 531 324 531 381 499 c 1,16,-1
 414 538 l 1,17,-1
 493 469 l 1,0,-1
309 416 m 1,18,19
 281 427 281 427 241 427 c 0,20,21
 158 427 158 427 125 382 c 0,22,23
 98 346 98 346 98 265 c 0,24,25
 98 212 98 212 108 183 c 1,26,-1
 108 183 l 1,27,-1
 309 416 l 1,18,19
385 265 m 0,28,29
 385 307 385 307 378 336 c 1,30,-1
 183 111 l 1,31,32
 205 104 205 104 241 104 c 1,33,-1
 241 104 l 1,34,35
 324 104 324 104 358 148 c 1,36,37
 385 185 385 185 385 265 c 0,28,29
EndSplineSet
Validated: 5
EndChar

StartChar: questiondown
Encoding: 191 191 152
Width: 503
Flags: W
LayerCount: 2
Fore
SplineSet
17.1006 206.49 m 4,0,1
 15.2568 294.472 15.2568 294.472 52.1387 348.256 c 4,2,3
 72.5049 378.689 72.5049 378.689 122.844 410.751 c 4,4,5
 158.375 433.501 158.375 433.501 168.038 449.707 c 4,6,7
 184.511 475.058 184.511 475.058 183.357 530.045 c 5,8,-1
 287.335 532.225 l 5,9,10
 289.242 441.244 289.242 441.244 252.36 387.46 c 4,11,12
 231.016 356.006 231.016 356.006 179.697 322.923 c 4,13,14
 145.166 300.194 145.166 300.194 135.482 284.988 c 4,15,16
 119.988 260.658 119.988 260.658 121.078 208.67 c 4,17,18
 122.398 145.684 122.398 145.684 154.895 122.359 c 4,19,20
 181.308 102.908 181.308 102.908 244.294 104.229 c 260,21,22
 307.279 105.549 307.279 105.549 332.855 126.089 c 4,23,24
 364.345 150.754 364.345 150.754 363.025 213.74 c 5,25,-1
 468.002 215.94 l 5,26,27
 469.721 133.959 469.721 133.959 430.84 80.1318 c 4,28,29
 376.444 2.97559 376.444 2.97559 246.473 0.251953 c 260,30,31
 116.501 -2.47266 116.501 -2.47266 58.9209 72.3379 c 4,32,33
 18.8193 124.509 18.8193 124.509 17.1006 206.49 c 4,0,1
179 738 m 5,34,-1
 282.977 740.179 l 5,35,-1
 285.156 636.202 l 5,36,-1
 181.179 634.022 l 5,37,-1
 179 738 l 5,34,-1
EndSplineSet
Validated: 33
EndChar

StartChar: exclamdown
Encoding: 161 161 153
Width: 189
Flags: W
LayerCount: 2
Fore
SplineSet
47.9043 527.004 m 5,0,-1
 151.899 527.916 l 5,1,-1
 156.566 -4.06348 l 5,2,-1
 52.5703 -4.97559 l 5,3,-1
 47.9043 527.004 l 5,0,-1
46.0879 733.996 m 5,4,-1
 150.084 734.908 l 5,5,-1
 150.996 630.912 l 5,6,-1
 47 630 l 5,7,-1
 46.0879 733.996 l 5,4,-1
EndSplineSet
Validated: 1
EndChar

StartChar: florin
Encoding: 402 402 155
Width: 328
Flags: W
LayerCount: 2
Fore
SplineSet
105 426 m 1,0,-1
 266 426 l 1,1,-1
 266 530 l 1,2,-1
 105 530 l 1,3,-1
 105 546 l 2,4,5
 105 588 105 588 132 608 c 0,6,7
 169 635 169 635 266 635 c 1,8,-1
 266 635 l 1,9,-1
 266 739 l 1,10,11
 0 739 0 739 0 546 c 2,12,-1
 0 -21 l 2,13,14
 0 -63 0 -63 -27 -83 c 0,15,16
 -64 -110 -64 -110 -161 -110 c 1,17,-1
 -161 -110 l 1,18,-1
 -161 -214 l 1,19,20
 105 -214 105 -214 105 -21 c 2,21,-1
 105 426 l 1,0,-1
EndSplineSet
Validated: 5
EndChar

StartChar: guillemotleft
Encoding: 171 171 156
Width: 669
Flags: W
LayerCount: 2
Fore
SplineSet
312 97 m 1,0,-1
 238 24 l 1,1,-1
 -3 265 l 1,2,-1
 238 506 l 1,3,-1
 312 433 l 1,4,-1
 144 265 l 1,5,-1
 312 97 l 1,0,-1
600 97 m 1,6,-1
 526 24 l 1,7,-1
 285 265 l 1,8,-1
 526 506 l 1,9,-1
 600 433 l 1,10,-1
 432 265 l 1,11,-1
 600 97 l 1,6,-1
EndSplineSet
Validated: 1
EndChar

StartChar: guillemotright
Encoding: 187 187 157
Width: 665
Flags: W
LayerCount: 2
Fore
SplineSet
288 97 m 1,0,-1
 362 24 l 1,1,-1
 603 265 l 1,2,-1
 362 506 l 1,3,-1
 288 433 l 1,4,-1
 456 265 l 1,5,-1
 288 97 l 1,0,-1
0 97 m 1,6,-1
 74 24 l 1,7,-1
 315 265 l 1,8,-1
 74 506 l 1,9,-1
 0 433 l 1,10,-1
 168 265 l 1,11,-1
 0 97 l 1,6,-1
EndSplineSet
Validated: 9
EndChar

StartChar: ellipsis
Encoding: 8230 8230 158
Width: 621
Flags: W
LayerCount: 2
Fore
SplineSet
110 0 m 1,0,-1
 5 0 l 1,1,-1
 5 104 l 1,2,-1
 110 104 l 1,3,-1
 110 0 l 1,0,-1
320 0 m 1,4,-1
 215 0 l 1,5,-1
 215 104 l 1,6,-1
 320 104 l 1,7,-1
 320 0 l 1,4,-1
530 0 m 1,8,-1
 425 0 l 1,9,-1
 425 104 l 1,10,-1
 530 104 l 1,11,-1
 530 0 l 1,8,-1
EndSplineSet
Validated: 1
EndChar

StartChar: Agrave
Encoding: 192 192 160
Width: 590
Flags: W
LayerCount: 2
Fore
SplineSet
430 860 m 1,0,-1
 410 758 l 1,1,-1
 359 768 l 1,2,-1
 63 827 l 1,3,-1
 83 930 l 1,4,-1
 134 919 l 1,5,-1
 430 860 l 1,0,-1
490 0 m 1,6,-1
 386 0 l 1,7,-1
 386 265 l 1,8,-1
 99 265 l 1,9,-1
 99 0 l 1,10,-1
 -5 0 l 1,11,-1
 -5 473 l 2,12,13
 -5 739 -5 739 242 739 c 1,14,-1
 242 739 l 1,15,16
 490 739 490 739 490 473 c 2,17,-1
 490 0 l 1,6,-1
386 369 m 1,18,-1
 386 473 l 2,19,20
 386 554 386 554 359 590 c 0,21,22
 325 635 325 635 242 635 c 256,23,24
 159 635 159 635 126 590 c 0,25,26
 99 554 99 554 99 473 c 2,27,-1
 99 369 l 1,28,-1
 386 369 l 1,18,-1
EndSplineSet
Validated: 5
EndChar

StartChar: Atilde
Encoding: 195 195 161
Width: 595
Flags: W
LayerCount: 2
Fore
SplineSet
508 882 m 1,0,-1
 474 842 l 2,1,2
 417 774 417 774 344 774 c 0,3,4
 295 774 295 774 219 814 c 0,5,6
 163 843 163 843 142 843 c 0,7,8
 117 843 117 843 90 811 c 1,9,-1
 90 811 l 1,10,-1
 56 771 l 1,11,-1
 -23 839 l 1,12,-1
 11 878 l 2,13,14
 70 946 70 946 142 946 c 0,15,16
 191 946 191 946 267 906 c 0,17,18
 322 877 322 877 343 877 c 0,19,20
 368 877 368 877 395 909 c 2,21,-1
 429 949 l 1,22,-1
 508 882 l 1,0,-1
494 0 m 1,23,-1
 390 0 l 1,24,-1
 390 265 l 1,25,-1
 103 265 l 1,26,-1
 103 0 l 1,27,-1
 -1 0 l 1,28,-1
 -1 473 l 2,29,30
 -1 739 -1 739 247 739 c 1,31,-1
 247 739 l 1,32,33
 494 739 494 739 494 473 c 2,34,-1
 494 0 l 1,23,-1
390 369 m 1,35,-1
 390 473 l 2,36,37
 390 554 390 554 363 590 c 0,38,39
 330 635 330 635 247 635 c 256,40,41
 164 635 164 635 130 590 c 0,42,43
 103 554 103 554 103 473 c 2,44,-1
 103 369 l 1,45,-1
 390 369 l 1,35,-1
EndSplineSet
Validated: 5
EndChar

StartChar: Otilde
Encoding: 213 213 162
Width: 590
Flags: W
LayerCount: 2
Fore
SplineSet
507 882 m 1,0,-1
 473 842 l 2,1,2
 415 774 415 774 343 774 c 0,3,4
 295 774 295 774 218 814 c 0,5,6
 162 843 162 843 141 843 c 0,7,8
 116 843 116 843 89 811 c 1,9,-1
 89 811 l 1,10,-1
 55 771 l 1,11,-1
 -24 839 l 1,12,-1
 9 878 l 2,13,14
 67 947 67 947 139 947 c 0,15,16
 188 947 188 947 266 906 c 0,17,18
 321 877 321 877 342 877 c 0,19,20
 368 877 368 877 394 909 c 2,21,-1
 427 949 l 1,22,-1
 507 882 l 1,0,-1
493 265 m 2,23,24
 493 0 493 0 246 0 c 0,25,26
 -2 0 -2 0 -2 265 c 2,27,-1
 -2 473 l 2,28,29
 -2 739 -2 739 246 739 c 0,30,31
 493 739 493 739 493 473 c 1,32,-1
 493 473 l 1,33,-1
 493 265 l 2,23,24
389 265 m 2,34,-1
 389 473 l 2,35,36
 389 554 389 554 362 590 c 0,37,38
 329 635 329 635 246 635 c 256,39,40
 163 635 163 635 129 590 c 0,41,42
 102 554 102 554 102 473 c 2,43,-1
 102 265 l 2,44,45
 102 185 102 185 129 148 c 1,46,47
 163 104 163 104 246 104 c 256,48,49
 329 104 329 104 362 148 c 0,50,51
 389 184 389 184 389 265 c 2,34,-1
EndSplineSet
Validated: 5
EndChar

StartChar: OE
Encoding: 338 338 163
Width: 833
Flags: W
LayerCount: 2
Fore
SplineSet
784 0 m 1,0,-1
 383 0 l 1,1,-1
 383 34 l 1,2,3
 327 0 327 0 240 0 c 0,4,5
 -7 0 -7 0 -7 265 c 2,6,-1
 -7 473 l 2,7,8
 -7 739 -7 739 240 739 c 0,9,10
 327 739 327 739 383 704 c 1,11,-1
 383 739 l 1,12,-1
 784 739 l 1,13,-1
 784 635 l 1,14,-1
 488 635 l 1,15,-1
 488 421 l 1,16,-1
 732 421 l 1,17,-1
 732 317 l 1,18,-1
 488 317 l 1,19,-1
 488 104 l 1,20,-1
 784 104 l 1,21,-1
 784 0 l 1,0,-1
383 265 m 2,22,-1
 383 473 l 2,23,24
 383 554 383 554 356 590 c 0,25,26
 323 635 323 635 240 635 c 256,27,28
 157 635 157 635 124 590 c 0,29,30
 97 554 97 554 97 473 c 2,31,-1
 97 265 l 2,32,33
 97 184 97 184 124 148 c 0,34,35
 157 104 157 104 240 104 c 256,36,37
 323 104 323 104 356 148 c 0,38,39
 383 184 383 184 383 265 c 2,22,-1
EndSplineSet
Validated: 1
EndChar

StartChar: oe
Encoding: 339 339 164
Width: 964
Flags: W
LayerCount: 2
Fore
SplineSet
876 0 m 1,0,-1
 628 0 l 2,1,2
 496 0 496 0 433 80 c 1,3,4
 370 0 370 0 238 0 c 0,5,6
 -10 0 -10 0 -10 265 c 0,7,8
 -10 531 -10 531 238 531 c 0,9,10
 370 531 370 531 433 450 c 1,11,12
 496 531 496 531 628 531 c 0,13,14
 876 531 876 531 876 265 c 2,15,-1
 876 213 l 1,16,-1
 488 213 l 1,17,18
 504 104 504 104 628 104 c 2,19,-1
 876 104 l 1,20,-1
 876 0 l 1,0,-1
769 317 m 1,21,22
 753 427 753 427 628 427 c 0,23,24
 504 427 504 427 488 317 c 1,25,-1
 769 317 l 1,21,22
381 265 m 256,26,27
 381 346 381 346 354 382 c 0,28,29
 321 427 321 427 238 427 c 256,30,31
 155 427 155 427 121 382 c 0,32,33
 94 346 94 346 94 265 c 0,34,35
 94 185 94 185 121 148 c 1,36,37
 155 104 155 104 238 104 c 256,38,39
 321 104 321 104 354 148 c 0,40,41
 381 184 381 184 381 265 c 256,26,27
EndSplineSet
Validated: 1
EndChar

StartChar: endash
Encoding: 8211 8211 165
Width: 484
Flags: W
LayerCount: 2
Fore
SplineSet
381 213 m 1,0,-1
 0 213 l 1,1,-1
 0 317 l 1,2,-1
 381 317 l 1,3,-1
 381 213 l 1,0,-1
EndSplineSet
Validated: 1
EndChar

StartChar: emdash
Encoding: 8212 8212 166
Width: 858
Flags: W
LayerCount: 2
Fore
SplineSet
755 213 m 1,0,-1
 0 213 l 1,1,-1
 0 317 l 1,2,-1
 755 317 l 1,3,-1
 755 213 l 1,0,-1
EndSplineSet
Validated: 1
EndChar

StartChar: quotedblleft
Encoding: 8220 8220 167
Width: 407
Flags: W
LayerCount: 2
Fore
SplineSet
313 479 m 1,0,-1
 209 479 l 1,1,-1
 209 739 l 1,2,-1
 313 739 l 1,3,-1
 313 479 l 1,0,-1
105 479 m 1,4,-1
 1 479 l 1,5,-1
 1 739 l 1,6,-1
 105 739 l 1,7,-1
 105 479 l 1,4,-1
EndSplineSet
Validated: 1
EndChar

StartChar: quotedblright
Encoding: 8221 8221 168
Width: 407
Flags: W
LayerCount: 2
Fore
SplineSet
313 479 m 1,0,-1
 209 479 l 1,1,-1
 209 739 l 1,2,-1
 313 739 l 1,3,-1
 313 479 l 1,0,-1
105 479 m 1,4,-1
 1 479 l 1,5,-1
 1 739 l 1,6,-1
 105 739 l 1,7,-1
 105 479 l 1,4,-1
EndSplineSet
Validated: 1
EndChar

StartChar: quoteleft
Encoding: 8216 8216 169
Width: 199
Flags: W
LayerCount: 2
Fore
SplineSet
105 479 m 1,0,-1
 1 479 l 1,1,-1
 1 739 l 1,2,-1
 105 739 l 1,3,-1
 105 479 l 1,0,-1
EndSplineSet
Validated: 1
EndChar

StartChar: quoteright
Encoding: 8217 8217 170
Width: 199
Flags: W
LayerCount: 2
Fore
SplineSet
105 479 m 1,0,-1
 1 479 l 1,1,-1
 1 739 l 1,2,-1
 105 739 l 1,3,-1
 105 479 l 1,0,-1
EndSplineSet
Validated: 1
EndChar

StartChar: ydieresis
Encoding: 255 255 172
Width: 585
Flags: W
LayerCount: 2
Fore
SplineSet
406 635 m 1,0,-1
 302 635 l 1,1,-1
 302 739 l 1,2,-1
 406 739 l 1,3,-1
 406 635 l 1,0,-1
198 635 m 1,4,-1
 94 635 l 1,5,-1
 94 739 l 1,6,-1
 198 739 l 1,7,-1
 198 635 l 1,4,-1
497 -15 m 2,8,9
 497 -209 497 -209 249 -209 c 2,10,-1
 54 -209 l 1,11,-1
 54 -105 l 1,12,-1
 249 -105 l 2,13,14
 343 -105 343 -105 375 -72 c 0,15,16
 393 -54 393 -54 393 -15 c 2,17,-1
 393 0 l 1,18,-1
 249 0 l 2,19,20
 2 0 2 0 2 265 c 2,21,-1
 2 531 l 1,22,-1
 106 531 l 1,23,-1
 106 265 l 2,24,25
 106 184 106 184 133 148 c 0,26,27
 166 104 166 104 249 104 c 2,28,-1
 393 104 l 1,29,-1
 393 531 l 1,30,-1
 497 531 l 1,31,-1
 497 -15 l 2,8,9
EndSplineSet
Validated: 1
EndChar

StartChar: Ydieresis
Encoding: 376 376 173
Width: 582
Flags: W
LayerCount: 2
Fore
SplineSet
405 805 m 1,0,-1
 301 805 l 1,1,-1
 301 909 l 1,2,-1
 405 909 l 1,3,-1
 405 805 l 1,0,-1
197 805 m 1,4,-1
 93 805 l 1,5,-1
 93 909 l 1,6,-1
 197 909 l 1,7,-1
 197 805 l 1,4,-1
498 531 m 2,8,9
 498 297 498 297 303 269 c 1,10,-1
 303 0 l 1,11,-1
 198 0 l 1,12,-1
 198 269 l 1,13,14
 3 297 3 297 3 531 c 2,15,-1
 3 739 l 1,16,-1
 107 739 l 1,17,-1
 107 531 l 2,18,19
 107 450 107 450 134 414 c 0,20,21
 167 369 167 369 250 369 c 256,22,23
 333 369 333 369 367 414 c 0,24,25
 394 450 394 450 394 531 c 2,26,-1
 394 739 l 1,27,-1
 498 739 l 1,28,-1
 498 531 l 2,8,9
EndSplineSet
Validated: 1
EndChar

StartChar: guilsinglleft
Encoding: 8249 8249 175
Width: 381
Flags: W
LayerCount: 2
Fore
SplineSet
312 97 m 1,0,-1
 238 24 l 1,1,-1
 -3 265 l 1,2,-1
 238 506 l 1,3,-1
 312 433 l 1,4,-1
 144 265 l 1,5,-1
 312 97 l 1,0,-1
EndSplineSet
Validated: 1
EndChar

StartChar: guilsinglright
Encoding: 8250 8250 176
Width: 373
Flags: W
LayerCount: 2
Fore
SplineSet
311 265 m 1,0,-1
 70 24 l 1,1,-1
 -4 97 l 1,2,-1
 164 265 l 1,3,-1
 -4 433 l 1,4,-1
 70 506 l 1,5,-1
 311 265 l 1,0,-1
EndSplineSet
Validated: 1
EndChar

StartChar: quotedblbase
Encoding: 8222 8222 180
Width: 407
Flags: W
LayerCount: 2
Fore
SplineSet
313 479 m 1,0,-1
 209 479 l 1,1,-1
 209 739 l 1,2,-1
 313 739 l 1,3,-1
 313 479 l 1,0,-1
105 479 m 1,4,-1
 1 479 l 1,5,-1
 1 739 l 1,6,-1
 105 739 l 1,7,-1
 105 479 l 1,4,-1
EndSplineSet
Validated: 1
EndChar

StartChar: perthousand
Encoding: 8240 8240 181
Width: 1215
Flags: W
LayerCount: 2
Fore
SplineSet
1163 171 m 256,0,1
 1163 0 1163 0 1002 0 c 256,2,3
 841 0 841 0 841 171 c 256,4,5
 841 342 841 342 1002 342 c 1,6,-1
 1002 342 l 1,7,8
 1163 342 1163 342 1163 171 c 256,0,1
782 171 m 256,9,10
 782 0 782 0 621 0 c 256,11,12
 460 0 460 0 460 171 c 256,13,14
 460 342 460 342 621 342 c 1,15,-1
 621 342 l 1,16,17
 782 342 782 342 782 171 c 256,9,10
596 699 m 1,18,-1
 272 -85 l 1,19,-1
 176 -46 l 1,20,-1
 499 739 l 1,21,-1
 596 699 l 1,18,-1
322 516 m 256,22,23
 322 345 322 345 161 345 c 256,24,25
 0 345 0 345 0 516 c 256,26,27
 0 687 0 687 161 687 c 1,28,-1
 161 687 l 1,29,30
 322 687 322 687 322 516 c 256,22,23
1062 171 m 256,31,32
 1062 212 1062 212 1049.5 226.5 c 128,-1,33
 1037 241 1037 241 1002 241 c 256,34,35
 967 241 967 241 954.5 226.5 c 128,-1,36
 942 212 942 212 942 171 c 256,37,38
 942 130 942 130 954.5 115 c 128,-1,39
 967 100 967 100 1002 100 c 1,40,-1
 1002 100 l 1,41,42
 1037 100 1037 100 1049.5 115 c 128,-1,43
 1062 130 1062 130 1062 171 c 256,31,32
681 171 m 256,44,45
 681 212 681 212 668.5 226.5 c 128,-1,46
 656 241 656 241 621 241 c 256,47,48
 586 241 586 241 573.5 226.5 c 128,-1,49
 561 212 561 212 561 171 c 256,50,51
 561 130 561 130 573.5 115 c 128,-1,52
 586 100 586 100 621 100 c 1,53,-1
 621 100 l 1,54,55
 656 100 656 100 668.5 115 c 128,-1,56
 681 130 681 130 681 171 c 256,44,45
222 516 m 0,57,58
 222 556 222 556 209 571 c 128,-1,59
 196 586 196 586 161 586 c 256,60,61
 126 586 126 586 113.5 571 c 128,-1,62
 101 556 101 556 101 516 c 0,63,64
 101 475 101 475 113.5 460 c 128,-1,65
 126 445 126 445 161 445 c 1,66,-1
 161 445 l 1,67,68
 196 445 196 445 209 460 c 128,-1,69
 222 475 222 475 222 516 c 0,57,58
EndSplineSet
Validated: 5
EndChar

StartChar: Acircumflex
Encoding: 194 194 182
Width: 590
Flags: W
LayerCount: 2
Fore
SplineSet
465 854 m 1,0,-1
 418 761 l 1,1,-1
 252 845 l 1,2,-1
 86 761 l 1,3,-1
 39 854 l 1,4,-1
 252 962 l 1,5,-1
 465 854 l 1,0,-1
500 0 m 1,6,-1
 396 0 l 1,7,-1
 396 265 l 1,8,-1
 109 265 l 1,9,-1
 109 0 l 1,10,-1
 5 0 l 1,11,-1
 5 473 l 2,12,13
 5 739 5 739 252 739 c 1,14,-1
 252 739 l 1,15,16
 500 739 500 739 500 473 c 2,17,-1
 500 0 l 1,6,-1
396 369 m 1,18,-1
 396 473 l 2,19,20
 396 554 396 554 369 590 c 0,21,22
 335 635 335 635 252 635 c 256,23,24
 169 635 169 635 136 590 c 0,25,26
 109 554 109 554 109 473 c 2,27,-1
 109 369 l 1,28,-1
 396 369 l 1,18,-1
EndSplineSet
Validated: 5
EndChar

StartChar: Ecircumflex
Encoding: 202 202 183
Width: 459
Flags: W
LayerCount: 2
Fore
SplineSet
411 871 m 1,0,-1
 364 778 l 1,1,-1
 198 862 l 1,2,-1
 32 778 l 1,3,-1
 -15 871 l 1,4,-1
 198 979 l 1,5,-1
 411 871 l 1,0,-1
401 0 m 1,6,-1
 1 0 l 1,7,-1
 1 739 l 1,8,-1
 401 739 l 1,9,-1
 401 635 l 1,10,-1
 105 635 l 1,11,-1
 105 421 l 1,12,-1
 349 421 l 1,13,-1
 349 317 l 1,14,-1
 105 317 l 1,15,-1
 105 104 l 1,16,-1
 401 104 l 1,17,-1
 401 0 l 1,6,-1
EndSplineSet
Validated: 1
EndChar

StartChar: Aacute
Encoding: 193 193 184
Width: 590
Flags: W
LayerCount: 2
Fore
SplineSet
430 837 m 1,0,-1
 379 827 l 1,1,-1
 83 768 l 1,2,-1
 63 870 l 1,3,-1
 114 881 l 1,4,-1
 410 940 l 1,5,-1
 430 837 l 1,0,-1
500 0 m 1,6,-1
 396 0 l 1,7,-1
 396 265 l 1,8,-1
 109 265 l 1,9,-1
 109 0 l 1,10,-1
 5 0 l 1,11,-1
 5 473 l 2,12,13
 5 739 5 739 252 739 c 1,14,-1
 252 739 l 1,15,16
 500 739 500 739 500 473 c 2,17,-1
 500 0 l 1,6,-1
396 369 m 1,18,-1
 396 473 l 2,19,20
 396 554 396 554 369 590 c 0,21,22
 335 635 335 635 252 635 c 256,23,24
 169 635 169 635 136 590 c 0,25,26
 109 554 109 554 109 473 c 2,27,-1
 109 369 l 1,28,-1
 396 369 l 1,18,-1
EndSplineSet
Validated: 5
EndChar

StartChar: Edieresis
Encoding: 203 203 185
Width: 467
Flags: W
LayerCount: 2
Fore
SplineSet
360 805 m 1,0,-1
 256 805 l 1,1,-1
 256 909 l 1,2,-1
 360 909 l 1,3,-1
 360 805 l 1,0,-1
152 805 m 1,4,-1
 48 805 l 1,5,-1
 48 909 l 1,6,-1
 152 909 l 1,7,-1
 152 805 l 1,4,-1
404 0 m 1,8,-1
 3 0 l 1,9,-1
 3 739 l 1,10,-1
 404 739 l 1,11,-1
 404 635 l 1,12,-1
 108 635 l 1,13,-1
 108 421 l 1,14,-1
 351 421 l 1,15,-1
 351 317 l 1,16,-1
 108 317 l 1,17,-1
 108 104 l 1,18,-1
 404 104 l 1,19,-1
 404 0 l 1,8,-1
EndSplineSet
Validated: 1
EndChar

StartChar: Egrave
Encoding: 200 200 186
Width: 470
Flags: W
LayerCount: 2
Fore
SplineSet
385 880 m 1,0,-1
 365 778 l 1,1,-1
 314 788 l 1,2,-1
 18 847 l 1,3,-1
 38 950 l 1,4,-1
 89 939 l 1,5,-1
 385 880 l 1,0,-1
404 0 m 1,6,-1
 3 0 l 1,7,-1
 3 739 l 1,8,-1
 404 739 l 1,9,-1
 404 635 l 1,10,-1
 108 635 l 1,11,-1
 108 421 l 1,12,-1
 351 421 l 1,13,-1
 351 317 l 1,14,-1
 108 317 l 1,15,-1
 108 104 l 1,16,-1
 404 104 l 1,17,-1
 404 0 l 1,6,-1
EndSplineSet
Validated: 1
EndChar

StartChar: Iacute
Encoding: 205 205 187
Width: 218
Flags: W
LayerCount: 2
Fore
SplineSet
229 837 m 1,0,-1
 178 827 l 1,1,-1
 -119 768 l 1,2,-1
 -139 870 l 1,3,-1
 -88 881 l 1,4,-1
 208 940 l 1,5,-1
 229 837 l 1,0,-1
104 0 m 1,6,-1
 0 0 l 1,7,-1
 0 739 l 1,8,-1
 104 739 l 1,9,-1
 104 0 l 1,6,-1
EndSplineSet
Validated: 1
EndChar

StartChar: Icircumflex
Encoding: 206 206 188
Width: 220
Flags: W
LayerCount: 2
Fore
SplineSet
265 861 m 1,0,-1
 218 768 l 1,1,-1
 52 852 l 1,2,-1
 -114 768 l 1,3,-1
 -161 861 l 1,4,-1
 52 969 l 1,5,-1
 265 861 l 1,0,-1
105 0 m 1,6,-1
 1 0 l 1,7,-1
 1 739 l 1,8,-1
 105 739 l 1,9,-1
 105 0 l 1,6,-1
EndSplineSet
Validated: 1
EndChar

StartChar: Idieresis
Encoding: 207 207 189
Width: 215
Flags: W
LayerCount: 2
Fore
SplineSet
206 799 m 1,0,-1
 102 799 l 1,1,-1
 102 903 l 1,2,-1
 206 903 l 1,3,-1
 206 799 l 1,0,-1
-2 799 m 1,4,-1
 -106 799 l 1,5,-1
 -106 903 l 1,6,-1
 -2 903 l 1,7,-1
 -2 799 l 1,4,-1
102 0 m 1,8,-1
 -2 0 l 1,9,-1
 -2 739 l 1,10,-1
 102 739 l 1,11,-1
 102 0 l 1,8,-1
EndSplineSet
Validated: 1
EndChar

StartChar: Igrave
Encoding: 204 204 190
Width: 208
Flags: W
LayerCount: 2
Fore
SplineSet
241 870 m 1,0,-1
 220 768 l 1,1,-1
 169 778 l 1,2,-1
 -127 837 l 1,3,-1
 -107 940 l 1,4,-1
 -55 929 l 1,5,-1
 241 870 l 1,0,-1
106 0 m 1,6,-1
 2 0 l 1,7,-1
 2 739 l 1,8,-1
 106 739 l 1,9,-1
 106 0 l 1,6,-1
EndSplineSet
Validated: 1
EndChar

StartChar: Oacute
Encoding: 211 211 191
Width: 585
Flags: W
LayerCount: 2
Fore
SplineSet
428 826 m 1,0,-1
 377 816 l 1,1,-1
 81 757 l 1,2,-1
 61 859 l 1,3,-1
 112 869 l 1,4,-1
 408 928 l 1,5,-1
 428 826 l 1,0,-1
489 265 m 2,6,7
 489 0 489 0 241 0 c 0,8,9
 -6 0 -6 0 -6 265 c 2,10,-1
 -6 473 l 2,11,12
 -6 739 -6 739 241 739 c 0,13,14
 489 739 489 739 489 473 c 1,15,-1
 489 473 l 1,16,-1
 489 265 l 2,6,7
385 265 m 2,17,-1
 385 473 l 2,18,19
 385 554 385 554 358 590 c 0,20,21
 324 635 324 635 241 635 c 256,22,23
 158 635 158 635 125 590 c 0,24,25
 98 554 98 554 98 473 c 2,26,-1
 98 265 l 2,27,28
 98 184 98 184 125 148 c 0,29,30
 158 104 158 104 241 104 c 256,31,32
 324 104 324 104 358 148 c 1,33,34
 385 185 385 185 385 265 c 2,17,-1
EndSplineSet
Validated: 5
EndChar

StartChar: Ocircumflex
Encoding: 212 212 192
Width: 585
Flags: W
LayerCount: 2
Fore
SplineSet
454 851 m 1,0,-1
 407 758 l 1,1,-1
 241 842 l 1,2,-1
 75 758 l 1,3,-1
 28 851 l 1,4,-1
 241 959 l 1,5,-1
 454 851 l 1,0,-1
489 265 m 2,6,7
 489 0 489 0 241 0 c 0,8,9
 -6 0 -6 0 -6 265 c 2,10,-1
 -6 473 l 2,11,12
 -6 739 -6 739 241 739 c 0,13,14
 489 739 489 739 489 473 c 1,15,-1
 489 473 l 1,16,-1
 489 265 l 2,6,7
385 265 m 2,17,-1
 385 473 l 2,18,19
 385 554 385 554 358 590 c 0,20,21
 324 635 324 635 241 635 c 256,22,23
 158 635 158 635 125 590 c 0,24,25
 98 554 98 554 98 473 c 2,26,-1
 98 265 l 2,27,28
 98 184 98 184 125 148 c 0,29,30
 158 104 158 104 241 104 c 256,31,32
 324 104 324 104 358 148 c 1,33,34
 385 185 385 185 385 265 c 2,17,-1
EndSplineSet
Validated: 5
EndChar

StartChar: Ograve
Encoding: 210 210 193
Width: 585
Flags: W
LayerCount: 2
Fore
SplineSet
429 865 m 1,0,-1
 408 763 l 1,1,-1
 357 773 l 1,2,-1
 61 832 l 1,3,-1
 81 934 l 1,4,-1
 132 924 l 1,5,-1
 429 865 l 1,0,-1
489 265 m 2,6,7
 489 0 489 0 241 0 c 0,8,9
 -6 0 -6 0 -6 265 c 2,10,-1
 -6 473 l 2,11,12
 -6 739 -6 739 241 739 c 0,13,14
 489 739 489 739 489 473 c 1,15,-1
 489 473 l 1,16,-1
 489 265 l 2,6,7
385 265 m 2,17,-1
 385 473 l 2,18,19
 385 554 385 554 358 590 c 0,20,21
 324 635 324 635 241 635 c 256,22,23
 158 635 158 635 125 590 c 0,24,25
 98 554 98 554 98 473 c 2,26,-1
 98 265 l 2,27,28
 98 184 98 184 125 148 c 0,29,30
 158 104 158 104 241 104 c 256,31,32
 324 104 324 104 358 148 c 1,33,34
 385 185 385 185 385 265 c 2,17,-1
EndSplineSet
Validated: 5
EndChar

StartChar: Uacute
Encoding: 218 218 194
Width: 609
Flags: W
LayerCount: 2
Fore
SplineSet
434 861 m 1,0,-1
 383 851 l 1,1,-1
 87 792 l 1,2,-1
 67 894 l 1,3,-1
 118 904 l 1,4,-1
 414 963 l 1,5,-1
 434 861 l 1,0,-1
497 265 m 2,6,7
 497 0 497 0 249 0 c 0,8,9
 2 0 2 0 2 265 c 2,10,-1
 2 739 l 1,11,-1
 106 739 l 1,12,-1
 106 265 l 2,13,14
 106 184 106 184 133 148 c 0,15,16
 166 104 166 104 249 104 c 256,17,18
 332 104 332 104 366 148 c 1,19,20
 393 185 393 185 393 265 c 2,21,-1
 393 739 l 1,22,-1
 497 739 l 1,23,-1
 497 265 l 2,6,7
EndSplineSet
Validated: 1
EndChar

StartChar: Ucircumflex
Encoding: 219 219 195
Width: 609
Flags: W
LayerCount: 2
Fore
SplineSet
462 881 m 1,0,-1
 415 788 l 1,1,-1
 249 872 l 1,2,-1
 83 788 l 1,3,-1
 36 881 l 1,4,-1
 249 989 l 1,5,-1
 462 881 l 1,0,-1
497 265 m 2,6,7
 497 0 497 0 249 0 c 0,8,9
 2 0 2 0 2 265 c 2,10,-1
 2 739 l 1,11,-1
 106 739 l 1,12,-1
 106 265 l 2,13,14
 106 184 106 184 133 148 c 0,15,16
 166 104 166 104 249 104 c 256,17,18
 332 104 332 104 366 148 c 1,19,20
 393 185 393 185 393 265 c 2,21,-1
 393 739 l 1,22,-1
 497 739 l 1,23,-1
 497 265 l 2,6,7
EndSplineSet
Validated: 1
EndChar

StartChar: Ugrave
Encoding: 217 217 196
Width: 612
Flags: W
LayerCount: 2
Fore
SplineSet
433 897 m 1,0,-1
 413 795 l 1,1,-1
 362 805 l 1,2,-1
 66 864 l 1,3,-1
 86 966 l 1,4,-1
 137 956 l 1,5,-1
 433 897 l 1,0,-1
497 265 m 2,6,7
 497 0 497 0 249 0 c 0,8,9
 2 0 2 0 2 265 c 2,10,-1
 2 739 l 1,11,-1
 106 739 l 1,12,-1
 106 265 l 2,13,14
 106 184 106 184 133 148 c 0,15,16
 166 104 166 104 249 104 c 256,17,18
 332 104 332 104 365 148 c 0,19,20
 392 184 392 184 392 265 c 2,21,-1
 392 739 l 1,22,-1
 497 739 l 1,23,-1
 497 265 l 2,6,7
EndSplineSet
Validated: 1
EndChar

StartChar: circumflex
Encoding: 710 710 197
Width: 484
Flags: W
LayerCount: 2
Fore
SplineSet
416 631 m 1,0,-1
 369 538 l 1,1,-1
 203 622 l 1,2,-1
 37 538 l 1,3,-1
 -10 631 l 1,4,-1
 203 739 l 1,5,-1
 416 631 l 1,0,-1
EndSplineSet
Validated: 1
EndChar

StartChar: tilde
Encoding: 732 732 198
Width: 583
Flags: W
LayerCount: 2
Fore
SplineSet
516 672 m 1,0,-1
 482 632 l 2,1,2
 424 564 424 564 352 564 c 0,3,4
 303 564 303 564 227 604 c 0,5,6
 171 633 171 633 150 633 c 0,7,8
 125 633 125 633 98 601 c 1,9,-1
 98 601 l 1,10,-1
 65 561 l 1,11,-1
 -15 629 l 1,12,-1
 19 668 l 2,13,14
 78 736 78 736 150 736 c 0,15,16
 199 736 199 736 275 696 c 0,17,18
 330 667 330 667 351 667 c 0,19,20
 376 667 376 667 403 699 c 2,21,-1
 437 739 l 1,22,-1
 516 672 l 1,0,-1
EndSplineSet
Validated: 5
EndChar

StartChar: cedilla
Encoding: 184 184 200
Width: 271
Flags: W
LayerCount: 2
Fore
SplineSet
216 -224 m 1,0,1
 179 -261 179 -261 126 -261 c 0,2,3
 71 -261 71 -261 34.5 -223.5 c 128,-1,4
 -2 -186 -2 -186 -2 -133 c 0,5,6
 -2 -79 -2 -79 35 -43 c 0,7,8
 52 -26 52 -26 74 -17 c 1,9,-1
 74 56 l 1,10,-1
 178 56 l 1,11,-1
 177 -58 l 2,12,13
 177 -79 177 -79 162 -94 c 128,-1,14
 147 -109 147 -109 125 -109 c 0,15,16
 115 -109 115 -109 108 -117 c 128,-1,17
 101 -125 101 -125 101 -133 c 0,18,19
 101 -143 101 -143 107.5 -150 c 128,-1,20
 114 -157 114 -157 125 -157 c 256,21,22
 136 -157 136 -157 142 -150 c 1,23,-1
 142 -150 l 1,24,-1
 216 -224 l 1,0,1
EndSplineSet
Validated: 5
EndChar

StartChar: Zcaron
Encoding: 381 381 201
Width: 606
Flags: W
LayerCount: 2
Fore
SplineSet
490 890 m 1,0,-1
 277 782 l 1,1,-1
 64 890 l 1,2,-1
 111 983 l 1,3,-1
 277 899 l 1,4,-1
 443 983 l 1,5,-1
 490 890 l 1,0,-1
551 0 m 1,6,-1
 551 104 l 1,7,-1
 104 104 l 1,8,9
 104 206 104 206 158 255 c 0,10,11
 191 286 191 286 294 323 c 0,12,13
 415 366 415 366 465 411 c 0,14,15
 551 489 551 489 551 634 c 2,16,-1
 551 739 l 1,17,-1
 0 739 l 1,18,-1
 0 634 l 1,19,-1
 446 634 l 1,20,21
 446 535 446 535 393 487 c 0,22,23
 360 457 360 457 259 421 c 0,24,25
 137 378 137 378 86 332 c 0,26,27
 0 253 0 253 0 104 c 2,28,-1
 0 0 l 1,29,-1
 551 0 l 1,6,-1
EndSplineSet
Validated: 9
EndChar

StartChar: zcaron
Encoding: 382 382 202
Width: 560
Flags: W
LayerCount: 2
Fore
SplineSet
465 676 m 1,0,-1
 252 568 l 1,1,-1
 39 676 l 1,2,-1
 86 769 l 1,3,-1
 252 685 l 1,4,-1
 418 769 l 1,5,-1
 465 676 l 1,0,-1
500 0 m 1,6,-1
 5 0 l 1,7,-1
 5 52 l 2,8,9
 5 317 5 317 252 317 c 0,10,11
 377 317 377 317 393 427 c 1,12,-1
 5 427 l 1,13,-1
 5 531 l 1,14,-1
 500 531 l 1,15,-1
 500 479 l 2,16,17
 500 213 500 213 252 213 c 1,18,-1
 252 213 l 1,19,20
 128 213 128 213 112 104 c 1,21,-1
 500 104 l 1,22,-1
 500 0 l 1,6,-1
EndSplineSet
Validated: 1
EndChar

StartChar: infinity
Encoding: 8734 8734 204
Width: 1066
Flags: W
LayerCount: 2
Fore
SplineSet
1066 610 m 0,0,1
 1057 650 1057 650 961 651 c 0,2,3
 886 652 886 652 773 627 c 0,4,5
 731 618 731 618 685 606 c 1,6,7
 646 631 646 631 600 643 c 1,8,9
 600 682 600 682 589 733 c 0,10,11
 577 788 577 788 565 800 c 1,12,13
 553 788 553 788 541 733 c 0,14,15
 530 682 530 682 530 643 c 1,16,17
 403 610 403 610 329 477 c 1,18,19
 191 413 191 413 102 350 c 0,20,21
 47 310 47 310 21 277 c 0,22,23
 0 250 0 250 0 230 c 0,24,25
 0 189 0 189 85 183 c 0,26,27
 155 179 155 179 268 201 c 1,28,29
 281 128 281 128 326 53 c 1,30,31
 261 -6 261 -6 261 -70 c 0,32,33
 261 -141 261 -141 321 -200 c 1,34,35
 384 -185 384 -185 450 -91 c 1,36,37
 503 -134 503 -134 565 -162 c 1,38,39
 627 -134 627 -134 680 -91 c 1,40,41
 746 -185 746 -185 809 -200 c 1,42,43
 869 -141 869 -141 869 -70 c 0,44,45
 869 -6 869 -6 804 53 c 1,46,47
 868 161 868 161 866 248 c 0,48,49
 864 320 864 320 834 404 c 1,50,51
 906 443 906 443 959 480 c 0,52,53
 1076 562 1076 562 1066 610 c 0,0,1
774 519 m 1,54,55
 756 545 756 545 735 566 c 1,56,57
 786 566 786 566 786 544 c 0,58,59
 786 534 786 534 774 519 c 1,54,55
277 338 m 1,60,61
 255 343 255 343 255 357 c 0,62,63
 255 374 255 374 286 399 c 0,64,65
 291 404 291 404 298 409 c 1,66,67
 285 375 285 375 277 338 c 1,60,61
533 617 m 1,68,69
 504 610 504 610 462.5 576 c 128,-1,70
 421 542 421 542 404 517 c 1,71,72
 435 504 435 504 465 504 c 1,73,74
 468 516 468 516 490 554 c 128,-1,75
 512 592 512 592 533 617 c 1,68,69
565 752 m 1,76,77
 547 719 547 719 547 638 c 1,78,-1
 565 632 l 1,79,-1
 565 752 l 1,76,77
418 352 m 1,80,81
 545 384 545 384 663 444 c 0,82,83
 690 458 690 458 713 472 c 1,84,85
 642 459 642 459 566 459 c 0,86,87
 464 459 464 459 384 480 c 1,88,89
 350 419 350 419 335 337 c 1,90,91
 372 341 372 341 418 352 c 1,92,93
 418 352 418 352 418 352 c 129,-1,94
 418 352 418 352 418 352 c 1,80,81
338 34 m 1,95,96
 317 0 317 0 317 -73 c 0,97,98
 317 -132 317 -132 337 -150 c 1,99,100
 366 -143 366 -143 394 -121.5 c 128,-1,101
 422 -100 422 -100 434 -77 c 1,102,103
 379 -28 379 -28 338 34 c 1,104,105
 338 34 338 34 338 34 c 129,-1,106
 338 34 338 34 338 34 c 1,95,96
696 -77 m 1,107,108
 708 -100 708 -100 736 -121.5 c 128,-1,109
 764 -143 764 -143 793 -150 c 1,110,111
 813 -132 813 -132 813 -73 c 0,112,113
 813 0 813 0 792 34 c 1,114,115
 751 -28 751 -28 696 -77 c 1,107,108
804 248 m 1,116,117
 802 316 802 316 786 380 c 1,118,119
 614 295 614 295 424 239 c 0,120,121
 374 225 374 225 327 214 c 1,122,123
 336 124 336 124 388 41 c 0,124,125
 451 -60 451 -60 565 -121 c 1,126,127
 691 -54 691 -54 755 62 c 0,128,129
 806 156 806 156 804 248 c 1,130,131
 807 248 807 248 804 248 c 1,116,117
927 615 m 1,132,133
 897 623 897 623 844 620 c 1,134,135
 783 615 783 615 700 596 c 1,136,137
 708 589 708 589 717 582 c 1,138,139
 754 589 754 589 782 590 c 0,140,141
 812 591 812 591 832 586 c 0,142,143
 866 578 866 578 859 554 c 0,144,145
 845 508 845 508 710 438 c 0,146,147
 555 357 555 357 385 317 c 1,148,149
 313 299 313 299 262 298 c 1,150,151
 229 296 229 296 209 302 c 0,152,153
 176 312 176 312 190 340 c 0,154,155
 210 379 210 379 309 435 c 1,156,157
 314 447 314 447 319 458 c 1,158,159
 225 411 225 411 166 367 c 0,160,161
 95 314 95 314 95 281 c 0,162,163
 95 244 95 244 178 243 c 0,164,165
 242 243 242 243 338 265 c 0,166,167
 571 316 571 316 780 429 c 0,168,169
 867 476 867 476 915 518 c 0,170,171
 958 556 958 556 960 582 c 0,172,173
 961 605 961 605 927 615 c 1,174,175
 927 615 927 615 927 615 c 129,-1,176
 927 615 927 615 927 615 c 1,132,133
448 226 m 1,177,178
 426 216 426 216 426 191 c 0,179,180
 426 176 426 176 437 164.5 c 128,-1,181
 448 153 448 153 464 153 c 0,182,183
 494 153 494 153 501 182 c 1,184,-1
 448 226 l 1,177,178
695 226 m 1,185,186
 718 216 718 216 718 191 c 0,187,188
 718 176 718 176 707 164.5 c 128,-1,189
 696 153 696 153 680 153 c 0,190,191
 650 153 650 153 643 182 c 1,192,-1
 695 226 l 1,185,186
571 -3 m 256,193,194
 617 -3 617 -3 645 30 c 0,195,196
 649 35 649 35 684 97 c 1,197,198
 640 43 640 43 571 43 c 256,199,200
 502 43 502 43 458 97 c 1,201,202
 493 35 493 35 497 30 c 0,203,204
 525 -3 525 -3 571 -3 c 256,193,194
EndSplineSet
Validated: 37
EndChar

StartChar: product
Encoding: 8719 8719 209
Width: 1066
Flags: W
LayerCount: 2
Fore
SplineSet
1066 610 m 0,0,1
 1057 650 1057 650 961 651 c 0,2,3
 886 652 886 652 773 627 c 0,4,5
 731 618 731 618 685 606 c 1,6,7
 646 631 646 631 600 643 c 1,8,9
 600 682 600 682 589 733 c 0,10,11
 577 788 577 788 565 800 c 1,12,13
 553 788 553 788 541 733 c 0,14,15
 530 682 530 682 530 643 c 1,16,17
 403 610 403 610 329 477 c 1,18,19
 191 413 191 413 102 350 c 0,20,21
 47 310 47 310 21 277 c 0,22,23
 0 250 0 250 0 230 c 0,24,25
 0 189 0 189 85 183 c 0,26,27
 155 179 155 179 268 201 c 1,28,29
 281 128 281 128 326 53 c 1,30,31
 261 -6 261 -6 261 -70 c 0,32,33
 261 -141 261 -141 321 -200 c 1,34,35
 384 -185 384 -185 450 -91 c 1,36,37
 503 -134 503 -134 565 -162 c 1,38,39
 627 -134 627 -134 680 -91 c 1,40,41
 746 -185 746 -185 809 -200 c 1,42,43
 869 -141 869 -141 869 -70 c 0,44,45
 869 -6 869 -6 804 53 c 1,46,47
 868 161 868 161 866 248 c 0,48,49
 864 320 864 320 834 404 c 1,50,51
 906 443 906 443 959 480 c 0,52,53
 1076 562 1076 562 1066 610 c 0,0,1
774 519 m 1,54,55
 756 545 756 545 735 566 c 1,56,57
 786 566 786 566 786 544 c 0,58,59
 786 534 786 534 774 519 c 1,54,55
277 338 m 1,60,61
 255 343 255 343 255 357 c 0,62,63
 255 374 255 374 286 399 c 0,64,65
 291 404 291 404 298 409 c 1,66,67
 285 375 285 375 277 338 c 1,60,61
533 617 m 1,68,69
 504 610 504 610 462.5 576 c 128,-1,70
 421 542 421 542 404 517 c 1,71,72
 435 504 435 504 465 504 c 1,73,74
 468 516 468 516 490 554 c 128,-1,75
 512 592 512 592 533 617 c 1,68,69
565 752 m 1,76,77
 547 719 547 719 547 638 c 1,78,-1
 565 632 l 1,79,-1
 565 752 l 1,76,77
418 352 m 1,80,81
 545 384 545 384 663 444 c 0,82,83
 690 458 690 458 713 472 c 1,84,85
 642 459 642 459 566 459 c 0,86,87
 464 459 464 459 384 480 c 1,88,89
 350 419 350 419 335 337 c 1,90,91
 372 341 372 341 418 352 c 1,92,93
 418 352 418 352 418 352 c 129,-1,94
 418 352 418 352 418 352 c 1,80,81
338 34 m 1,95,96
 317 0 317 0 317 -73 c 0,97,98
 317 -132 317 -132 337 -150 c 1,99,100
 366 -143 366 -143 394 -121.5 c 128,-1,101
 422 -100 422 -100 434 -77 c 1,102,103
 379 -28 379 -28 338 34 c 1,104,105
 338 34 338 34 338 34 c 129,-1,106
 338 34 338 34 338 34 c 1,95,96
696 -77 m 1,107,108
 708 -100 708 -100 736 -121.5 c 128,-1,109
 764 -143 764 -143 793 -150 c 1,110,111
 813 -132 813 -132 813 -73 c 0,112,113
 813 0 813 0 792 34 c 1,114,115
 751 -28 751 -28 696 -77 c 1,107,108
804 248 m 1,116,117
 802 316 802 316 786 380 c 1,118,119
 614 295 614 295 424 239 c 0,120,121
 374 225 374 225 327 214 c 1,122,123
 336 124 336 124 388 41 c 0,124,125
 451 -60 451 -60 565 -121 c 1,126,127
 691 -54 691 -54 755 62 c 0,128,129
 806 156 806 156 804 248 c 1,130,131
 807 248 807 248 804 248 c 1,116,117
927 615 m 1,132,133
 897 623 897 623 844 620 c 1,134,135
 783 615 783 615 700 596 c 1,136,137
 708 589 708 589 717 582 c 1,138,139
 754 589 754 589 782 590 c 0,140,141
 812 591 812 591 832 586 c 0,142,143
 866 578 866 578 859 554 c 0,144,145
 845 508 845 508 710 438 c 0,146,147
 555 357 555 357 385 317 c 1,148,149
 313 299 313 299 262 298 c 1,150,151
 229 296 229 296 209 302 c 0,152,153
 176 312 176 312 190 340 c 0,154,155
 210 379 210 379 309 435 c 1,156,157
 314 447 314 447 319 458 c 1,158,159
 225 411 225 411 166 367 c 0,160,161
 95 314 95 314 95 281 c 0,162,163
 95 244 95 244 178 243 c 0,164,165
 242 243 242 243 338 265 c 0,166,167
 571 316 571 316 780 429 c 0,168,169
 867 476 867 476 915 518 c 0,170,171
 958 556 958 556 960 582 c 0,172,173
 961 605 961 605 927 615 c 1,174,175
 927 615 927 615 927 615 c 129,-1,176
 927 615 927 615 927 615 c 1,132,133
448 226 m 1,177,178
 426 216 426 216 426 191 c 0,179,180
 426 176 426 176 437 164.5 c 128,-1,181
 448 153 448 153 464 153 c 0,182,183
 494 153 494 153 501 182 c 1,184,-1
 448 226 l 1,177,178
695 226 m 1,185,186
 718 216 718 216 718 191 c 0,187,188
 718 176 718 176 707 164.5 c 128,-1,189
 696 153 696 153 680 153 c 0,190,191
 650 153 650 153 643 182 c 1,192,-1
 695 226 l 1,185,186
571 -3 m 256,193,194
 617 -3 617 -3 645 30 c 0,195,196
 649 35 649 35 684 97 c 1,197,198
 640 43 640 43 571 43 c 256,199,200
 502 43 502 43 458 97 c 1,201,202
 493 35 493 35 497 30 c 0,203,204
 525 -3 525 -3 571 -3 c 256,193,194
EndSplineSet
Validated: 37
EndChar

StartChar: pi
Encoding: 960 960 210
Width: 1066
Flags: W
LayerCount: 2
Fore
SplineSet
1066 610 m 0,0,1
 1057 650 1057 650 961 651 c 0,2,3
 886 652 886 652 773 627 c 0,4,5
 731 618 731 618 685 606 c 1,6,7
 646 631 646 631 600 643 c 1,8,9
 600 682 600 682 589 733 c 0,10,11
 577 788 577 788 565 800 c 1,12,13
 553 788 553 788 541 733 c 0,14,15
 530 682 530 682 530 643 c 1,16,17
 403 610 403 610 329 477 c 1,18,19
 191 413 191 413 102 350 c 0,20,21
 47 310 47 310 21 277 c 0,22,23
 0 250 0 250 0 230 c 0,24,25
 0 189 0 189 85 183 c 0,26,27
 155 179 155 179 268 201 c 1,28,29
 281 128 281 128 326 53 c 1,30,31
 261 -6 261 -6 261 -70 c 0,32,33
 261 -141 261 -141 321 -200 c 1,34,35
 384 -185 384 -185 450 -91 c 1,36,37
 503 -134 503 -134 565 -162 c 1,38,39
 627 -134 627 -134 680 -91 c 1,40,41
 746 -185 746 -185 809 -200 c 1,42,43
 869 -141 869 -141 869 -70 c 0,44,45
 869 -6 869 -6 804 53 c 1,46,47
 868 161 868 161 866 248 c 0,48,49
 864 320 864 320 834 404 c 1,50,51
 906 443 906 443 959 480 c 0,52,53
 1076 562 1076 562 1066 610 c 0,0,1
774 519 m 1,54,55
 756 545 756 545 735 566 c 1,56,57
 786 566 786 566 786 544 c 0,58,59
 786 534 786 534 774 519 c 1,54,55
277 338 m 1,60,61
 255 343 255 343 255 357 c 0,62,63
 255 374 255 374 286 399 c 0,64,65
 291 404 291 404 298 409 c 1,66,67
 285 375 285 375 277 338 c 1,60,61
533 617 m 1,68,69
 504 610 504 610 462.5 576 c 128,-1,70
 421 542 421 542 404 517 c 1,71,72
 435 504 435 504 465 504 c 1,73,74
 468 516 468 516 490 554 c 128,-1,75
 512 592 512 592 533 617 c 1,68,69
565 752 m 1,76,77
 547 719 547 719 547 638 c 1,78,-1
 565 632 l 1,79,-1
 565 752 l 1,76,77
418 352 m 1,80,81
 545 384 545 384 663 444 c 0,82,83
 690 458 690 458 713 472 c 1,84,85
 642 459 642 459 566 459 c 0,86,87
 464 459 464 459 384 480 c 1,88,89
 350 419 350 419 335 337 c 1,90,91
 372 341 372 341 418 352 c 1,92,93
 418 352 418 352 418 352 c 129,-1,94
 418 352 418 352 418 352 c 1,80,81
338 34 m 1,95,96
 317 0 317 0 317 -73 c 0,97,98
 317 -132 317 -132 337 -150 c 1,99,100
 366 -143 366 -143 394 -121.5 c 128,-1,101
 422 -100 422 -100 434 -77 c 1,102,103
 379 -28 379 -28 338 34 c 1,104,105
 338 34 338 34 338 34 c 129,-1,106
 338 34 338 34 338 34 c 1,95,96
696 -77 m 1,107,108
 708 -100 708 -100 736 -121.5 c 128,-1,109
 764 -143 764 -143 793 -150 c 1,110,111
 813 -132 813 -132 813 -73 c 0,112,113
 813 0 813 0 792 34 c 1,114,115
 751 -28 751 -28 696 -77 c 1,107,108
804 248 m 1,116,117
 802 316 802 316 786 380 c 1,118,119
 614 295 614 295 424 239 c 0,120,121
 374 225 374 225 327 214 c 1,122,123
 336 124 336 124 388 41 c 0,124,125
 451 -60 451 -60 565 -121 c 1,126,127
 691 -54 691 -54 755 62 c 0,128,129
 806 156 806 156 804 248 c 1,130,131
 807 248 807 248 804 248 c 1,116,117
927 615 m 1,132,133
 897 623 897 623 844 620 c 1,134,135
 783 615 783 615 700 596 c 1,136,137
 708 589 708 589 717 582 c 1,138,139
 754 589 754 589 782 590 c 0,140,141
 812 591 812 591 832 586 c 0,142,143
 866 578 866 578 859 554 c 0,144,145
 845 508 845 508 710 438 c 0,146,147
 555 357 555 357 385 317 c 1,148,149
 313 299 313 299 262 298 c 1,150,151
 229 296 229 296 209 302 c 0,152,153
 176 312 176 312 190 340 c 0,154,155
 210 379 210 379 309 435 c 1,156,157
 314 447 314 447 319 458 c 1,158,159
 225 411 225 411 166 367 c 0,160,161
 95 314 95 314 95 281 c 0,162,163
 95 244 95 244 178 243 c 0,164,165
 242 243 242 243 338 265 c 0,166,167
 571 316 571 316 780 429 c 0,168,169
 867 476 867 476 915 518 c 0,170,171
 958 556 958 556 960 582 c 0,172,173
 961 605 961 605 927 615 c 1,174,175
 927 615 927 615 927 615 c 129,-1,176
 927 615 927 615 927 615 c 1,132,133
448 226 m 1,177,178
 426 216 426 216 426 191 c 0,179,180
 426 176 426 176 437 164.5 c 128,-1,181
 448 153 448 153 464 153 c 0,182,183
 494 153 494 153 501 182 c 1,184,-1
 448 226 l 1,177,178
695 226 m 1,185,186
 718 216 718 216 718 191 c 0,187,188
 718 176 718 176 707 164.5 c 128,-1,189
 696 153 696 153 680 153 c 0,190,191
 650 153 650 153 643 182 c 1,192,-1
 695 226 l 1,185,186
571 -3 m 256,193,194
 617 -3 617 -3 645 30 c 0,195,196
 649 35 649 35 684 97 c 1,197,198
 640 43 640 43 571 43 c 256,199,200
 502 43 502 43 458 97 c 1,201,202
 493 35 493 35 497 30 c 0,203,204
 525 -3 525 -3 571 -3 c 256,193,194
EndSplineSet
Validated: 37
EndChar

StartChar: Omega
Encoding: 8486 -1 212
AltUni2: 002126.ffffffff.0
Width: 1066
Flags: W
LayerCount: 2
Fore
SplineSet
1066 610 m 0,0,1
 1057 650 1057 650 961 651 c 0,2,3
 886 652 886 652 773 627 c 0,4,5
 731 618 731 618 685 606 c 1,6,7
 646 631 646 631 600 643 c 1,8,9
 600 682 600 682 589 733 c 0,10,11
 577 788 577 788 565 800 c 1,12,13
 553 788 553 788 541 733 c 0,14,15
 530 682 530 682 530 643 c 1,16,17
 403 610 403 610 329 477 c 1,18,19
 191 413 191 413 102 350 c 0,20,21
 47 310 47 310 21 277 c 0,22,23
 0 250 0 250 0 230 c 0,24,25
 0 189 0 189 85 183 c 0,26,27
 155 179 155 179 268 201 c 1,28,29
 281 128 281 128 326 53 c 1,30,31
 261 -6 261 -6 261 -70 c 0,32,33
 261 -141 261 -141 321 -200 c 1,34,35
 384 -185 384 -185 450 -91 c 1,36,37
 503 -134 503 -134 565 -162 c 1,38,39
 627 -134 627 -134 680 -91 c 1,40,41
 746 -185 746 -185 809 -200 c 1,42,43
 869 -141 869 -141 869 -70 c 0,44,45
 869 -6 869 -6 804 53 c 1,46,47
 868 161 868 161 866 248 c 0,48,49
 864 320 864 320 834 404 c 1,50,51
 906 443 906 443 959 480 c 0,52,53
 1076 562 1076 562 1066 610 c 0,0,1
774 519 m 1,54,55
 756 545 756 545 735 566 c 1,56,57
 786 566 786 566 786 544 c 0,58,59
 786 534 786 534 774 519 c 1,54,55
277 338 m 1,60,61
 255 343 255 343 255 357 c 0,62,63
 255 374 255 374 286 399 c 0,64,65
 291 404 291 404 298 409 c 1,66,67
 285 375 285 375 277 338 c 1,60,61
533 617 m 1,68,69
 504 610 504 610 462.5 576 c 128,-1,70
 421 542 421 542 404 517 c 1,71,72
 435 504 435 504 465 504 c 1,73,74
 468 516 468 516 490 554 c 128,-1,75
 512 592 512 592 533 617 c 1,68,69
565 752 m 1,76,77
 547 719 547 719 547 638 c 1,78,-1
 565 632 l 1,79,-1
 565 752 l 1,76,77
418 352 m 1,80,81
 545 384 545 384 663 444 c 0,82,83
 690 458 690 458 713 472 c 1,84,85
 642 459 642 459 566 459 c 0,86,87
 464 459 464 459 384 480 c 1,88,89
 350 419 350 419 335 337 c 1,90,91
 372 341 372 341 418 352 c 1,92,93
 418 352 418 352 418 352 c 129,-1,94
 418 352 418 352 418 352 c 1,80,81
338 34 m 1,95,96
 317 0 317 0 317 -73 c 0,97,98
 317 -132 317 -132 337 -150 c 1,99,100
 366 -143 366 -143 394 -121.5 c 128,-1,101
 422 -100 422 -100 434 -77 c 1,102,103
 379 -28 379 -28 338 34 c 1,104,105
 338 34 338 34 338 34 c 129,-1,106
 338 34 338 34 338 34 c 1,95,96
696 -77 m 1,107,108
 708 -100 708 -100 736 -121.5 c 128,-1,109
 764 -143 764 -143 793 -150 c 1,110,111
 813 -132 813 -132 813 -73 c 0,112,113
 813 0 813 0 792 34 c 1,114,115
 751 -28 751 -28 696 -77 c 1,107,108
804 248 m 1,116,117
 802 316 802 316 786 380 c 1,118,119
 614 295 614 295 424 239 c 0,120,121
 374 225 374 225 327 214 c 1,122,123
 336 124 336 124 388 41 c 0,124,125
 451 -60 451 -60 565 -121 c 1,126,127
 691 -54 691 -54 755 62 c 0,128,129
 806 156 806 156 804 248 c 1,130,131
 807 248 807 248 804 248 c 1,116,117
927 615 m 1,132,133
 897 623 897 623 844 620 c 1,134,135
 783 615 783 615 700 596 c 1,136,137
 708 589 708 589 717 582 c 1,138,139
 754 589 754 589 782 590 c 0,140,141
 812 591 812 591 832 586 c 0,142,143
 866 578 866 578 859 554 c 0,144,145
 845 508 845 508 710 438 c 0,146,147
 555 357 555 357 385 317 c 1,148,149
 313 299 313 299 262 298 c 1,150,151
 229 296 229 296 209 302 c 0,152,153
 176 312 176 312 190 340 c 0,154,155
 210 379 210 379 309 435 c 1,156,157
 314 447 314 447 319 458 c 1,158,159
 225 411 225 411 166 367 c 0,160,161
 95 314 95 314 95 281 c 0,162,163
 95 244 95 244 178 243 c 0,164,165
 242 243 242 243 338 265 c 0,166,167
 571 316 571 316 780 429 c 0,168,169
 867 476 867 476 915 518 c 0,170,171
 958 556 958 556 960 582 c 0,172,173
 961 605 961 605 927 615 c 1,174,175
 927 615 927 615 927 615 c 129,-1,176
 927 615 927 615 927 615 c 1,132,133
448 226 m 1,177,178
 426 216 426 216 426 191 c 0,179,180
 426 176 426 176 437 164.5 c 128,-1,181
 448 153 448 153 464 153 c 0,182,183
 494 153 494 153 501 182 c 1,184,-1
 448 226 l 1,177,178
695 226 m 1,185,186
 718 216 718 216 718 191 c 0,187,188
 718 176 718 176 707 164.5 c 128,-1,189
 696 153 696 153 680 153 c 0,190,191
 650 153 650 153 643 182 c 1,192,-1
 695 226 l 1,185,186
571 -3 m 256,193,194
 617 -3 617 -3 645 30 c 0,195,196
 649 35 649 35 684 97 c 1,197,198
 640 43 640 43 571 43 c 256,199,200
 502 43 502 43 458 97 c 1,201,202
 493 35 493 35 497 30 c 0,203,204
 525 -3 525 -3 571 -3 c 256,193,194
EndSplineSet
Validated: 37
EndChar

StartChar: approxequal
Encoding: 8946 -1 214
AltUni2: 0022f2.ffffffff.0
Width: 616
Flags: W
LayerCount: 2
Fore
SplineSet
547 386 m 1,0,-1
 513 346 l 2,1,2
 456 279 456 279 384 279 c 0,3,4
 335 279 335 279 258 318 c 1,5,6
 202 348 202 348 182 348 c 0,7,8
 157 348 157 348 129 315 c 1,9,-1
 129 315 l 1,10,-1
 96 275 l 1,11,-1
 16 343 l 1,12,-1
 50 382 l 2,13,14
 109 450 109 450 182 450 c 0,15,16
 231 450 231 450 306 410 c 1,17,18
 361 382 361 382 382 382 c 0,19,20
 408 382 408 382 434 413 c 2,21,-1
 468 453 l 1,22,-1
 547 386 l 1,0,-1
547 176 m 1,23,-1
 513 136 l 2,24,25
 456 68 456 68 384 68 c 0,26,27
 335 68 335 68 258 108 c 0,28,29
 202 137 202 137 182 137 c 0,30,31
 157 137 157 137 129 105 c 1,32,-1
 129 105 l 1,33,-1
 96 65 l 1,34,-1
 16 133 l 1,35,-1
 50 172 l 2,36,37
 109 239 109 239 182 239 c 0,38,39
 231 239 231 239 306 200 c 0,40,41
 361 171 361 171 382 171 c 0,42,43
 408 171 408 171 434 203 c 2,44,-1
 468 243 l 1,45,-1
 547 176 l 1,23,-1
EndSplineSet
Validated: 5
EndChar

StartChar: Delta
Encoding: 8710 -1 215
AltUni2: 002206.ffffffff.0
Width: 745
Flags: W
LayerCount: 2
Fore
SplineSet
0 0 m 1,0,-1
 357 603 l 1,1,-1
 711 0 l 1,2,-1
 0 0 l 1,0,-1
EndSplineSet
Validated: 1
EndChar

StartChar: fraction
Encoding: 8260 8260 217
Width: 443
Flags: W
LayerCount: 2
Fore
SplineSet
400 698 m 1,0,-1
 7 -250 l 1,1,-1
 -89 -210 l 1,2,-1
 304 738 l 1,3,-1
 400 698 l 1,0,-1
EndSplineSet
Validated: 1
EndChar

StartChar: fi
Encoding: 61441 61441 218
Width: 470
Flags: W
LayerCount: 2
Fore
SplineSet
428 0 m 1,0,1
 162 0 162 0 162 192 c 2,2,-1
 162 426 l 1,3,-1
 105 426 l 1,4,-1
 105 0 l 1,5,-1
 1 0 l 1,6,-1
 1 546 l 2,7,8
 1 739 1 739 266 739 c 1,9,-1
 266 635 l 1,10,11
 170 635 170 635 133 608 c 0,12,13
 105 588 105 588 105 546 c 2,14,-1
 105 530 l 1,15,-1
 162 530 l 1,16,-1
 162 531 l 1,17,-1
 266 531 l 1,18,-1
 266 192 l 2,19,20
 266 151 266 151 294 131 c 0,21,22
 331 104 331 104 428 104 c 1,23,-1
 428 0 l 1,0,1
EndSplineSet
Validated: 1
EndChar

StartChar: fl
Encoding: 61442 61442 219
Width: 576
Flags: W
LayerCount: 2
Fore
SplineSet
531 0 m 1,0,1
 266 0 266 0 266 192 c 2,2,-1
 266 426 l 1,3,-1
 104 426 l 1,4,-1
 104 0 l 1,5,-1
 0 0 l 1,6,-1
 0 546 l 2,7,8
 0 739 0 739 266 739 c 2,9,-1
 370 739 l 1,10,-1
 370 192 l 2,11,12
 370 150 370 150 397 131 c 0,13,14
 434 104 434 104 531 104 c 1,15,-1
 531 0 l 1,0,1
266 530 m 1,16,-1
 266 635 l 1,17,18
 169 635 169 635 132 608 c 0,19,20
 104 588 104 588 104 546 c 2,21,-1
 104 530 l 1,22,-1
 266 530 l 1,16,-1
EndSplineSet
Validated: 1
EndChar

StartChar: apple
Encoding: 61440 61440 220
Width: 1066
Flags: W
LayerCount: 2
Fore
SplineSet
1066 610 m 0,0,1
 1057 650 1057 650 961 651 c 0,2,3
 886 652 886 652 773 627 c 0,4,5
 731 618 731 618 685 606 c 1,6,7
 646 631 646 631 600 643 c 1,8,9
 600 682 600 682 589 733 c 0,10,11
 577 788 577 788 565 800 c 1,12,13
 553 788 553 788 541 733 c 0,14,15
 530 682 530 682 530 643 c 1,16,17
 403 610 403 610 329 477 c 1,18,19
 191 413 191 413 102 350 c 0,20,21
 47 310 47 310 21 277 c 0,22,23
 0 250 0 250 0 230 c 0,24,25
 0 189 0 189 85 183 c 0,26,27
 155 179 155 179 268 201 c 1,28,29
 281 128 281 128 326 53 c 1,30,31
 261 -6 261 -6 261 -70 c 0,32,33
 261 -141 261 -141 321 -200 c 1,34,35
 384 -185 384 -185 450 -91 c 1,36,37
 503 -134 503 -134 565 -162 c 1,38,39
 627 -134 627 -134 680 -91 c 1,40,41
 746 -185 746 -185 809 -200 c 1,42,43
 869 -141 869 -141 869 -70 c 0,44,45
 869 -6 869 -6 804 53 c 1,46,47
 868 161 868 161 866 248 c 0,48,49
 864 320 864 320 834 404 c 1,50,51
 906 443 906 443 959 480 c 0,52,53
 1076 562 1076 562 1066 610 c 0,0,1
774 519 m 1,54,55
 756 545 756 545 735 566 c 1,56,57
 786 566 786 566 786 544 c 0,58,59
 786 534 786 534 774 519 c 1,54,55
277 338 m 1,60,61
 255 343 255 343 255 357 c 0,62,63
 255 374 255 374 286 399 c 0,64,65
 291 404 291 404 298 409 c 1,66,67
 285 375 285 375 277 338 c 1,60,61
533 617 m 1,68,69
 504 610 504 610 462.5 576 c 128,-1,70
 421 542 421 542 404 517 c 1,71,72
 435 504 435 504 465 504 c 1,73,74
 468 516 468 516 490 554 c 128,-1,75
 512 592 512 592 533 617 c 1,68,69
565 752 m 1,76,77
 547 719 547 719 547 638 c 1,78,-1
 565 632 l 1,79,-1
 565 752 l 1,76,77
418 352 m 1,80,81
 545 384 545 384 663 444 c 0,82,83
 690 458 690 458 713 472 c 1,84,85
 642 459 642 459 566 459 c 0,86,87
 464 459 464 459 384 480 c 1,88,89
 350 419 350 419 335 337 c 1,90,91
 372 341 372 341 418 352 c 1,92,93
 418 352 418 352 418 352 c 129,-1,94
 418 352 418 352 418 352 c 1,80,81
338 34 m 1,95,96
 317 0 317 0 317 -73 c 0,97,98
 317 -132 317 -132 337 -150 c 1,99,100
 366 -143 366 -143 394 -121.5 c 128,-1,101
 422 -100 422 -100 434 -77 c 1,102,103
 379 -28 379 -28 338 34 c 1,104,105
 338 34 338 34 338 34 c 129,-1,106
 338 34 338 34 338 34 c 1,95,96
696 -77 m 1,107,108
 708 -100 708 -100 736 -121.5 c 128,-1,109
 764 -143 764 -143 793 -150 c 1,110,111
 813 -132 813 -132 813 -73 c 0,112,113
 813 0 813 0 792 34 c 1,114,115
 751 -28 751 -28 696 -77 c 1,107,108
804 248 m 1,116,117
 802 316 802 316 786 380 c 1,118,119
 614 295 614 295 424 239 c 0,120,121
 374 225 374 225 327 214 c 1,122,123
 336 124 336 124 388 41 c 0,124,125
 451 -60 451 -60 565 -121 c 1,126,127
 691 -54 691 -54 755 62 c 0,128,129
 806 156 806 156 804 248 c 1,130,131
 807 248 807 248 804 248 c 1,116,117
927 615 m 1,132,133
 897 623 897 623 844 620 c 1,134,135
 783 615 783 615 700 596 c 1,136,137
 708 589 708 589 717 582 c 1,138,139
 754 589 754 589 782 590 c 0,140,141
 812 591 812 591 832 586 c 0,142,143
 866 578 866 578 859 554 c 0,144,145
 845 508 845 508 710 438 c 0,146,147
 555 357 555 357 385 317 c 1,148,149
 313 299 313 299 262 298 c 1,150,151
 229 296 229 296 209 302 c 0,152,153
 176 312 176 312 190 340 c 0,154,155
 210 379 210 379 309 435 c 1,156,157
 314 447 314 447 319 458 c 1,158,159
 225 411 225 411 166 367 c 0,160,161
 95 314 95 314 95 281 c 0,162,163
 95 244 95 244 178 243 c 0,164,165
 242 243 242 243 338 265 c 0,166,167
 571 316 571 316 780 429 c 0,168,169
 867 476 867 476 915 518 c 0,170,171
 958 556 958 556 960 582 c 0,172,173
 961 605 961 605 927 615 c 1,174,175
 927 615 927 615 927 615 c 129,-1,176
 927 615 927 615 927 615 c 1,132,133
448 226 m 1,177,178
 426 216 426 216 426 191 c 0,179,180
 426 176 426 176 437 164.5 c 128,-1,181
 448 153 448 153 464 153 c 0,182,183
 494 153 494 153 501 182 c 1,184,-1
 448 226 l 1,177,178
695 226 m 1,185,186
 718 216 718 216 718 191 c 0,187,188
 718 176 718 176 707 164.5 c 128,-1,189
 696 153 696 153 680 153 c 0,190,191
 650 153 650 153 643 182 c 1,192,-1
 695 226 l 1,185,186
571 -3 m 256,193,194
 617 -3 617 -3 645 30 c 0,195,196
 649 35 649 35 684 97 c 1,197,198
 640 43 640 43 571 43 c 256,199,200
 502 43 502 43 458 97 c 1,201,202
 493 35 493 35 497 30 c 0,203,204
 525 -3 525 -3 571 -3 c 256,193,194
EndSplineSet
Validated: 37
EndChar

StartChar: breve
Encoding: 728 728 222
Width: 485
Flags: W
LayerCount: 2
Fore
SplineSet
416 631 m 1,0,-1
 203 524 l 1,1,-1
 -10 631 l 1,2,-1
 37 724 l 1,3,-1
 203 640 l 1,4,-1
 369 724 l 1,5,-1
 416 631 l 1,0,-1
EndSplineSet
Validated: 1
EndChar

